<?xml version="1.0" standalone="no"?>
<!DOCTYPE svg PUBLIC "-//W3C//DTD SVG 1.1//EN" "http://www.w3.org/Graphics/SVG/1.1/DTD/svg11.dtd" >
<svg xmlns="http://www.w3.org/2000/svg" xmlns:xlink="http://www.w3.org/1999/xlink" version="1.1">
<metadata>
Created by FontForge 20161013 at Tue Jul 19 18:55:20 2016
 By ,,,
Copyright (c) 2007-2016 Bold Monday. All rights reserved. Nitti is a trademark of Bold Monday. Unauthorized copying or modification of any of its data is illegal.
</metadata>
<defs>
<font id="Nitti-Light" horiz-adv-x="600" >
  <font-face 
    font-family="Nitti Light"
    font-weight="300"
    font-stretch="normal"
    units-per-em="1000"
    panose-1="2 11 4 9 4 0 0 6 0 4"
    ascent="780"
    descent="-220"
    x-height="432"
    cap-height="558"
    bbox="-250 -420 638 980"
    underline-thickness="44"
    underline-position="-244"
    unicode-range="U+0020-FB4F"
  />
<missing-glyph 
d="M291 136l-29 33q96 77 129 117.5t33 79.5q0 43 -31.5 70.5t-100.5 27.5q-131 0 -131 -98h-60q0 79 54.5 116t138.5 37q95 0 144 -43t49 -108q0 -60 -45.5 -110.5t-150.5 -121.5zM239 -50v102h102v-102h-102zM0 -178v810h600v-810h-600zM51 587v-720h498v720h-498z" />
    <glyph glyph-name=".notdef" 
d="M291 136l-29 33q96 77 129 117.5t33 79.5q0 43 -31.5 70.5t-100.5 27.5q-131 0 -131 -98h-60q0 79 54.5 116t138.5 37q95 0 144 -43t49 -108q0 -60 -45.5 -110.5t-150.5 -121.5zM239 -50v102h102v-102h-102zM0 -178v810h600v-810h-600zM51 587v-720h498v720h-498z" />
    <glyph glyph-name=".null" horiz-adv-x="0" 
 />
    <glyph glyph-name="nonmarkingreturn" horiz-adv-x="333" 
 />
    <glyph glyph-name="space" unicode=" " 
 />
    <glyph glyph-name="exclam" unicode="!" 
d="M282 193l-14 191v174h65v-174l-14 -191h-37zM249 0v102h102v-102h-102z" />
    <glyph glyph-name="quotedbl" unicode="&#x22;" 
d="M190 299q-24 213 -24 224q0 46 46 46t46 -46q0 -11 -24 -224h-44zM366 299q-24 213 -24 224q0 46 46 46t46 -46q0 -11 -24 -224h-44z" />
    <glyph glyph-name="numbersign" unicode="#" 
d="M124 0l31 162h-105l10 48h105l29 150h-106l10 48h105l29 150h53l-29 -150h138l29 150h53l-29 -150h103l-10 -48h-102l-29 -150h103l-10 -48h-103l-31 -162h-53l31 162h-138l-31 -162h-53zM247 360l-29 -150h138l29 150h-138z" />
    <glyph glyph-name="dollar" unicode="$" 
d="M273 -70v61q-80 6 -126.5 48t-46.5 117h61q5 -97 112 -110v220l-36 13q-126 44 -126 144q0 64 45 102t117 43v61h49v-61q73 -6 116 -47t43 -116h-60q-4 93 -99 107v-203l47 -15q69 -22 100.5 -56t31.5 -89q0 -73 -50 -112.5t-129 -45.5v-61h-49zM356 239l-34 12v-206
q55 4 86 30t31 70q0 65 -83 94zM174 423q0 -62 76 -89l23 -9v188q-48 -4 -73.5 -28.5t-25.5 -61.5z" />
    <glyph glyph-name="percent" unicode="%" 
d="M166 261q-60 0 -100.5 38t-40.5 115q0 78 41.5 116.5t101.5 38.5t100.5 -38t40.5 -115q0 -78 -41.5 -116.5t-101.5 -38.5zM167 314q84 0 84 101t-84 101t-84 -101t84 -101zM432 -10q-60 0 -100.5 38t-40.5 115q0 78 41.5 116.5t101.5 38.5t100.5 -38t40.5 -115
q0 -78 -41.5 -116.5t-101.5 -38.5zM433 43q84 0 84 101t-84 101t-84 -101t84 -101zM36 0l175 226h40v-40l-143 -186h-72zM349 333v40l142 185h72l-174 -225h-40z" />
    <glyph glyph-name="ampersand" unicode="&#x26;" 
d="M285 54h123v207h-115q-72 0 -114.5 -27.5t-42.5 -81.5q0 -98 149 -98zM276 0q-99 0 -151 39.5t-52 110.5q0 102 98 135q-88 35 -88 129q0 73 52.5 114t138.5 41q36 0 67 -7.5t59.5 -24t46.5 -49t21 -77.5h-61q-10 104 -132 104q-129 0 -129 -101t147 -101h271v-52h-95
v-261h-193z" />
    <glyph glyph-name="quotesingle" unicode="'" 
d="M278 299q-24 213 -24 224q0 46 46 46t46 -46q0 -11 -24 -224h-44z" />
    <glyph glyph-name="parenleft" unicode="(" 
d="M414 -178q-224 192 -224 405t224 405h61q-122 -127 -172.5 -218t-50.5 -187t50.5 -187t172.5 -218h-61z" />
    <glyph glyph-name="parenright" unicode=")" 
d="M125 -178q122 127 172.5 218t50.5 187t-50.5 187t-172.5 218h61q224 -192 224 -405t-224 -405h-61z" />
    <glyph glyph-name="asterisk" unicode="*" 
d="M198 243l-39 29l92 137l-155 57l15 46l159 -45l6 165h48l6 -165l159 45l15 -46l-155 -57l92 -137l-39 -29l-102 130z" />
    <glyph glyph-name="plus" unicode="+" 
d="M272 0v190h-192v54h192v188h57v-188h192v-54h-192v-190h-57z" />
    <glyph glyph-name="comma" unicode="," 
d="M235 -153q-23 0 -23 21q0 9 2 19l36 215h105l-93 -234q-9 -21 -27 -21z" />
    <glyph glyph-name="hyphen" unicode="-" 
d="M155 252v55h290v-55h-290z" />
    <glyph glyph-name="period" unicode="." 
d="M249 0v102h102v-102h-102z" />
    <glyph glyph-name="slash" unicode="/" 
d="M-36 -178l554 810h64l-554 -810h-64z" />
    <glyph glyph-name="zero" unicode="0" 
d="M299 -10q-104 0 -157 77.5t-53 209.5q0 135 54 213.5t158 78.5t157 -78t53 -210q0 -135 -54 -213t-158 -78zM300 46q146 0 146 233q0 234 -146 234t-146 -234q0 -233 146 -233zM300 240q-17 0 -28 11t-11 28t11 28t28 11t28 -11t11 -28t-11 -28t-28 -11z" />
    <glyph glyph-name="one" unicode="1" 
d="M138 0v53h144v423q-46 -43 -125 -43h-19v57h36q83 0 115 68h54v-505h130v-53h-335z" />
    <glyph glyph-name="two" unicode="2" 
d="M119 0v27q0 74 34 119.5t95 81.5l79 47q96 57 96 132q0 51 -34 79.5t-90 28.5q-129 0 -138 -123h-62q5 91 61 134t140 43t136 -44t52 -117q0 -60 -33 -101.5t-92 -77.5l-88 -54q-87 -53 -92 -120h317v-55h-381z" />
    <glyph glyph-name="three" unicode="3" 
d="M303 -10q-89 0 -146 43.5t-61 133.5h62q8 -123 145 -123q61 0 97.5 27.5t36.5 79.5q0 55 -40.5 85t-105.5 30h-11v51h11q133 0 133 97q0 46 -34.5 73.5t-89.5 27.5q-129 0 -138 -123h-62q5 91 61 134t140 43q85 0 136.5 -43.5t51.5 -111.5q0 -88 -89 -121
q48 -17 75 -54.5t27 -87.5q0 -72 -52.5 -116.5t-146.5 -44.5z" />
    <glyph glyph-name="four" unicode="4" 
d="M355 0v150h-291v41l296 367h56v-353h89v-55h-89v-150h-61zM143 205h212v263z" />
    <glyph glyph-name="five" unicode="5" 
d="M313 -10q-78 0 -132.5 44.5t-58.5 132.5h62q4 -64 39.5 -93.5t88.5 -29.5q60 0 94 34.5t34 96.5q0 63 -37.5 97.5t-99.5 34.5q-39 0 -77 -16.5t-60 -45.5l-33 10l30 303h309v-55h-258l-18 -176q49 34 123 34q81 0 133.5 -51.5t52.5 -134.5q0 -81 -53 -133t-139 -52z" />
    <glyph glyph-name="six" unicode="6" 
d="M315 -10q-97 0 -154 69.5t-57 214.5q0 140 56 217.5t162 77.5q83 0 132.5 -48t51.5 -129h-62q-3 56 -34 89.5t-88 33.5q-146 0 -153 -221q52 54 144 54q88 0 139.5 -49t51.5 -131q0 -77 -51.5 -127.5t-137.5 -50.5zM314 44q56 0 90.5 33.5t34.5 90.5q0 60 -35 93t-92 33
q-84 0 -143 -51q10 -199 145 -199z" />
    <glyph glyph-name="seven" unicode="7" 
d="M246 0v52q0 128 52 252t145 199h-285v-78h-58v133h420v-51q-211 -175 -211 -467v-40h-63z" />
    <glyph glyph-name="eight" unicode="8" 
d="M300 -10q-88 0 -149 41.5t-61 117.5q0 102 106 137q-93 35 -93 125q0 79 57 118.5t140 39.5t140 -39.5t57 -118.5q0 -90 -94 -125q107 -35 107 -137q0 -76 -61 -117.5t-149 -41.5zM300 43q63 0 104 27t41 80q0 56 -40.5 82.5t-104.5 26.5t-104.5 -26.5t-40.5 -82.5
q0 -53 41 -80t104 -27zM300 312q56 0 94 24.5t38 75.5q0 53 -37.5 78.5t-94.5 25.5t-94.5 -25.5t-37.5 -78.5q0 -51 38 -75.5t94 -24.5z" />
    <glyph glyph-name="nine" unicode="9" 
d="M284 -10q-87 0 -137 48t-52 129h62q3 -57 34.5 -90t92.5 -33q69 0 107 49t40 174q-47 -54 -144 -54q-89 0 -140 48.5t-51 130.5q0 77 51.5 127t137.5 50q94 0 152.5 -67.5t58.5 -219.5q0 -81 -17.5 -140t-48 -91t-66.5 -46.5t-80 -14.5zM288 267q85 0 142 51
q-11 197 -144 197q-56 0 -90.5 -33.5t-34.5 -89.5q0 -59 34.5 -92t92.5 -33z" />
    <glyph glyph-name="colon" unicode=":" 
d="M249 0v102h102v-102h-102zM249 330v102h102v-102h-102z" />
    <glyph glyph-name="semicolon" unicode=";" 
d="M235 -153q-23 0 -23 21q0 9 2 19l36 215h105l-93 -234q-9 -21 -27 -21zM249 330v102h102v-102h-102z" />
    <glyph glyph-name="less" unicode="&#x3c;" 
d="M526 -10l-452 203v46l452 203v-61l-374 -165l374 -163v-63z" />
    <glyph glyph-name="equal" unicode="=" 
d="M126 106v54h349v-54h-349zM126 274v54h349v-54h-349z" />
    <glyph glyph-name="greater" unicode="&#x3e;" 
d="M74 -10v61l373 164l-373 164v63l452 -203v-46z" />
    <glyph glyph-name="question" unicode="?" 
d="M291 186l-29 33q96 77 129 117.5t33 79.5q0 43 -31.5 70.5t-100.5 27.5q-131 0 -131 -98h-60q0 79 54.5 116t138.5 37q95 0 144 -43t49 -108q0 -60 -45.5 -110.5t-150.5 -121.5zM239 0v102h102v-102h-102z" />
    <glyph glyph-name="at" unicode="@" 
d="M198 -10q-32 0 -52.5 15.5t-34.5 67.5t-14 143q0 71 8 117.5t23.5 69.5t32.5 31t40 8q52 0 79 -47v37h52v-326q0 -32 16.5 -49t41.5 -17t41 17t16 49v296q0 96 -31.5 143t-117.5 47q-70 0 -102.5 -30t-32.5 -79h-56q0 26 8.5 51t28.5 51t60.5 41.5t96.5 15.5
q55 0 94 -16.5t59.5 -39t31.5 -58.5t13.5 -62.5t2.5 -63.5v-296q0 -63 -34.5 -89.5t-79.5 -26.5q-69 0 -93 61q-34 -61 -97 -61zM211 38q39 0 66 45v266q-27 45 -66 45q-31 0 -44 -39t-13 -139t13 -139t44 -39z" />
    <glyph glyph-name="A" unicode="A" 
d="M67 0l198 558h70l198 -558h-70l-47 139h-233l-48 -139h-68zM235 297l-35 -103h197l-34 101l-64 197z" />
    <glyph glyph-name="B" unicode="B" 
d="M134 0v558h160q85 0 139.5 -39.5t54.5 -109.5q0 -81 -82 -120q105 -36 105 -133q0 -71 -56.5 -113.5t-142.5 -42.5h-178zM197 258v-203h115q67 0 100.5 29.5t33.5 75.5q0 47 -35.5 72.5t-102.5 25.5h-111zM197 503v-190h88q138 0 138 92q0 46 -33 72t-100 26h-93z" />
    <glyph glyph-name="C" unicode="C" 
d="M310 -10q-108 0 -164.5 73.5t-56.5 214.5q0 142 57.5 216.5t168.5 74.5q35 0 66 -8t60.5 -26.5t48 -55.5t20.5 -89h-63q-15 125 -133 125q-160 0 -160 -236q0 -235 160 -235q118 0 133 125h63q-4 -94 -61.5 -136.5t-138.5 -42.5z" />
    <glyph glyph-name="D" unicode="D" 
d="M134 0v558h148q229 0 229 -278q0 -280 -229 -280h-148zM197 503v-448h85q43 0 74.5 14.5t48.5 35.5t26.5 53.5t12 59t2.5 61.5t-2.5 61.5t-12 59t-26.5 53.5t-48.5 35.5t-74.5 14.5h-85z" />
    <glyph glyph-name="E" unicode="E" 
d="M134 0v558h344v-55h-281v-190h247v-55h-247v-203h281v-55h-344z" />
    <glyph glyph-name="F" unicode="F" 
d="M134 0v558h349v-55h-286v-204h251v-55h-251v-244h-63z" />
    <glyph glyph-name="G" unicode="G" 
d="M291 -10q-56 0 -96.5 24.5t-62.5 67t-32 91.5t-10 107q0 139 55 214t156 75q34 0 64 -9t58.5 -29.5t46 -60.5t19.5 -95h-63q-14 140 -126 140q-77 0 -111 -65t-34 -168q0 -65 12 -115.5t46.5 -86.5t89.5 -36q71 0 122 53v145h-138v55h201v-297h-48v56q-15 -22 -53 -44
t-96 -22z" />
    <glyph glyph-name="H" unicode="H" 
d="M134 0v558h63v-245h206v245h63v-558h-63v258h-206v-258h-63z" />
    <glyph glyph-name="I" unicode="I" 
d="M133 0v55h136v448h-136v55h335v-55h-136v-448h136v-55h-335z" />
    <glyph glyph-name="J" unicode="J" 
d="M293 -10q-95 0 -141 50.5t-46 136.5q0 21 2 34h63q-2 -14 -2 -36q0 -129 123 -129q68 0 95.5 40.5t27.5 121.5v350h63v-350q0 -109 -44.5 -163.5t-140.5 -54.5z" />
    <glyph glyph-name="K" unicode="K" 
d="M134 0v558h63v-277l247 277h81l-216 -237l240 -321h-79l-201 277l-72 -78v-199h-63z" />
    <glyph glyph-name="L" unicode="L" 
d="M134 0v558h63v-503h286v-55h-349z" />
    <glyph glyph-name="M" unicode="M" 
d="M100 0v558h91l71 -203l39 -123l39 123l71 203h89v-558h-59v357l3 142l-117 -339h-54l-117 339l3 -142v-357h-59z" />
    <glyph glyph-name="N" unicode="N" 
d="M134 0v558h91l187 -495l-6 150v345h60v-558h-91l-187 495l6 -150v-345h-60z" />
    <glyph glyph-name="O" unicode="O" 
d="M299 -10q-104 0 -157 77.5t-53 209.5q0 135 54 213.5t158 78.5t157 -78t53 -210q0 -135 -54 -213t-158 -78zM300 46q146 0 146 233q0 234 -146 234t-146 -234q0 -233 146 -233z" />
    <glyph glyph-name="P" unicode="P" 
d="M134 0v558h148q109 0 168.5 -42.5t59.5 -127.5q0 -84 -59.5 -127t-168.5 -43h-85v-218h-63zM197 503v-230h86q162 0 162 115t-162 115h-86z" />
    <glyph glyph-name="Q" unicode="Q" 
d="M300 46q52 0 84 29l-150 144h76l106 -102q30 57 30 161q0 235 -146 235t-146 -234q0 -233 146 -233zM494 -30l-68 64q-50 -44 -127 -44q-105 0 -157.5 77.5t-52.5 209.5q0 134 54 213t159 79q104 0 156.5 -77.5t52.5 -210.5q0 -130 -50 -206l110 -105h-77z" />
    <glyph glyph-name="R" unicode="R" 
d="M134 0v558h129q108 0 168 -42.5t60 -123.5q0 -66 -40 -107.5t-109 -57.5l186 -227h-80l-174 220h-77v-220h-63zM197 503v-230h67q84 0 123 31.5t39 83.5t-39 83.5t-123 31.5h-67z" />
    <glyph glyph-name="S" unicode="S" 
d="M300 -10q-91 0 -145.5 42.5t-54.5 123.5h63q3 -52 38.5 -80.5t100.5 -28.5q61 0 98 25.5t37 72.5q0 62 -84 91l-119 42q-123 43 -123 144q0 70 52.5 108.5t133.5 38.5q83 0 133.5 -41.5t50.5 -122.5h-62q-4 107 -124 107q-58 0 -88.5 -24.5t-30.5 -64.5q0 -60 76 -87
l119 -42q69 -24 99.5 -57t30.5 -88q0 -79 -56 -119t-145 -40z" />
    <glyph glyph-name="T" unicode="T" 
d="M268 0v503h-191v55h446v-55h-192v-503h-63z" />
    <glyph glyph-name="U" unicode="U" 
d="M300 -10q-94 0 -138 47.5t-44 155.5v365h63v-365q0 -80 27 -113.5t92 -33.5q66 0 93 33.5t27 113.5v365h63v-365q0 -108 -44.5 -155.5t-138.5 -47.5z" />
    <glyph glyph-name="V" unicode="V" 
d="M261 0l-195 558h69l102 -303l63 -193l64 193l102 303h68l-195 -558h-78z" />
    <glyph glyph-name="W" unicode="W" 
d="M126 0l-73 558h63l38 -321l21 -182l91 310h69l91 -310l21 182l38 321h62l-73 -558h-88l-86 291l-86 -291h-88z" />
    <glyph glyph-name="X" unicode="X" 
d="M63 0l199 287l-188 271h76l89 -134l60 -91l60 91l89 134h78l-188 -271l199 -287h-76l-100 150l-60 91l-60 -91l-100 -150h-78z" />
    <glyph glyph-name="Y" unicode="Y" 
d="M269 0v226l-221 332h73l90 -136l91 -144l90 144l88 136h73l-221 -334v-224h-63z" />
    <glyph glyph-name="Z" unicode="Z" 
d="M107 0v50l308 453h-303v55h377v-50l-309 -453h312v-55h-385z" />
    <glyph glyph-name="bracketleft" unicode="[" 
d="M206 -178v810h266v-50h-209v-710h209v-50h-266z" />
    <glyph glyph-name="backslash" unicode="\" 
d="M572 -178l-554 810h64l554 -810h-64z" />
    <glyph glyph-name="bracketright" unicode="]" 
d="M128 -178v50h211v710h-211v50h266v-810h-266z" />
    <glyph glyph-name="asciicircum" unicode="^" 
d="M123 220l151 338h51l151 -338h-58l-118 275l-118 -275h-59z" />
    <glyph glyph-name="underscore" unicode="_" 
d="M22 -54v54h556v-54h-556z" />
    <glyph glyph-name="grave" unicode="`" 
d="M341 490l-120 191h80l77 -191h-37z" />
    <glyph glyph-name="a" unicode="a" 
d="M244 -10q-66 0 -106 30t-40 91q0 68 48 96t119 28t127 -18v40q0 32 -3 52t-13.5 40.5t-33.5 30t-60 9.5q-117 0 -117 -100h-59q0 45 17 77t46 47.5t57.5 22t60.5 6.5q164 0 164 -168v-209q0 -13 5.5 -17.5t19.5 -4.5q23 0 54 7v-46q-35 -14 -70 -14q-60 0 -60 57v8
q-50 -65 -156 -65zM248 44q82 0 144 46v82q-51 12 -119 12q-58 0 -87.5 -16.5t-29.5 -55.5q0 -68 92 -68z" />
    <glyph glyph-name="b" unicode="b" 
d="M319 -10q-86 0 -138 65v-55h-47v632h59v-246q48 56 128 56q78 0 128.5 -56t50.5 -169q0 -114 -52 -170.5t-129 -56.5zM308 45q66 0 98.5 46t32.5 125t-32.5 125t-98.5 46q-69 0 -115 -46v-250q46 -46 115 -46z" />
    <glyph glyph-name="c" unicode="c" 
d="M304 -10q-38 0 -71.5 11t-64.5 35t-49.5 70t-18.5 109q0 52 13 93t33.5 65.5t49 40.5t55.5 22t56 6q31 0 59 -7t55.5 -23t45.5 -47.5t21 -75.5h-60q-10 99 -119 99q-149 0 -149 -171q0 -173 149 -173q108 0 119 100h60q-3 -44 -21.5 -75.5t-46.5 -48t-56.5 -23.5
t-59.5 -7z" />
    <glyph glyph-name="d" unicode="d" 
d="M280 -10q-76 0 -128 55t-52 169q0 112 51 170t128 58t128 -56v246h59v-632h-47v55q-52 -65 -139 -65zM292 45q69 0 115 46v250q-46 46 -115 46q-66 0 -98.5 -46t-32.5 -125t32.5 -125t98.5 -46z" />
    <glyph glyph-name="e" unicode="e" 
d="M304 -10q-88 0 -146 55.5t-58 169.5q0 62 18 108t49 71t65 36.5t72 11.5q36 0 69 -11t63.5 -35t48.5 -70t18 -109v-14h-344q8 -161 148 -161q56 0 91.5 25.5t44.5 72.5h59q-7 -55 -42 -90.5t-74 -47.5t-82 -12zM160 252h282q-16 138 -142 138q-127 0 -140 -138z" />
    <glyph glyph-name="f" unicode="f" 
d="M123 0v54h117v324h-117v54h117v8q0 93 61.5 145t177.5 52v-54q-180 0 -180 -143v-8h180v-54h-180v-324h180v-54h-356z" />
    <glyph glyph-name="g" unicode="g" 
d="M284 -188q-180 0 -180 149h59q0 -51 29 -74.5t90 -23.5q77 0 101 30.5t24 90.5v62q-48 -56 -129 -56q-77 0 -127.5 56t-50.5 169q0 114 52 170.5t129 56.5q47 0 83 -19.5t55 -45.5v55h47v-453q0 -84 -41 -125.5t-141 -41.5zM292 45q69 0 115 46v250q-46 46 -115 46
q-66 0 -98.5 -46t-32.5 -125t32.5 -125t98.5 -46z" />
    <glyph glyph-name="h" unicode="h" 
d="M134 0v632h59v-244q46 54 127 54q65 0 106 -38t41 -139v-265h-59v250q0 72 -21 105.5t-79 33.5q-74 0 -115 -47v-342h-59z" />
    <glyph glyph-name="i" unicode="i" 
d="M118 0v54h160v324h-160v54h219v-378h147v-54h-366zM267 551v81h81v-81h-81z" />
    <glyph glyph-name="j" unicode="j" 
d="M152 -183v54q180 0 180 143v364h-168v54h227v-424q0 -91 -61.5 -141t-177.5 -50zM321 551v81h81v-81h-81z" />
    <glyph glyph-name="k" unicode="k" 
d="M134 0v632h59v-406l242 206h77l-194 -163l203 -269h-73l-171 235l-84 -70v-165h-59z" />
    <glyph glyph-name="l" unicode="l" 
d="M118 0v54h153v524h-153v54h212v-578h154v-54h-366z" />
    <glyph glyph-name="m" unicode="m" 
d="M62 0v432h47v-64q43 74 115 74q70 0 95 -71q46 71 115 71q47 0 76 -34t29 -99v-309h-59v294q0 95 -60 95q-52 0 -90 -63v-326h-59v294q0 95 -60 95q-52 0 -90 -63v-326h-59z" />
    <glyph glyph-name="n" unicode="n" 
d="M134 0v432h47v-55q45 65 141 65q145 0 145 -177v-265h-59v250q0 72 -21 105.5t-79 33.5q-74 0 -115 -47v-342h-59z" />
    <glyph glyph-name="o" unicode="o" 
d="M299 -10q-38 0 -71.5 11t-63 35.5t-47 70.5t-17.5 108q0 121 59 174t142 53q38 0 71.5 -11t63 -35.5t47 -70.5t17.5 -108q0 -121 -59 -174t-142 -53zM300 45q139 0 139 171t-139 171t-139 -171t139 -171z" />
    <glyph glyph-name="p" unicode="p" 
d="M134 -178v610h47v-55q52 65 139 65q76 0 128 -55t52 -169q0 -112 -51 -170t-128 -58t-128 56v-224h-59zM308 45q66 0 98.5 46t32.5 125t-32.5 125t-98.5 46q-69 0 -115 -46v-250q46 -46 115 -46z" />
    <glyph glyph-name="q" unicode="q" 
d="M407 -178v224q-48 -56 -129 -56q-77 0 -127.5 56t-50.5 169q0 114 52 170.5t129 56.5q89 0 138 -65v55h47v-610h-59zM292 45q69 0 115 46v250q-46 46 -115 46q-66 0 -98.5 -46t-32.5 -125t32.5 -125t98.5 -46z" />
    <glyph glyph-name="r" unicode="r" 
d="M118 0v54h115v324h-115v54h162v-93q17 43 54 73t97 30q40 0 75 -13v-60q-34 13 -72 13q-52 0 -88.5 -25t-53.5 -59v-244h192v-54h-366z" />
    <glyph glyph-name="s" unicode="s" 
d="M310 -10q-91 0 -143.5 37.5t-56.5 109.5h58q10 -93 146 -93q115 0 115 70q0 36 -30 51.5t-106 33.5l-7.5 1.5t-6.5 1.5l-8 2q-37 9 -58.5 16t-44.5 20t-33.5 33.5t-10.5 48.5q0 61 47.5 90.5t125.5 29.5q175 0 186 -136h-58q-14 82 -129 82q-112 0 -112 -62q0 -11 3 -20
t12 -16t16.5 -11.5t25 -9.5t28.5 -8t36 -8.5t39 -8.5q75 -18 110 -43.5t35 -81.5q0 -68 -49 -98.5t-130 -30.5z" />
    <glyph glyph-name="t" unicode="t" 
d="M380 -10q-82 0 -120.5 40t-38.5 141v207h-144v54h144v200h59v-200h212v-54h-212v-197q0 -75 22 -106t80 -31q47 0 99 16v-54q-44 -16 -101 -16z" />
    <glyph glyph-name="u" unicode="u" 
d="M279 -10q-145 0 -145 177v265h59v-250q0 -72 21 -105.5t79 -33.5q74 0 115 47v342h59v-432h-47v55q-45 -65 -141 -65z" />
    <glyph glyph-name="v" unicode="v" 
d="M267 0l-184 432h65l87 -214l66 -161l61 151l91 224h64l-184 -432h-66z" />
    <glyph glyph-name="w" unicode="w" 
d="M137 0l-75 432h59l59 -377l87 284h66l87 -284l60 377h58l-75 -432h-78l-85 276l-85 -276h-78z" />
    <glyph glyph-name="x" unicode="x" 
d="M70 0l194 222l-185 210h73l149 -172l148 172h71l-184 -211l195 -221h-73l-160 183l-157 -183h-71z" />
    <glyph glyph-name="y" unicode="y" 
d="M88 -183v54q68 0 108.5 29t69.5 98l-185 434h65l87 -214l66 -161l61 151l91 224h64l-186 -437q-42 -98 -96.5 -138t-144.5 -40z" />
    <glyph glyph-name="z" unicode="z" 
d="M118 0v44l278 334h-273v54h355v-44l-278 -333h283v-55h-365z" />
    <glyph glyph-name="braceleft" unicode="{" 
d="M401 -178q-95 0 -137.5 32t-42.5 112q0 11 1 26l5 87q2 36 2 47q0 42 -27.5 59t-87.5 17v50q60 0 87.5 17t27.5 59q0 11 -2 47l-5 87q-1 15 -1 26q0 80 42.5 112t137.5 32h71v-50h-67q-68 0 -97 -18.5t-29 -84.5q0 -7 1 -22l7 -112q1 -11 1 -24q0 -37 -19 -62t-54 -32
q35 -7 54 -32t19 -62q0 -13 -1 -24l-7 -112q-1 -15 -1 -22q0 -66 29 -84.5t97 -18.5h67v-50h-71z" />
    <glyph glyph-name="bar" unicode="|" 
d="M273 -178v810h55v-810h-55z" />
    <glyph glyph-name="braceright" unicode="}" 
d="M128 -178v50h67q68 0 97 18.5t29 84.5q0 7 -1 22l-7 112q-1 11 -1 24q0 37 19 62t54 32q-35 7 -54 32t-19 62q0 13 1 24l7 112q1 15 1 22q0 66 -29 84.5t-97 18.5h-67v50h71q95 0 137.5 -32t42.5 -112q0 -11 -1 -26l-5 -87q-2 -36 -2 -47q0 -42 27.5 -59t87.5 -17v-50
q-60 0 -87.5 -17t-27.5 -59q0 -11 2 -47l5 -87q1 -15 1 -26q0 -80 -42.5 -112t-137.5 -32h-71z" />
    <glyph glyph-name="asciitilde" unicode="~" 
d="M118 153l-33 14q12 43 40.5 78.5t70.5 35.5q32 0 120 -39q70 -30 89 -30q44 0 77 69l33 -14q-12 -43 -40.5 -78.5t-70.5 -35.5q-30 0 -108 34q-82 35 -101 35q-44 0 -77 -69z" />
    <glyph glyph-name="uni00A0" unicode="&#xa0;" 
 />
    <glyph glyph-name="exclamdown" unicode="&#xa1;" 
d="M268 -126v174l14 191h37l14 -191v-174h-65zM249 329v103h102v-103h-102z" />
    <glyph glyph-name="cent" unicode="&#xa2;" 
d="M275 -70v126q-75 9 -124.5 61.5t-49.5 162.5t50.5 162.5t123.5 61.5v124h49v-122q29 -2 55 -10t50.5 -24.5t40.5 -46.5t19 -71h-60q-11 93 -105 98v-343q94 5 105 100h60q-3 -40 -19 -70.5t-40.5 -47.5t-50.5 -25.5t-55 -10.5v-125h-49zM275 111v339q-114 -19 -114 -168
q0 -151 114 -171z" />
    <glyph glyph-name="sterling" unicode="&#xa3;" 
d="M122 0v55q103 21 103 95q0 10 -3 34l-11 93h-89v54h83q-2 24 -2 38q0 44 13.5 77.5t39.5 54t52.5 33.5t64.5 19t64 8t61 2v-54q-45 -1 -73 -3.5t-62 -11t-53 -23t-32 -41.5t-13 -66q0 -13 2 -33h158v-54h-152l12 -98q2 -16 2 -29q0 -67 -61 -96h283v-54h-387z" />
    <glyph glyph-name="currency" unicode="&#xa4;" 
d="M136 75l-36 36l79 79q-26 35 -26 87t26 87l-79 79l36 36l77 -78q43 24 87 24t87 -24l77 78l36 -36l-79 -79q26 -35 26 -87t-26 -87l79 -79l-36 -36l-77 78q-43 -24 -87 -24t-87 24zM300 179q40 0 64 26.5t24 71.5t-24 71.5t-64 26.5t-64 -26.5t-24 -71.5t24 -71.5
t64 -26.5z" />
    <glyph glyph-name="yen" unicode="&#xa5;" 
d="M116 0v55h153v170h-153v55h117l-185 278h73l90 -136l91 -144l90 144l88 136h73l-184 -278h117v-55h-154v-170h154v-55h-370z" />
    <glyph glyph-name="brokenbar" unicode="&#xa6;" 
d="M273 -178v321h55v-321h-55zM273 312v320h55v-320h-55z" />
    <glyph glyph-name="section" unicode="&#xa7;" 
d="M304 -115q-162 0 -168 148h58q8 -99 115 -99q98 0 98 71q0 34 -25 55.5t-76 42.5l-114 47q-101 42 -101 119q0 68 67 103q-26 34 -26 77q0 59 44 89.5t114 30.5q158 0 164 -148h-58q-8 99 -109 99q-44 0 -69 -18t-25 -53q0 -34 25 -55.5t76 -42.5l114 -47
q101 -42 101 -119q0 -67 -68 -104q27 -33 27 -75q0 -60 -45.5 -90.5t-118.5 -30.5zM340 149q46 -20 73 -40q36 27 36 66q0 52 -75 83l-114 47q-45 18 -73 40q-36 -27 -36 -66q0 -52 75 -83z" />
    <glyph glyph-name="dieresis" unicode="&#xa8;" 
d="M159 551v81h81v-81h-81zM360 551v81h81v-81h-81z" />
    <glyph glyph-name="copyright" unicode="&#xa9;" 
d="M302 127q-57 0 -88 38.5t-31 113.5q0 74 31.5 113t87.5 39q45 0 74 -26t30 -79h-49q-2 61 -55 61q-70 0 -70 -108t70 -108q53 0 55 61h49q-1 -52 -30.5 -78.5t-73.5 -26.5zM300 37q-116 0 -174 68.5t-58 173.5q0 104 58.5 173t173.5 69q116 0 174 -68.5t58 -173.5
q0 -104 -58.5 -173t-173.5 -69zM300 75q96 0 141.5 57.5t45.5 146.5t-45.5 146.5t-141.5 57.5t-141.5 -57.5t-45.5 -146.5t45.5 -146.5t141.5 -57.5z" />
    <glyph glyph-name="ordfeminine" unicode="&#xaa;" 
d="M266 235q-49 0 -79.5 22.5t-30.5 67.5q0 92 127 92q58 0 91 -13v29q0 22 -2 35.5t-9.5 27t-23.5 20t-42 6.5q-82 0 -82 -67h-52q0 43 22.5 69.5t51.5 35.5t64 9q127 0 127 -124v-145q0 -10 4.5 -14t17.5 -4q16 0 33 5v-42q-24 -10 -52 -10q-27 0 -38 14.5t-11 33.5v1
q-38 -49 -116 -49zM273 280q57 0 101 32v55q-34 8 -82 8q-42 0 -62.5 -11t-20.5 -38q0 -46 64 -46zM163 127v49h290v-49h-290z" />
    <glyph glyph-name="guillemotleft" unicode="&#xab;" 
d="M247 58l-151 174l151 174h63l-145 -174l145 -174h-63zM441 58l-151 174l151 174h63l-145 -174l145 -174h-63z" />
    <glyph glyph-name="logicalnot" unicode="&#xac;" 
d="M373 59v131h-207v54h268v-185h-61z" />
    <glyph glyph-name="uni00AD" unicode="&#xad;" 
d="M155 252v55h290v-55h-290z" />
    <glyph glyph-name="registered" unicode="&#xae;" 
d="M212 259v290h81q54 0 81.5 -23.5t27.5 -63.5q0 -59 -56 -82q27 -19 41.5 -52.5t14.5 -68.5h-50q0 68 -51 110h-42v-110h-47zM300 158q-116 0 -174 68.5t-58 173.5q0 104 58.5 173t173.5 69q116 0 174 -68.5t58 -173.5q0 -104 -58.5 -173t-173.5 -69zM300 196
q96 0 141.5 57.5t45.5 146.5t-45.5 146.5t-141.5 57.5t-141.5 -57.5t-45.5 -146.5t45.5 -146.5t141.5 -57.5zM259 507v-98h31q63 0 63 49t-63 49h-31z" />
    <glyph glyph-name="macron" unicode="&#xaf;" 
d="M168 550v54h265v-54h-265z" />
    <glyph glyph-name="degree" unicode="&#xb0;" 
d="M300 264q-63 0 -107.5 43t-44.5 109q0 67 44 110t108 43t108 -43t44 -110q0 -66 -44 -109t-108 -43zM300 310q43 0 70.5 29.5t27.5 76.5t-27.5 77t-70.5 30t-70.5 -30t-27.5 -77q0 -46 27.5 -76t70.5 -30z" />
    <glyph glyph-name="plusminus" unicode="&#xb1;" 
d="M272 126v190h-192v54h192v188h57v-188h192v-54h-192v-190h-57zM80 0v54h441v-54h-441z" />
    <glyph glyph-name="twosuperior" unicode="&#xb2;" 
d="M201 264v17q0 68 65 106l41 24q50 30 50 66q0 24 -16 37.5t-42 13.5q-61 0 -66 -61h-44q3 49 33.5 73t77.5 24q46 0 74 -23.5t28 -62.5q0 -52 -64 -94l-44 -28q-44 -27 -46 -54h161v-38h-208z" />
    <glyph glyph-name="threesuperior" unicode="&#xb3;" 
d="M302 259q-50 0 -81 24.5t-33 71.5h44q5 -59 69 -59q29 0 46.5 13t17.5 37q0 25 -19 39t-50 14h-10v35h10q63 0 63 45q0 22 -16 35t-42 13q-62 0 -66 -59h-44q3 47 33.5 71.5t77.5 24.5t74.5 -23.5t27.5 -60.5q0 -46 -45 -63q52 -19 52 -73q0 -38 -30 -61.5t-79 -23.5z
" />
    <glyph glyph-name="acute" unicode="&#xb4;" 
d="M221 490l77 191h80l-120 -191h-37z" />
    <glyph glyph-name="mu" unicode="&#xb5;" 
d="M134 -178v610h59v-378h84q77 0 115 46v332h59v-367q0 -13 5.5 -17.5t19.5 -4.5q23 0 54 7v-46q-35 -14 -70 -14q-60 0 -60 57v15q-13 -24 -47.5 -43t-87.5 -19h-72v-178h-59z" />
    <glyph glyph-name="paragraph" unicode="&#xb6;" 
d="M278 -178v396q-84 0 -145 42t-61 127q0 87 63 129t148 42h50v-736h-55zM278 268v240q-67 0 -108 -29.5t-41 -90.5t41 -90.5t108 -29.5zM424 -178v736h55v-736h-55z" />
    <glyph glyph-name="periodcentered" unicode="&#xb7;" 
d="M249 228v102h102v-102h-102z" />
    <glyph glyph-name="cedilla" unicode="&#xb8;" 
d="M287 -188q-49 0 -76 17l12 38q24 -12 51 -12q41 0 41 24q0 28 -78 47l16 74h39l-9 -44q91 -27 91 -80q0 -28 -22.5 -46t-64.5 -18z" />
    <glyph glyph-name="onesuperior" unicode="&#xb9;" 
d="M206 264v38h77v203q-23 -23 -66 -23h-11v40h20q47 0 65 36h35v-256h67v-38h-187z" />
    <glyph glyph-name="ordmasculine" unicode="&#xba;" 
d="M300 235q-64 0 -109 39.5t-45 127.5t45.5 127.5t108.5 39.5q64 0 109 -39.5t45 -127.5t-45.5 -127.5t-108.5 -39.5zM300 283q99 0 99 119t-99 119t-99 -119t99 -119zM162 127v49h278v-49h-278z" />
    <glyph glyph-name="guillemotright" unicode="&#xbb;" 
d="M290 58l145 174l-145 174h63l151 -174l-151 -174h-63zM96 58l145 174l-145 174h63l151 -174l-151 -174h-63z" />
    <glyph glyph-name="onequarter" unicode="&#xbc;" 
d="M466 0v72h-152v30l154 192h39v-185h48v-37h-48v-72h-41zM364 109h102v127zM104 0l143 232h30v-30l-124 -202h-49zM323 326v30l124 202h49l-143 -232h-30zM56 264v38h77v203q-23 -23 -66 -23h-11v40h20q47 0 65 36h35v-256h67v-38h-187z" />
    <glyph glyph-name="onehalf" unicode="&#xbd;" 
d="M104 0l143 232h30v-30l-124 -202h-49zM323 326v30l124 202h49l-143 -232h-30zM351 0v17q0 68 65 106l41 24q50 30 50 66q0 24 -16 37.5t-42 13.5q-61 0 -66 -61h-44q3 49 33.5 73t77.5 24q46 0 74 -23.5t28 -62.5q0 -52 -64 -94l-44 -28q-44 -27 -46 -54h161v-38h-208z
M56 264v38h77v203q-23 -23 -66 -23h-11v40h20q47 0 65 36h35v-256h67v-38h-187z" />
    <glyph glyph-name="threequarters" unicode="&#xbe;" 
d="M152 259q-50 0 -81 24.5t-33 71.5h44q5 -59 69 -59q29 0 46.5 13t17.5 37q0 25 -19 39t-50 14h-10v35h10q63 0 63 45q0 22 -16 35t-42 13q-62 0 -66 -59h-44q3 47 33.5 71.5t77.5 24.5t74.5 -23.5t27.5 -60.5q0 -46 -45 -63q52 -19 52 -73q0 -38 -30 -61.5t-79 -23.5z
M466 0v72h-152v30l154 192h39v-185h48v-37h-48v-72h-41zM364 109h102v127zM104 0l143 232h30v-30l-124 -202h-49zM323 326v30l124 202h49l-143 -232h-30z" />
    <glyph glyph-name="questiondown" unicode="&#xbf;" 
d="M306 -137q-95 0 -144 43t-49 108q0 60 45.5 110.5t150.5 121.5l29 -33q-96 -77 -129 -117.5t-33 -79.5q0 -43 31.5 -70.5t100.5 -27.5q131 0 131 98h60q0 -79 -54.5 -116t-138.5 -37zM259 330v102h102v-102h-102z" />
    <glyph glyph-name="Agrave" unicode="&#xc0;" 
d="M311 597l-120 191h80l77 -191h-37zM67 0l198 558h70l198 -558h-70l-47 139h-233l-48 -139h-68zM235 297l-35 -103h197l-34 101l-64 197z" />
    <glyph glyph-name="Aacute" unicode="&#xc1;" 
d="M253 597l77 191h80l-120 -191h-37zM67 0l198 558h70l198 -558h-70l-47 139h-233l-48 -139h-68zM235 297l-35 -103h197l-34 101l-64 197z" />
    <glyph glyph-name="Acircumflex" unicode="&#xc2;" 
d="M168 597l100 191h64l100 -191h-40l-92 123l-92 -123h-40zM67 0l198 558h70l198 -558h-70l-47 139h-233l-48 -139h-68zM235 297l-35 -103h197l-34 101l-64 197z" />
    <glyph glyph-name="Atilde" unicode="&#xc3;" 
d="M171 627l-30 14q15 46 43 80.5t63 34.5q30 0 67 -39q29 -29 46 -29q35 0 69 68l30 -14q-15 -46 -43 -80.5t-63 -34.5q-28 0 -66 38q-28 30 -47 30q-35 0 -69 -68zM67 0l198 558h70l198 -558h-70l-47 139h-233l-48 -139h-68zM235 297l-35 -103h197l-34 101l-64 197z" />
    <glyph glyph-name="Adieresis" unicode="&#xc4;" 
d="M159 658v81h81v-81h-81zM360 658v81h81v-81h-81zM67 0l198 558h70l198 -558h-70l-47 139h-233l-48 -139h-68zM235 297l-35 -103h197l-34 101l-64 197z" />
    <glyph glyph-name="Aring" unicode="&#xc5;" 
d="M300 586q-53 0 -89.5 36t-36.5 88t36.5 88t89.5 36t89.5 -36t36.5 -88t-36.5 -88t-89.5 -36zM300 628q34 0 58 24t24 58t-24 58t-58 24t-58 -24t-24 -58t24 -58t58 -24zM67 0l198 558h70l198 -558h-70l-47 139h-233l-48 -139h-68zM235 297l-35 -103h197l-34 101l-64 197z
" />
    <glyph glyph-name="AE" unicode="&#xc6;" 
d="M20 0l102 558h421v-55h-205v-190h165v-55h-165v-203h205v-55h-268v258h-145l-46 -258h-64zM173 503l-33 -190h135v190h-102z" />
    <glyph glyph-name="Ccedilla" unicode="&#xc7;" 
d="M307 -188q-49 0 -76 17l12 38q24 -12 51 -12q41 0 41 24q0 28 -78 47l14 67q-89 12 -135.5 84.5t-46.5 200.5q0 142 57.5 216.5t168.5 74.5q35 0 66 -8t60.5 -26.5t48 -55.5t20.5 -89h-63q-15 125 -133 125q-160 0 -160 -236q0 -235 160 -235q118 0 133 125h63
q-4 -94 -61.5 -136.5t-138.5 -42.5l-7 -34q91 -27 91 -80q0 -28 -22.5 -46t-64.5 -18z" />
    <glyph glyph-name="Egrave" unicode="&#xc8;" 
d="M320 597l-120 191h80l77 -191h-37zM134 0v558h344v-55h-281v-190h247v-55h-247v-203h281v-55h-344z" />
    <glyph glyph-name="Eacute" unicode="&#xc9;" 
d="M262 597l77 191h80l-120 -191h-37zM134 0v558h344v-55h-281v-190h247v-55h-247v-203h281v-55h-344z" />
    <glyph glyph-name="Ecircumflex" unicode="&#xca;" 
d="M177 597l100 191h64l100 -191h-40l-92 123l-92 -123h-40zM134 0v558h344v-55h-281v-190h247v-55h-247v-203h281v-55h-344z" />
    <glyph glyph-name="Edieresis" unicode="&#xcb;" 
d="M168 658v81h81v-81h-81zM369 658v81h81v-81h-81zM134 0v558h344v-55h-281v-190h247v-55h-247v-203h281v-55h-344z" />
    <glyph glyph-name="Igrave" unicode="&#xcc;" 
d="M311 597l-120 191h80l77 -191h-37zM133 0v55h136v448h-136v55h335v-55h-136v-448h136v-55h-335z" />
    <glyph glyph-name="Iacute" unicode="&#xcd;" 
d="M253 597l77 191h80l-120 -191h-37zM133 0v55h136v448h-136v55h335v-55h-136v-448h136v-55h-335z" />
    <glyph glyph-name="Icircumflex" unicode="&#xce;" 
d="M168 597l100 191h64l100 -191h-40l-92 123l-92 -123h-40zM133 0v55h136v448h-136v55h335v-55h-136v-448h136v-55h-335z" />
    <glyph glyph-name="Idieresis" unicode="&#xcf;" 
d="M159 658v81h81v-81h-81zM360 658v81h81v-81h-81zM133 0v55h136v448h-136v55h335v-55h-136v-448h136v-55h-335z" />
    <glyph glyph-name="Eth" unicode="&#xd0;" 
d="M134 0v262h-49v55h49v241h148q229 0 229 -278q0 -280 -229 -280h-148zM197 262v-207h85q43 0 74.5 14.5t48.5 35.5t26.5 53.5t12 59t2.5 61.5t-2.5 61.5t-12 59t-26.5 53.5t-48.5 35.5t-74.5 14.5h-85v-186h120v-55h-120z" />
    <glyph glyph-name="Ntilde" unicode="&#xd1;" 
d="M171 627l-30 14q15 46 43 80.5t63 34.5q30 0 67 -39q29 -29 46 -29q35 0 69 68l30 -14q-15 -46 -43 -80.5t-63 -34.5q-28 0 -66 38q-28 30 -47 30q-35 0 -69 -68zM134 0v558h91l187 -495l-6 150v345h60v-558h-91l-187 495l6 -150v-345h-60z" />
    <glyph glyph-name="Ograve" unicode="&#xd2;" 
d="M311 597l-120 191h80l77 -191h-37zM299 -10q-104 0 -157 77.5t-53 209.5q0 135 54 213.5t158 78.5t157 -78t53 -210q0 -135 -54 -213t-158 -78zM300 46q146 0 146 233q0 234 -146 234t-146 -234q0 -233 146 -233z" />
    <glyph glyph-name="Oacute" unicode="&#xd3;" 
d="M253 597l77 191h80l-120 -191h-37zM299 -10q-104 0 -157 77.5t-53 209.5q0 135 54 213.5t158 78.5t157 -78t53 -210q0 -135 -54 -213t-158 -78zM300 46q146 0 146 233q0 234 -146 234t-146 -234q0 -233 146 -233z" />
    <glyph glyph-name="Ocircumflex" unicode="&#xd4;" 
d="M168 597l100 191h64l100 -191h-40l-92 123l-92 -123h-40zM299 -10q-104 0 -157 77.5t-53 209.5q0 135 54 213.5t158 78.5t157 -78t53 -210q0 -135 -54 -213t-158 -78zM300 46q146 0 146 233q0 234 -146 234t-146 -234q0 -233 146 -233z" />
    <glyph glyph-name="Otilde" unicode="&#xd5;" 
d="M171 627l-30 14q15 46 43 80.5t63 34.5q30 0 67 -39q29 -29 46 -29q35 0 69 68l30 -14q-15 -46 -43 -80.5t-63 -34.5q-28 0 -66 38q-28 30 -47 30q-35 0 -69 -68zM299 -10q-104 0 -157 77.5t-53 209.5q0 135 54 213.5t158 78.5t157 -78t53 -210q0 -135 -54 -213t-158 -78
zM300 46q146 0 146 233q0 234 -146 234t-146 -234q0 -233 146 -233z" />
    <glyph glyph-name="Odieresis" unicode="&#xd6;" 
d="M159 658v81h81v-81h-81zM360 658v81h81v-81h-81zM299 -10q-104 0 -157 77.5t-53 209.5q0 135 54 213.5t158 78.5t157 -78t53 -210q0 -135 -54 -213t-158 -78zM300 46q146 0 146 233q0 234 -146 234t-146 -234q0 -233 146 -233z" />
    <glyph glyph-name="multiply" unicode="&#xd7;" 
d="M114 -10l-39 40l187 186l-187 186l39 40l186 -186l186 186l39 -40l-187 -186l187 -186l-39 -40l-186 186z" />
    <glyph glyph-name="Oslash" unicode="&#xd8;" 
d="M298 -10q-102 0 -155 75l-59 -65h-71l103 114q-27 69 -27 164q0 134 54 212.5t158 78.5q103 0 156 -77l59 66h71l-103 -115q27 -67 27 -163q0 -134 -54.5 -212t-158.5 -78zM300 46q146 0 146 233q0 63 -11 110l-249 -276q36 -67 114 -67zM165 168l249 277q-36 68 -114 68
q-146 0 -146 -234q0 -64 11 -111z" />
    <glyph glyph-name="Ugrave" unicode="&#xd9;" 
d="M311 597l-120 191h80l77 -191h-37zM300 -10q-94 0 -138 47.5t-44 155.5v365h63v-365q0 -80 27 -113.5t92 -33.5q66 0 93 33.5t27 113.5v365h63v-365q0 -108 -44.5 -155.5t-138.5 -47.5z" />
    <glyph glyph-name="Uacute" unicode="&#xda;" 
d="M253 597l77 191h80l-120 -191h-37zM300 -10q-94 0 -138 47.5t-44 155.5v365h63v-365q0 -80 27 -113.5t92 -33.5q66 0 93 33.5t27 113.5v365h63v-365q0 -108 -44.5 -155.5t-138.5 -47.5z" />
    <glyph glyph-name="Ucircumflex" unicode="&#xdb;" 
d="M168 597l100 191h64l100 -191h-40l-92 123l-92 -123h-40zM300 -10q-94 0 -138 47.5t-44 155.5v365h63v-365q0 -80 27 -113.5t92 -33.5q66 0 93 33.5t27 113.5v365h63v-365q0 -108 -44.5 -155.5t-138.5 -47.5z" />
    <glyph glyph-name="Udieresis" unicode="&#xdc;" 
d="M159 658v81h81v-81h-81zM360 658v81h81v-81h-81zM300 -10q-94 0 -138 47.5t-44 155.5v365h63v-365q0 -80 27 -113.5t92 -33.5q66 0 93 33.5t27 113.5v365h63v-365q0 -108 -44.5 -155.5t-138.5 -47.5z" />
    <glyph glyph-name="Yacute" unicode="&#xdd;" 
d="M254 597l77 191h80l-120 -191h-37zM269 0v226l-221 332h73l90 -136l91 -144l90 144l88 136h73l-221 -334v-224h-63z" />
    <glyph glyph-name="Thorn" unicode="&#xde;" 
d="M134 0v558h63v-111h85q109 0 168.5 -42.5t59.5 -127.5q0 -84 -59.5 -127t-168.5 -43h-85v-107h-63zM197 392v-230h86q162 0 162 115t-162 115h-86z" />
    <glyph glyph-name="germandbls" unicode="&#xdf;" 
d="M363 -10q-61 0 -100 23v56q50 -25 96 -25q83 0 83 62q0 47 -51 88.5t-128 71.5v46q158 46 158 169q0 52 -29 80.5t-86 28.5q-63 0 -92 -37t-29 -115v-438h-59v435q0 104 47.5 155.5t133.5 51.5q84 0 129 -44.5t45 -114.5q0 -40 -15 -75t-39 -58t-47 -38t-46 -24
q26 -11 52 -27t54 -39.5t45.5 -56t17.5 -67.5q0 -55 -40 -81.5t-100 -26.5z" />
    <glyph glyph-name="agrave" unicode="&#xe0;" 
d="M307 490l-120 191h80l77 -191h-37zM244 -10q-66 0 -106 30t-40 91q0 68 48 96t119 28t127 -18v40q0 32 -3 52t-13.5 40.5t-33.5 30t-60 9.5q-117 0 -117 -100h-59q0 45 17 77t46 47.5t57.5 22t60.5 6.5q164 0 164 -168v-209q0 -13 5.5 -17.5t19.5 -4.5q23 0 54 7v-46
q-35 -14 -70 -14q-60 0 -60 57v8q-50 -65 -156 -65zM248 44q82 0 144 46v82q-51 12 -119 12q-58 0 -87.5 -16.5t-29.5 -55.5q0 -68 92 -68z" />
    <glyph glyph-name="aacute" unicode="&#xe1;" 
d="M249 490l77 191h80l-120 -191h-37zM244 -10q-66 0 -106 30t-40 91q0 68 48 96t119 28t127 -18v40q0 32 -3 52t-13.5 40.5t-33.5 30t-60 9.5q-117 0 -117 -100h-59q0 45 17 77t46 47.5t57.5 22t60.5 6.5q164 0 164 -168v-209q0 -13 5.5 -17.5t19.5 -4.5q23 0 54 7v-46
q-35 -14 -70 -14q-60 0 -60 57v8q-50 -65 -156 -65zM248 44q82 0 144 46v82q-51 12 -119 12q-58 0 -87.5 -16.5t-29.5 -55.5q0 -68 92 -68z" />
    <glyph glyph-name="acircumflex" unicode="&#xe2;" 
d="M164 490l100 191h64l100 -191h-40l-92 123l-92 -123h-40zM244 -10q-66 0 -106 30t-40 91q0 68 48 96t119 28t127 -18v40q0 32 -3 52t-13.5 40.5t-33.5 30t-60 9.5q-117 0 -117 -100h-59q0 45 17 77t46 47.5t57.5 22t60.5 6.5q164 0 164 -168v-209q0 -13 5.5 -17.5
t19.5 -4.5q23 0 54 7v-46q-35 -14 -70 -14q-60 0 -60 57v8q-50 -65 -156 -65zM248 44q82 0 144 46v82q-51 12 -119 12q-58 0 -87.5 -16.5t-29.5 -55.5q0 -68 92 -68z" />
    <glyph glyph-name="atilde" unicode="&#xe3;" 
d="M167 520l-30 14q15 46 43 80.5t63 34.5q30 0 67 -39q29 -29 46 -29q35 0 69 68l30 -14q-15 -46 -43 -80.5t-63 -34.5q-28 0 -66 38q-28 30 -47 30q-35 0 -69 -68zM244 -10q-66 0 -106 30t-40 91q0 68 48 96t119 28t127 -18v40q0 32 -3 52t-13.5 40.5t-33.5 30t-60 9.5
q-117 0 -117 -100h-59q0 45 17 77t46 47.5t57.5 22t60.5 6.5q164 0 164 -168v-209q0 -13 5.5 -17.5t19.5 -4.5q23 0 54 7v-46q-35 -14 -70 -14q-60 0 -60 57v8q-50 -65 -156 -65zM248 44q82 0 144 46v82q-51 12 -119 12q-58 0 -87.5 -16.5t-29.5 -55.5q0 -68 92 -68z" />
    <glyph glyph-name="adieresis" unicode="&#xe4;" 
d="M155 551v81h81v-81h-81zM356 551v81h81v-81h-81zM244 -10q-66 0 -106 30t-40 91q0 68 48 96t119 28t127 -18v40q0 32 -3 52t-13.5 40.5t-33.5 30t-60 9.5q-117 0 -117 -100h-59q0 45 17 77t46 47.5t57.5 22t60.5 6.5q164 0 164 -168v-209q0 -13 5.5 -17.5t19.5 -4.5
q23 0 54 7v-46q-35 -14 -70 -14q-60 0 -60 57v8q-50 -65 -156 -65zM248 44q82 0 144 46v82q-51 12 -119 12q-58 0 -87.5 -16.5t-29.5 -55.5q0 -68 92 -68z" />
    <glyph glyph-name="aring" unicode="&#xe5;" 
d="M296 479q-53 0 -89.5 36t-36.5 88t36.5 88t89.5 36t89.5 -36t36.5 -88t-36.5 -88t-89.5 -36zM296 521q34 0 58 23.5t24 58.5t-24 58.5t-58 23.5t-58 -23.5t-24 -58.5t24 -58.5t58 -23.5zM244 -10q-66 0 -106 30t-40 91q0 68 48 96t119 28t127 -18v40q0 32 -3 52
t-13.5 40.5t-33.5 30t-60 9.5q-117 0 -117 -100h-59q0 45 17 77t46 47.5t57.5 22t60.5 6.5q164 0 164 -168v-209q0 -13 5.5 -17.5t19.5 -4.5q23 0 54 7v-46q-35 -14 -70 -14q-60 0 -60 57v8q-50 -65 -156 -65zM248 44q82 0 144 46v82q-51 12 -119 12q-58 0 -87.5 -16.5
t-29.5 -55.5q0 -68 92 -68z" />
    <glyph glyph-name="ae" unicode="&#xe6;" 
d="M170 -10q-64 0 -100.5 34t-36.5 92q0 63 41 90.5t99 27.5q59 0 98 -15v55q0 52 -23 84t-68 32q-40 0 -59.5 -26.5t-19.5 -69.5h-53q0 66 36 107t101 41q89 0 119 -76q38 76 120 76q67 0 105 -57.5t38 -169.5v-3h-241q1 -83 27 -127t74 -44q40 0 61.5 29t21.5 70h56
q-2 -64 -39 -107t-100 -43q-78 0 -121 67q-47 -67 -136 -67zM174 42q65 0 116 47q-16 39 -20 87q-28 10 -86 10q-93 0 -93 -70q0 -36 22.5 -55t60.5 -19zM328 261h182q-12 130 -90 130q-80 0 -92 -130z" />
    <glyph glyph-name="ccedilla" unicode="&#xe7;" 
d="M311 -188q-49 0 -76 17l12 38q24 -12 51 -12q41 0 41 24q0 28 -78 47l14 66q-75 8 -125 60.5t-50 162.5q0 52 13 93t33.5 65.5t49 40.5t55.5 22t56 6q31 0 59 -7t55.5 -23t45.5 -47.5t21 -75.5h-60q-10 99 -119 99q-149 0 -149 -171q0 -173 149 -173q108 0 119 100h60
q-3 -42 -20 -73t-43 -47.5t-53.5 -24.5t-57.5 -9l-7 -34q91 -27 91 -80q0 -28 -22.5 -46t-64.5 -18z" />
    <glyph glyph-name="egrave" unicode="&#xe8;" 
d="M310 490l-120 191h80l77 -191h-37zM304 -10q-88 0 -146 55.5t-58 169.5q0 62 18 108t49 71t65 36.5t72 11.5q36 0 69 -11t63.5 -35t48.5 -70t18 -109v-14h-344q8 -161 148 -161q56 0 91.5 25.5t44.5 72.5h59q-7 -55 -42 -90.5t-74 -47.5t-82 -12zM160 252h282
q-16 138 -142 138q-127 0 -140 -138z" />
    <glyph glyph-name="eacute" unicode="&#xe9;" 
d="M252 490l77 191h80l-120 -191h-37zM304 -10q-88 0 -146 55.5t-58 169.5q0 62 18 108t49 71t65 36.5t72 11.5q36 0 69 -11t63.5 -35t48.5 -70t18 -109v-14h-344q8 -161 148 -161q56 0 91.5 25.5t44.5 72.5h59q-7 -55 -42 -90.5t-74 -47.5t-82 -12zM160 252h282
q-16 138 -142 138q-127 0 -140 -138z" />
    <glyph glyph-name="ecircumflex" unicode="&#xea;" 
d="M167 490l100 191h64l100 -191h-40l-92 123l-92 -123h-40zM304 -10q-88 0 -146 55.5t-58 169.5q0 62 18 108t49 71t65 36.5t72 11.5q36 0 69 -11t63.5 -35t48.5 -70t18 -109v-14h-344q8 -161 148 -161q56 0 91.5 25.5t44.5 72.5h59q-7 -55 -42 -90.5t-74 -47.5t-82 -12z
M160 252h282q-16 138 -142 138q-127 0 -140 -138z" />
    <glyph glyph-name="edieresis" unicode="&#xeb;" 
d="M158 551v81h81v-81h-81zM359 551v81h81v-81h-81zM304 -10q-88 0 -146 55.5t-58 169.5q0 62 18 108t49 71t65 36.5t72 11.5q36 0 69 -11t63.5 -35t48.5 -70t18 -109v-14h-344q8 -161 148 -161q56 0 91.5 25.5t44.5 72.5h59q-7 -55 -42 -90.5t-74 -47.5t-82 -12zM160 252
h282q-16 138 -142 138q-127 0 -140 -138z" />
    <glyph glyph-name="igrave" unicode="&#xec;" 
d="M318 490l-120 191h80l77 -191h-37zM118 0v54h160v324h-160v54h219v-378h147v-54h-366z" />
    <glyph glyph-name="iacute" unicode="&#xed;" 
d="M260 490l77 191h80l-120 -191h-37zM118 0v54h160v324h-160v54h219v-378h147v-54h-366z" />
    <glyph glyph-name="icircumflex" unicode="&#xee;" 
d="M175 490l100 191h64l100 -191h-40l-92 123l-92 -123h-40zM118 0v54h160v324h-160v54h219v-378h147v-54h-366z" />
    <glyph glyph-name="idieresis" unicode="&#xef;" 
d="M166 551v81h81v-81h-81zM367 551v81h81v-81h-81zM118 0v54h160v324h-160v54h219v-378h147v-54h-366z" />
    <glyph glyph-name="eth" unicode="&#xf0;" 
d="M299 -10q-83 0 -141 51.5t-58 154.5t57.5 154.5t139.5 51.5q63 0 96 -26l-56 118l-104 -25v55l81 19l-42 89h62l34 -76l101 25v-55l-78 -19l63 -138q46 -100 46 -181q0 -96 -58.5 -147t-142.5 -51zM300 43q75 0 107.5 43t32.5 110t-32.5 110t-107.5 43t-107.5 -43
t-32.5 -110t32.5 -110t107.5 -43z" />
    <glyph glyph-name="ntilde" unicode="&#xf1;" 
d="M171 520l-30 14q15 46 43 80.5t63 34.5q30 0 67 -39q29 -29 46 -29q35 0 69 68l30 -14q-15 -46 -43 -80.5t-63 -34.5q-28 0 -66 38q-28 30 -47 30q-35 0 -69 -68zM134 0v432h47v-55q45 65 141 65q145 0 145 -177v-265h-59v250q0 72 -21 105.5t-79 33.5q-74 0 -115 -47
v-342h-59z" />
    <glyph glyph-name="ograve" unicode="&#xf2;" 
d="M311 490l-120 191h80l77 -191h-37zM299 -10q-38 0 -71.5 11t-63 35.5t-47 70.5t-17.5 108q0 121 59 174t142 53q38 0 71.5 -11t63 -35.5t47 -70.5t17.5 -108q0 -121 -59 -174t-142 -53zM300 45q139 0 139 171t-139 171t-139 -171t139 -171z" />
    <glyph glyph-name="oacute" unicode="&#xf3;" 
d="M253 490l77 191h80l-120 -191h-37zM299 -10q-38 0 -71.5 11t-63 35.5t-47 70.5t-17.5 108q0 121 59 174t142 53q38 0 71.5 -11t63 -35.5t47 -70.5t17.5 -108q0 -121 -59 -174t-142 -53zM300 45q139 0 139 171t-139 171t-139 -171t139 -171z" />
    <glyph glyph-name="ocircumflex" unicode="&#xf4;" 
d="M168 490l100 191h64l100 -191h-40l-92 123l-92 -123h-40zM299 -10q-38 0 -71.5 11t-63 35.5t-47 70.5t-17.5 108q0 121 59 174t142 53q38 0 71.5 -11t63 -35.5t47 -70.5t17.5 -108q0 -121 -59 -174t-142 -53zM300 45q139 0 139 171t-139 171t-139 -171t139 -171z" />
    <glyph glyph-name="otilde" unicode="&#xf5;" 
d="M171 520l-30 14q15 46 43 80.5t63 34.5q30 0 67 -39q29 -29 46 -29q35 0 69 68l30 -14q-15 -46 -43 -80.5t-63 -34.5q-28 0 -66 38q-28 30 -47 30q-35 0 -69 -68zM299 -10q-38 0 -71.5 11t-63 35.5t-47 70.5t-17.5 108q0 121 59 174t142 53q38 0 71.5 -11t63 -35.5
t47 -70.5t17.5 -108q0 -121 -59 -174t-142 -53zM300 45q139 0 139 171t-139 171t-139 -171t139 -171z" />
    <glyph glyph-name="odieresis" unicode="&#xf6;" 
d="M159 551v81h81v-81h-81zM360 551v81h81v-81h-81zM299 -10q-38 0 -71.5 11t-63 35.5t-47 70.5t-17.5 108q0 121 59 174t142 53q38 0 71.5 -11t63 -35.5t47 -70.5t17.5 -108q0 -121 -59 -174t-142 -53zM300 45q139 0 139 171t-139 171t-139 -171t139 -171z" />
    <glyph glyph-name="divide" unicode="&#xf7;" 
d="M259 0v82h82v-82h-82zM115 190v54h370v-54h-370zM259 350v82h82v-82h-82z" />
    <glyph glyph-name="oslash" unicode="&#xf8;" 
d="M299 -10q-92 0 -144 56l-49 -46h-74l94 88q-26 52 -26 128q0 63 18 109t48 70.5t63.5 35.5t71.5 11q91 0 144 -56l49 46h74l-94 -88q26 -54 26 -128q0 -63 -18 -109t-48 -70.5t-63.5 -35.5t-71.5 -11zM299 45q140 0 140 171q0 48 -12 84l-229 -214q34 -41 101 -41z
M173 132l229 214q-36 41 -102 41q-139 0 -139 -171q0 -50 12 -84z" />
    <glyph glyph-name="ugrave" unicode="&#xf9;" 
d="M312 490l-120 191h80l77 -191h-37zM279 -10q-145 0 -145 177v265h59v-250q0 -72 21 -105.5t79 -33.5q74 0 115 47v342h59v-432h-47v55q-45 -65 -141 -65z" />
    <glyph glyph-name="uacute" unicode="&#xfa;" 
d="M254 490l77 191h80l-120 -191h-37zM279 -10q-145 0 -145 177v265h59v-250q0 -72 21 -105.5t79 -33.5q74 0 115 47v342h59v-432h-47v55q-45 -65 -141 -65z" />
    <glyph glyph-name="ucircumflex" unicode="&#xfb;" 
d="M169 490l100 191h64l100 -191h-40l-92 123l-92 -123h-40zM279 -10q-145 0 -145 177v265h59v-250q0 -72 21 -105.5t79 -33.5q74 0 115 47v342h59v-432h-47v55q-45 -65 -141 -65z" />
    <glyph glyph-name="udieresis" unicode="&#xfc;" 
d="M160 551v81h81v-81h-81zM361 551v81h81v-81h-81zM279 -10q-145 0 -145 177v265h59v-250q0 -72 21 -105.5t79 -33.5q74 0 115 47v342h59v-432h-47v55q-45 -65 -141 -65z" />
    <glyph glyph-name="yacute" unicode="&#xfd;" 
d="M253 490l77 191h80l-120 -191h-37zM88 -183v54q68 0 108.5 29t69.5 98l-185 434h65l87 -214l66 -161l61 151l91 224h64l-186 -437q-42 -98 -96.5 -138t-144.5 -40z" />
    <glyph glyph-name="thorn" unicode="&#xfe;" 
d="M134 -178v810h59v-246q47 56 127 56q77 0 128.5 -56t51.5 -169q0 -112 -51 -169.5t-128 -57.5t-128 56v-224h-59zM308 45q66 0 98.5 46t32.5 125t-32.5 125t-98.5 46q-69 0 -115 -46v-250q46 -46 115 -46z" />
    <glyph glyph-name="ydieresis" unicode="&#xff;" 
d="M159 551v81h81v-81h-81zM360 551v81h81v-81h-81zM88 -183v54q68 0 108.5 29t69.5 98l-185 434h65l87 -214l66 -161l61 151l91 224h64l-186 -437q-42 -98 -96.5 -138t-144.5 -40z" />
    <glyph glyph-name="Amacron" unicode="&#x100;" 
d="M168 657v54h265v-54h-265zM67 0l198 558h70l198 -558h-70l-47 139h-233l-48 -139h-68zM235 297l-35 -103h197l-34 101l-64 197z" />
    <glyph glyph-name="amacron" unicode="&#x101;" 
d="M164 550v54h265v-54h-265zM244 -10q-66 0 -106 30t-40 91q0 68 48 96t119 28t127 -18v40q0 32 -3 52t-13.5 40.5t-33.5 30t-60 9.5q-117 0 -117 -100h-59q0 45 17 77t46 47.5t57.5 22t60.5 6.5q164 0 164 -168v-209q0 -13 5.5 -17.5t19.5 -4.5q23 0 54 7v-46
q-35 -14 -70 -14q-60 0 -60 57v8q-50 -65 -156 -65zM248 44q82 0 144 46v82q-51 12 -119 12q-58 0 -87.5 -16.5t-29.5 -55.5q0 -68 92 -68z" />
    <glyph glyph-name="Abreve" unicode="&#x102;" 
d="M300 635q-59 0 -96.5 37t-52.5 79l28 17q48 -74 121 -74t121 74l28 -17q-15 -42 -52.5 -79t-96.5 -37zM67 0l198 558h70l198 -558h-70l-47 139h-233l-48 -139h-68zM235 297l-35 -103h197l-34 101l-64 197z" />
    <glyph glyph-name="abreve" unicode="&#x103;" 
d="M296 528q-59 0 -96.5 37t-52.5 79l28 17q48 -74 121 -74t121 74l28 -17q-15 -42 -52.5 -79t-96.5 -37zM244 -10q-66 0 -106 30t-40 91q0 68 48 96t119 28t127 -18v40q0 32 -3 52t-13.5 40.5t-33.5 30t-60 9.5q-117 0 -117 -100h-59q0 45 17 77t46 47.5t57.5 22t60.5 6.5
q164 0 164 -168v-209q0 -13 5.5 -17.5t19.5 -4.5q23 0 54 7v-46q-35 -14 -70 -14q-60 0 -60 57v8q-50 -65 -156 -65zM248 44q82 0 144 46v82q-51 12 -119 12q-58 0 -87.5 -16.5t-29.5 -55.5q0 -68 92 -68z" />
    <glyph glyph-name="Aogonek" unicode="&#x104;" 
d="M454 -188q-40 0 -64.5 17.5t-24.5 47.5q0 31 28 57t94 66h-24l-47 139h-233l-48 -139h-68l198 558h70l198 -558q-59 -46 -82 -69.5t-23 -44.5q0 -29 39 -29q34 0 58 12l9 -38q-33 -19 -80 -19zM235 297l-35 -103h197l-34 101l-64 197z" />
    <glyph glyph-name="aogonek" unicode="&#x105;" 
d="M451 -188q-40 0 -64.5 17.5t-24.5 47.5q0 29 24 55t76 58q-62 0 -62 57v8q-50 -65 -156 -65q-66 0 -106 30t-40 91q0 68 48 96t119 28t127 -18v40q0 32 -3 52t-13.5 40.5t-33.5 30t-60 9.5q-117 0 -117 -100h-59q0 45 17 77t46 47.5t57.5 22t60.5 6.5q164 0 164 -168
v-209q0 -13 5.5 -17.5t19.5 -4.5q23 0 54 7v-46q-57 -44 -81 -70.5t-24 -47.5q0 -29 39 -29q34 0 58 12l9 -38q-33 -19 -80 -19zM248 44q82 0 144 46v82q-51 12 -119 12q-58 0 -87.5 -16.5t-29.5 -55.5q0 -68 92 -68z" />
    <glyph glyph-name="Cacute" unicode="&#x106;" 
d="M252 597l77 191h80l-120 -191h-37zM310 -10q-108 0 -164.5 73.5t-56.5 214.5q0 142 57.5 216.5t168.5 74.5q35 0 66 -8t60.5 -26.5t48 -55.5t20.5 -89h-63q-15 125 -133 125q-160 0 -160 -236q0 -235 160 -235q118 0 133 125h63q-4 -94 -61.5 -136.5t-138.5 -42.5z" />
    <glyph glyph-name="cacute" unicode="&#x107;" 
d="M256 490l77 191h80l-120 -191h-37zM304 -10q-38 0 -71.5 11t-64.5 35t-49.5 70t-18.5 109q0 52 13 93t33.5 65.5t49 40.5t55.5 22t56 6q31 0 59 -7t55.5 -23t45.5 -47.5t21 -75.5h-60q-10 99 -119 99q-149 0 -149 -171q0 -173 149 -173q108 0 119 100h60
q-3 -44 -21.5 -75.5t-46.5 -48t-56.5 -23.5t-59.5 -7z" />
    <glyph glyph-name="Ccircumflex" unicode="&#x108;" 
d="M167 597l100 191h64l100 -191h-40l-92 123l-92 -123h-40zM310 -10q-108 0 -164.5 73.5t-56.5 214.5q0 142 57.5 216.5t168.5 74.5q35 0 66 -8t60.5 -26.5t48 -55.5t20.5 -89h-63q-15 125 -133 125q-160 0 -160 -236q0 -235 160 -235q118 0 133 125h63
q-4 -94 -61.5 -136.5t-138.5 -42.5z" />
    <glyph glyph-name="ccircumflex" unicode="&#x109;" 
d="M171 490l100 191h64l100 -191h-40l-92 123l-92 -123h-40zM304 -10q-38 0 -71.5 11t-64.5 35t-49.5 70t-18.5 109q0 52 13 93t33.5 65.5t49 40.5t55.5 22t56 6q31 0 59 -7t55.5 -23t45.5 -47.5t21 -75.5h-60q-10 99 -119 99q-149 0 -149 -171q0 -173 149 -173
q108 0 119 100h60q-3 -44 -21.5 -75.5t-46.5 -48t-56.5 -23.5t-59.5 -7z" />
    <glyph glyph-name="Cdotaccent" unicode="&#x10a;" 
d="M258 658v81h81v-81h-81zM310 -10q-108 0 -164.5 73.5t-56.5 214.5q0 142 57.5 216.5t168.5 74.5q35 0 66 -8t60.5 -26.5t48 -55.5t20.5 -89h-63q-15 125 -133 125q-160 0 -160 -236q0 -235 160 -235q118 0 133 125h63q-4 -94 -61.5 -136.5t-138.5 -42.5z" />
    <glyph glyph-name="cdotaccent" unicode="&#x10b;" 
d="M262 551v81h81v-81h-81zM304 -10q-38 0 -71.5 11t-64.5 35t-49.5 70t-18.5 109q0 52 13 93t33.5 65.5t49 40.5t55.5 22t56 6q31 0 59 -7t55.5 -23t45.5 -47.5t21 -75.5h-60q-10 99 -119 99q-149 0 -149 -171q0 -173 149 -173q108 0 119 100h60q-3 -44 -21.5 -75.5
t-46.5 -48t-56.5 -23.5t-59.5 -7z" />
    <glyph glyph-name="Ccaron" unicode="&#x10c;" 
d="M267 597l-100 191h40l92 -123l92 123h40l-100 -191h-64zM310 -10q-108 0 -164.5 73.5t-56.5 214.5q0 142 57.5 216.5t168.5 74.5q35 0 66 -8t60.5 -26.5t48 -55.5t20.5 -89h-63q-15 125 -133 125q-160 0 -160 -236q0 -235 160 -235q118 0 133 125h63q-4 -94 -61.5 -136.5
t-138.5 -42.5z" />
    <glyph glyph-name="ccaron" unicode="&#x10d;" 
d="M271 490l-100 191h40l92 -123l92 123h40l-100 -191h-64zM304 -10q-38 0 -71.5 11t-64.5 35t-49.5 70t-18.5 109q0 52 13 93t33.5 65.5t49 40.5t55.5 22t56 6q31 0 59 -7t55.5 -23t45.5 -47.5t21 -75.5h-60q-10 99 -119 99q-149 0 -149 -171q0 -173 149 -173
q108 0 119 100h60q-3 -44 -21.5 -75.5t-46.5 -48t-56.5 -23.5t-59.5 -7z" />
    <glyph glyph-name="Dcaron" unicode="&#x10e;" 
d="M268 597l-100 191h40l92 -123l92 123h40l-100 -191h-64zM134 0v558h148q229 0 229 -278q0 -280 -229 -280h-148zM197 503v-448h85q43 0 74.5 14.5t48.5 35.5t26.5 53.5t12 59t2.5 61.5t-2.5 61.5t-12 59t-26.5 53.5t-48.5 35.5t-74.5 14.5h-85z" />
    <glyph glyph-name="dcaron" unicode="&#x10f;" 
d="M271 -10q-76 0 -128 55t-52 169q0 112 51 170t128 58t128 -56v246h59v-632h-47v55q-52 -65 -139 -65zM283 45q69 0 115 46v250q-46 46 -115 46q-66 0 -98.5 -46t-32.5 -125t32.5 -125t98.5 -46zM554 457q-19 0 -19 15q0 6 3 21l24 139h76l-66 -161q-6 -14 -18 -14z" />
    <glyph glyph-name="Dcroat" unicode="&#x110;" 
d="M134 0v262h-49v55h49v241h148q229 0 229 -278q0 -280 -229 -280h-148zM197 262v-207h85q43 0 74.5 14.5t48.5 35.5t26.5 53.5t12 59t2.5 61.5t-2.5 61.5t-12 59t-26.5 53.5t-48.5 35.5t-74.5 14.5h-85v-186h120v-55h-120z" />
    <glyph glyph-name="dcroat" unicode="&#x111;" 
d="M280 -10q-76 0 -128 55t-52 169q0 112 51 170t128 58t128 -56v115h-138v54h138v77h59v-77h37v-54h-37v-501h-47v55q-52 -65 -139 -65zM292 45q69 0 115 46v250q-46 46 -115 46q-66 0 -98.5 -46t-32.5 -125t32.5 -125t98.5 -46z" />
    <glyph glyph-name="Emacron" unicode="&#x112;" 
d="M177 657v54h265v-54h-265zM134 0v558h344v-55h-281v-190h247v-55h-247v-203h281v-55h-344z" />
    <glyph glyph-name="emacron" unicode="&#x113;" 
d="M167 550v54h265v-54h-265zM304 -10q-88 0 -146 55.5t-58 169.5q0 62 18 108t49 71t65 36.5t72 11.5q36 0 69 -11t63.5 -35t48.5 -70t18 -109v-14h-344q8 -161 148 -161q56 0 91.5 25.5t44.5 72.5h59q-7 -55 -42 -90.5t-74 -47.5t-82 -12zM160 252h282q-16 138 -142 138
q-127 0 -140 -138z" />
    <glyph glyph-name="Ebreve" unicode="&#x114;" 
d="M309 635q-59 0 -96.5 37t-52.5 79l28 17q48 -74 121 -74t121 74l28 -17q-15 -42 -52.5 -79t-96.5 -37zM134 0v558h344v-55h-281v-190h247v-55h-247v-203h281v-55h-344z" />
    <glyph glyph-name="ebreve" unicode="&#x115;" 
d="M299 528q-59 0 -96.5 37t-52.5 79l28 17q48 -74 121 -74t121 74l28 -17q-15 -42 -52.5 -79t-96.5 -37zM304 -10q-88 0 -146 55.5t-58 169.5q0 62 18 108t49 71t65 36.5t72 11.5q36 0 69 -11t63.5 -35t48.5 -70t18 -109v-14h-344q8 -161 148 -161q56 0 91.5 25.5
t44.5 72.5h59q-7 -55 -42 -90.5t-74 -47.5t-82 -12zM160 252h282q-16 138 -142 138q-127 0 -140 -138z" />
    <glyph glyph-name="Edotaccent" unicode="&#x116;" 
d="M268 658v81h81v-81h-81zM134 0v558h344v-55h-281v-190h247v-55h-247v-203h281v-55h-344z" />
    <glyph glyph-name="edotaccent" unicode="&#x117;" 
d="M258 551v81h81v-81h-81zM304 -10q-88 0 -146 55.5t-58 169.5q0 62 18 108t49 71t65 36.5t72 11.5q36 0 69 -11t63.5 -35t48.5 -70t18 -109v-14h-344q8 -161 148 -161q56 0 91.5 25.5t44.5 72.5h59q-7 -55 -42 -90.5t-74 -47.5t-82 -12zM160 252h282q-16 138 -142 138
q-127 0 -140 -138z" />
    <glyph glyph-name="Eogonek" unicode="&#x118;" 
d="M399 -188q-40 0 -64.5 17.5t-24.5 47.5q0 31 28 57t94 66h-298v558h344v-55h-281v-190h247v-55h-247v-203h281v-55q-59 -46 -82 -69.5t-23 -44.5q0 -29 39 -29q34 0 58 12l9 -38q-33 -19 -80 -19z" />
    <glyph glyph-name="eogonek" unicode="&#x119;" 
d="M325 -188q-40 0 -64.5 17.5t-24.5 47.5q0 29 25 53t87 64q-20 -4 -44 -4q-88 0 -146 55.5t-58 169.5q0 62 18 108t49 71t65 36.5t72 11.5q36 0 69 -11t63.5 -35t48.5 -70t18 -109v-14h-344q8 -161 148 -161q56 0 91.5 25.5t44.5 72.5h59q-8 -66 -56 -105
q-93 -77 -120 -104t-27 -46q0 -28 39 -28q34 0 58 12l9 -38q-33 -19 -80 -19zM160 252h282q-16 138 -142 138q-127 0 -140 -138z" />
    <glyph glyph-name="Ecaron" unicode="&#x11a;" 
d="M277 597l-100 191h40l92 -123l92 123h40l-100 -191h-64zM134 0v558h344v-55h-281v-190h247v-55h-247v-203h281v-55h-344z" />
    <glyph glyph-name="ecaron" unicode="&#x11b;" 
d="M267 490l-100 191h40l92 -123l92 123h40l-100 -191h-64zM304 -10q-88 0 -146 55.5t-58 169.5q0 62 18 108t49 71t65 36.5t72 11.5q36 0 69 -11t63.5 -35t48.5 -70t18 -109v-14h-344q8 -161 148 -161q56 0 91.5 25.5t44.5 72.5h59q-7 -55 -42 -90.5t-74 -47.5t-82 -12z
M160 252h282q-16 138 -142 138q-127 0 -140 -138z" />
    <glyph glyph-name="Gcircumflex" unicode="&#x11c;" 
d="M168 597l100 191h64l100 -191h-40l-92 123l-92 -123h-40zM291 -10q-56 0 -96.5 24.5t-62.5 67t-32 91.5t-10 107q0 139 55 214t156 75q34 0 64 -9t58.5 -29.5t46 -60.5t19.5 -95h-63q-14 140 -126 140q-77 0 -111 -65t-34 -168q0 -65 12 -115.5t46.5 -86.5t89.5 -36
q71 0 122 53v145h-138v55h201v-297h-48v56q-15 -22 -53 -44t-96 -22z" />
    <glyph glyph-name="gcircumflex" unicode="&#x11d;" 
d="M150 490l100 191h64l100 -191h-40l-92 123l-92 -123h-40zM284 -188q-180 0 -180 149h59q0 -51 29 -74.5t90 -23.5q77 0 101 30.5t24 90.5v62q-48 -56 -129 -56q-77 0 -127.5 56t-50.5 169q0 114 52 170.5t129 56.5q47 0 83 -19.5t55 -45.5v55h47v-453q0 -84 -41 -125.5
t-141 -41.5zM292 45q69 0 115 46v250q-46 46 -115 46q-66 0 -98.5 -46t-32.5 -125t32.5 -125t98.5 -46z" />
    <glyph glyph-name="Gbreve" unicode="&#x11e;" 
d="M300 635q-59 0 -96.5 37t-52.5 79l28 17q48 -74 121 -74t121 74l28 -17q-15 -42 -52.5 -79t-96.5 -37zM291 -10q-56 0 -96.5 24.5t-62.5 67t-32 91.5t-10 107q0 139 55 214t156 75q34 0 64 -9t58.5 -29.5t46 -60.5t19.5 -95h-63q-14 140 -126 140q-77 0 -111 -65
t-34 -168q0 -65 12 -115.5t46.5 -86.5t89.5 -36q71 0 122 53v145h-138v55h201v-297h-48v56q-15 -22 -53 -44t-96 -22z" />
    <glyph glyph-name="gbreve" unicode="&#x11f;" 
d="M282 528q-59 0 -96.5 37t-52.5 79l28 17q48 -74 121 -74t121 74l28 -17q-15 -42 -52.5 -79t-96.5 -37zM284 -188q-180 0 -180 149h59q0 -51 29 -74.5t90 -23.5q77 0 101 30.5t24 90.5v62q-48 -56 -129 -56q-77 0 -127.5 56t-50.5 169q0 114 52 170.5t129 56.5
q47 0 83 -19.5t55 -45.5v55h47v-453q0 -84 -41 -125.5t-141 -41.5zM292 45q69 0 115 46v250q-46 46 -115 46q-66 0 -98.5 -46t-32.5 -125t32.5 -125t98.5 -46z" />
    <glyph glyph-name="Gdotaccent" unicode="&#x120;" 
d="M259 658v81h81v-81h-81zM291 -10q-56 0 -96.5 24.5t-62.5 67t-32 91.5t-10 107q0 139 55 214t156 75q34 0 64 -9t58.5 -29.5t46 -60.5t19.5 -95h-63q-14 140 -126 140q-77 0 -111 -65t-34 -168q0 -65 12 -115.5t46.5 -86.5t89.5 -36q71 0 122 53v145h-138v55h201v-297
h-48v56q-15 -22 -53 -44t-96 -22z" />
    <glyph glyph-name="gdotaccent" unicode="&#x121;" 
d="M241 551v81h81v-81h-81zM284 -188q-180 0 -180 149h59q0 -51 29 -74.5t90 -23.5q77 0 101 30.5t24 90.5v62q-48 -56 -129 -56q-77 0 -127.5 56t-50.5 169q0 114 52 170.5t129 56.5q47 0 83 -19.5t55 -45.5v55h47v-453q0 -84 -41 -125.5t-141 -41.5zM292 45q69 0 115 46
v250q-46 46 -115 46q-66 0 -98.5 -46t-32.5 -125t32.5 -125t98.5 -46z" />
    <glyph glyph-name="Gcommaaccent" unicode="&#x122;" 
d="M269 -214q-19 0 -19 15q0 6 3 21l24 139h76l-66 -161q-6 -14 -18 -14zM291 -10q-56 0 -96.5 24.5t-62.5 67t-32 91.5t-10 107q0 139 55 214t156 75q34 0 64 -9t58.5 -29.5t46 -60.5t19.5 -95h-63q-14 140 -126 140q-77 0 -111 -65t-34 -168q0 -65 12 -115.5t46.5 -86.5
t89.5 -36q71 0 122 53v145h-138v55h201v-297h-48v56q-15 -22 -53 -44t-96 -22z" />
    <glyph glyph-name="gcommaaccent" unicode="&#x123;" 
d="M249 496l66 161q6 14 18 14q19 0 19 -15q0 -6 -3 -21l-24 -139h-76zM284 -188q-180 0 -180 149h59q0 -51 29 -74.5t90 -23.5q77 0 101 30.5t24 90.5v62q-48 -56 -129 -56q-77 0 -127.5 56t-50.5 169q0 114 52 170.5t129 56.5q47 0 83 -19.5t55 -45.5v55h47v-453
q0 -84 -41 -125.5t-141 -41.5zM292 45q69 0 115 46v250q-46 46 -115 46q-66 0 -98.5 -46t-32.5 -125t32.5 -125t98.5 -46z" />
    <glyph glyph-name="Hcircumflex" unicode="&#x124;" 
d="M168 597l100 191h64l100 -191h-40l-92 123l-92 -123h-40zM134 0v558h63v-245h206v245h63v-558h-63v258h-206v-258h-63z" />
    <glyph glyph-name="hcircumflex" unicode="&#x125;" 
d="M32 632l100 191h64l100 -191h-40l-92 123l-92 -123h-40zM134 0v632h59v-244q46 54 127 54q65 0 106 -38t41 -139v-265h-59v250q0 72 -21 105.5t-79 33.5q-74 0 -115 -47v-342h-59z" />
    <glyph glyph-name="Hbar" unicode="&#x126;" 
d="M134 0v403h-51v53h51v102h63v-102h206v102h63v-102h51v-53h-51v-403h-63v258h-206v-258h-63zM197 403v-90h206v90h-206z" />
    <glyph glyph-name="hbar" unicode="&#x127;" 
d="M134 0v501h-49v54h49v77h59v-77h126v-54h-126v-113q46 54 127 54q65 0 106 -38t41 -139v-265h-59v250q0 72 -21 105.5t-79 33.5q-74 0 -115 -47v-342h-59z" />
    <glyph glyph-name="Itilde" unicode="&#x128;" 
d="M171 627l-30 14q15 46 43 80.5t63 34.5q30 0 67 -39q29 -29 46 -29q35 0 69 68l30 -14q-15 -46 -43 -80.5t-63 -34.5q-28 0 -66 38q-28 30 -47 30q-35 0 -69 -68zM133 0v55h136v448h-136v55h335v-55h-136v-448h136v-55h-335z" />
    <glyph glyph-name="itilde" unicode="&#x129;" 
d="M178 520l-30 14q15 46 43 80.5t63 34.5q30 0 67 -39q29 -29 46 -29q35 0 69 68l30 -14q-15 -46 -43 -80.5t-63 -34.5q-28 0 -66 38q-28 30 -47 30q-35 0 -69 -68zM118 0v54h160v324h-160v54h219v-378h147v-54h-366z" />
    <glyph glyph-name="Imacron" unicode="&#x12a;" 
d="M168 657v54h265v-54h-265zM133 0v55h136v448h-136v55h335v-55h-136v-448h136v-55h-335z" />
    <glyph glyph-name="imacron" unicode="&#x12b;" 
d="M175 550v54h265v-54h-265zM118 0v54h160v324h-160v54h219v-378h147v-54h-366z" />
    <glyph glyph-name="Ibreve" unicode="&#x12c;" 
d="M300 635q-59 0 -96.5 37t-52.5 79l28 17q48 -74 121 -74t121 74l28 -17q-15 -42 -52.5 -79t-96.5 -37zM133 0v55h136v448h-136v55h335v-55h-136v-448h136v-55h-335z" />
    <glyph glyph-name="ibreve" unicode="&#x12d;" 
d="M307 528q-59 0 -96.5 37t-52.5 79l28 17q48 -74 121 -74t121 74l28 -17q-15 -42 -52.5 -79t-96.5 -37zM118 0v54h160v324h-160v54h219v-378h147v-54h-366z" />
    <glyph glyph-name="Iogonek" unicode="&#x12e;" 
d="M281 -188q-40 0 -64.5 17.5t-24.5 47.5q0 31 28 57t94 66h-181v55h136v448h-136v55h335v-55h-136v-448h136v-55h-108q-59 -46 -82 -69.5t-23 -44.5q0 -29 39 -29q34 0 58 12l9 -38q-33 -19 -80 -19z" />
    <glyph glyph-name="iogonek" unicode="&#x12f;" 
d="M270 -188q-40 0 -64.5 17.5t-24.5 47.5q0 31 28 57t94 66h-185v54h160v324h-160v54h219v-378h147v-54h-135q-59 -46 -82 -69.5t-23 -44.5q0 -29 39 -29q34 0 58 12l9 -38q-33 -19 -80 -19zM267 551v81h81v-81h-81z" />
    <glyph glyph-name="Idotaccent" unicode="&#x130;" 
d="M259 658v81h81v-81h-81zM133 0v55h136v448h-136v55h335v-55h-136v-448h136v-55h-335z" />
    <glyph glyph-name="dotlessi" unicode="&#x131;" 
d="M118 0v54h160v324h-160v54h219v-378h147v-54h-366z" />
    <glyph glyph-name="IJ" unicode="&#x132;" 
d="M300 -10q-94 0 -138 47.5t-44 155.5v24h63v-24q0 -80 27 -113.5t92 -33.5q66 0 93 33.5t27 113.5v365h63v-365q0 -108 -44.5 -155.5t-138.5 -47.5zM118 306v252h63v-252h-63z" />
    <glyph glyph-name="ij" unicode="&#x133;" 
d="M228 -183v54q180 0 180 143v418h59v-424q0 -91 -61.5 -141t-177.5 -50zM134 0v432h59v-432h-59zM123 551v81h81v-81h-81zM397 551v81h81v-81h-81z" />
    <glyph glyph-name="Jcircumflex" unicode="&#x134;" 
d="M316 587l100 191h64l100 -191h-40l-92 123l-92 -123h-40zM293 -10q-95 0 -141 50.5t-46 136.5q0 21 2 34h63q-2 -14 -2 -36q0 -129 123 -129q68 0 95.5 40.5t27.5 121.5v350h63v-350q0 -109 -44.5 -163.5t-140.5 -54.5z" />
    <glyph glyph-name="jcircumflex" unicode="&#x135;" 
d="M229 490l100 191h64l100 -191h-40l-92 123l-92 -123h-40zM152 -183v54q180 0 180 143v364h-168v54h227v-424q0 -91 -61.5 -141t-177.5 -50z" />
    <glyph glyph-name="Kcommaaccent" unicode="&#x136;" 
d="M293 -214q-19 0 -19 15q0 6 3 21l24 139h76l-66 -161q-6 -14 -18 -14zM134 0v558h63v-277l247 277h81l-216 -237l240 -321h-79l-201 277l-72 -78v-199h-63z" />
    <glyph glyph-name="kcommaaccent" unicode="&#x137;" 
d="M276 -214q-19 0 -19 15q0 6 3 21l24 139h76l-66 -161q-6 -14 -18 -14zM134 0v632h59v-406l242 206h77l-194 -163l203 -269h-73l-171 235l-84 -70v-165h-59z" />
    <glyph glyph-name="kgreenlandic" unicode="&#x138;" 
d="M134 0v432h59v-206l242 206h77l-194 -163l203 -269h-73l-171 235l-84 -70v-165h-59z" />
    <glyph glyph-name="Lacute" unicode="&#x139;" 
d="M119 597l77 191h80l-120 -191h-37zM134 0v558h63v-503h286v-55h-349z" />
    <glyph glyph-name="lacute" unicode="&#x13a;" 
d="M253 683l77 191h80l-120 -191h-37zM118 0v54h153v524h-153v54h212v-578h154v-54h-366z" />
    <glyph glyph-name="Lcommaaccent" unicode="&#x13b;" 
d="M288 -214q-19 0 -19 15q0 6 3 21l24 139h76l-66 -161q-6 -14 -18 -14zM134 0v558h63v-503h286v-55h-349z" />
    <glyph glyph-name="lcommaaccent" unicode="&#x13c;" 
d="M270 -214q-19 0 -19 15q0 6 3 21l24 139h76l-66 -161q-6 -14 -18 -14zM118 0v54h153v524h-153v54h212v-578h154v-54h-366z" />
    <glyph glyph-name="Lcaron" unicode="&#x13d;" 
d="M444 558l-66 -161q-6 -14 -18 -14q-19 0 -19 15q0 6 3 21l24 139h76zM134 0v558h63v-503h286v-55h-349z" />
    <glyph glyph-name="lcaron" unicode="&#x13e;" 
d="M522 632l-66 -161q-6 -14 -18 -14q-19 0 -19 15q0 6 3 21l24 139h76zM118 0v54h153v524h-153v54h212v-578h154v-54h-366z" />
    <glyph glyph-name="Ldot" unicode="&#x13f;" 
d="M134 0v558h63v-503h286v-55h-349zM395 234v102h102v-102h-102z" />
    <glyph glyph-name="ldot" unicode="&#x140;" 
d="M118 0v54h153v524h-153v54h212v-578h154v-54h-366zM477 232v102h102v-102h-102z" />
    <glyph glyph-name="Lslash" unicode="&#x141;" 
d="M134 0v271l-74 -18v55l74 18v232h63v-217l99 24v-55l-99 -24v-231h286v-55h-349z" />
    <glyph glyph-name="lslash" unicode="&#x142;" 
d="M118 0v54h153v220l-88 -21v55l88 21v249h-153v54h212v-289l89 22v-55l-89 -22v-234h154v-54h-366z" />
    <glyph glyph-name="Nacute" unicode="&#x143;" 
d="M253 597l77 191h80l-120 -191h-37zM134 0v558h91l187 -495l-6 150v345h60v-558h-91l-187 495l6 -150v-345h-60z" />
    <glyph glyph-name="nacute" unicode="&#x144;" 
d="M253 490l77 191h80l-120 -191h-37zM134 0v432h47v-55q45 65 141 65q145 0 145 -177v-265h-59v250q0 72 -21 105.5t-79 33.5q-74 0 -115 -47v-342h-59z" />
    <glyph glyph-name="Ncommaaccent" unicode="&#x145;" 
d="M269 -214q-19 0 -19 15q0 6 3 21l24 139h76l-66 -161q-6 -14 -18 -14zM134 0v558h91l187 -495l-6 150v345h60v-558h-91l-187 495l6 -150v-345h-60z" />
    <glyph glyph-name="ncommaaccent" unicode="&#x146;" 
d="M270 -214q-19 0 -19 15q0 6 3 21l24 139h76l-66 -161q-6 -14 -18 -14zM134 0v432h47v-55q45 65 141 65q145 0 145 -177v-265h-59v250q0 72 -21 105.5t-79 33.5q-74 0 -115 -47v-342h-59z" />
    <glyph glyph-name="Ncaron" unicode="&#x147;" 
d="M268 597l-100 191h40l92 -123l92 123h40l-100 -191h-64zM134 0v558h91l187 -495l-6 150v345h60v-558h-91l-187 495l6 -150v-345h-60z" />
    <glyph glyph-name="ncaron" unicode="&#x148;" 
d="M268 490l-100 191h40l92 -123l92 123h40l-100 -191h-64zM134 0v432h47v-55q45 65 141 65q145 0 145 -177v-265h-59v250q0 72 -21 105.5t-79 33.5q-74 0 -115 -47v-342h-59z" />
    <glyph glyph-name="napostrophe" unicode="&#x149;" 
d="M87 457q-19 0 -19 15q0 6 3 21l24 139h76l-66 -161q-6 -14 -18 -14zM134 0v432h47v-55q45 65 141 65q145 0 145 -177v-265h-59v250q0 72 -21 105.5t-79 33.5q-74 0 -115 -47v-342h-59z" />
    <glyph glyph-name="Eng" unicode="&#x14a;" 
d="M217 -183v56q172 0 186 127h-28l-187 495l6 -150v-345h-60v558h91l187 -495l-6 150v345h60v-536q0 -96 -64.5 -150.5t-184.5 -54.5z" />
    <glyph glyph-name="eng" unicode="&#x14b;" 
d="M228 -183v54q180 0 180 143v236q0 72 -21 105.5t-79 33.5q-74 0 -115 -47v-342h-59v432h47v-55q45 65 141 65q145 0 145 -177v-251q0 -93 -61.5 -145t-177.5 -52z" />
    <glyph glyph-name="Omacron" unicode="&#x14c;" 
d="M168 657v54h265v-54h-265zM299 -10q-104 0 -157 77.5t-53 209.5q0 135 54 213.5t158 78.5t157 -78t53 -210q0 -135 -54 -213t-158 -78zM300 46q146 0 146 233q0 234 -146 234t-146 -234q0 -233 146 -233z" />
    <glyph glyph-name="omacron" unicode="&#x14d;" 
d="M168 550v54h265v-54h-265zM299 -10q-38 0 -71.5 11t-63 35.5t-47 70.5t-17.5 108q0 121 59 174t142 53q38 0 71.5 -11t63 -35.5t47 -70.5t17.5 -108q0 -121 -59 -174t-142 -53zM300 45q139 0 139 171t-139 171t-139 -171t139 -171z" />
    <glyph glyph-name="Obreve" unicode="&#x14e;" 
d="M300 635q-59 0 -96.5 37t-52.5 79l28 17q48 -74 121 -74t121 74l28 -17q-15 -42 -52.5 -79t-96.5 -37zM299 -10q-104 0 -157 77.5t-53 209.5q0 135 54 213.5t158 78.5t157 -78t53 -210q0 -135 -54 -213t-158 -78zM300 46q146 0 146 233q0 234 -146 234t-146 -234
q0 -233 146 -233z" />
    <glyph glyph-name="obreve" unicode="&#x14f;" 
d="M300 528q-59 0 -96.5 37t-52.5 79l28 17q48 -74 121 -74t121 74l28 -17q-15 -42 -52.5 -79t-96.5 -37zM299 -10q-38 0 -71.5 11t-63 35.5t-47 70.5t-17.5 108q0 121 59 174t142 53q38 0 71.5 -11t63 -35.5t47 -70.5t17.5 -108q0 -121 -59 -174t-142 -53zM300 45
q139 0 139 171t-139 171t-139 -171t139 -171z" />
    <glyph glyph-name="Ohungarumlaut" unicode="&#x150;" 
d="M183 597l75 191h82l-118 -191h-39zM369 597l75 191h82l-118 -191h-39zM299 -10q-104 0 -157 77.5t-53 209.5q0 135 54 213.5t158 78.5t157 -78t53 -210q0 -135 -54 -213t-158 -78zM300 46q146 0 146 233q0 234 -146 234t-146 -234q0 -233 146 -233z" />
    <glyph glyph-name="ohungarumlaut" unicode="&#x151;" 
d="M183 490l75 191h82l-118 -191h-39zM369 490l75 191h82l-118 -191h-39zM299 -10q-38 0 -71.5 11t-63 35.5t-47 70.5t-17.5 108q0 121 59 174t142 53q38 0 71.5 -11t63 -35.5t47 -70.5t17.5 -108q0 -121 -59 -174t-142 -53zM300 45q139 0 139 171t-139 171t-139 -171
t139 -171z" />
    <glyph glyph-name="OE" unicode="&#x152;" 
d="M235 -10q-208 0 -208 287q0 292 207 292q41 0 76 -11h267v-55h-204v-190h164v-55h-164v-203h204v-55h-267q-32 -10 -75 -10zM240 43q39 0 70 11v450q-33 12 -70 12q-44 0 -74.5 -19t-46 -54t-21.5 -74t-6 -90t6 -89.5t21.5 -73.5t46 -54t74.5 -19z" />
    <glyph glyph-name="oe" unicode="&#x153;" 
d="M173 -10q-68 0 -110 55.5t-42 169.5q0 116 43 171.5t110 55.5q88 0 127 -88q41 88 130 88q68 0 107.5 -58t39.5 -169v-3h-249q1 -82 29 -126.5t76 -44.5q41 0 64 29t23 70h56q-2 -64 -41 -107t-102 -43q-91 0 -133 88q-38 -88 -128 -88zM175 41q48 0 73 47t25 128
t-25 128t-73 47t-73 -47t-25 -128t25 -128t73 -47zM331 260h190q-13 131 -94 131q-41 0 -65.5 -35t-30.5 -96z" />
    <glyph glyph-name="Racute" unicode="&#x154;" 
d="M243 597l77 191h80l-120 -191h-37zM134 0v558h129q108 0 168 -42.5t60 -123.5q0 -66 -40 -107.5t-109 -57.5l186 -227h-80l-174 220h-77v-220h-63zM197 503v-230h67q84 0 123 31.5t39 83.5t-39 83.5t-123 31.5h-67z" />
    <glyph glyph-name="racute" unicode="&#x155;" 
d="M265 490l77 191h80l-120 -191h-37zM118 0v54h115v324h-115v54h162v-93q17 43 54 73t97 30q40 0 75 -13v-60q-34 13 -72 13q-52 0 -88.5 -25t-53.5 -59v-244h192v-54h-366z" />
    <glyph glyph-name="Rcommaaccent" unicode="&#x156;" 
d="M287 -214q-19 0 -19 15q0 6 3 21l24 139h76l-66 -161q-6 -14 -18 -14zM134 0v558h129q108 0 168 -42.5t60 -123.5q0 -66 -40 -107.5t-109 -57.5l186 -227h-80l-174 220h-77v-220h-63zM197 503v-230h67q84 0 123 31.5t39 83.5t-39 83.5t-123 31.5h-67z" />
    <glyph glyph-name="rcommaaccent" unicode="&#x157;" 
d="M231 -214q-19 0 -19 15q0 6 3 21l24 139h76l-66 -161q-6 -14 -18 -14zM118 0v54h115v324h-115v54h162v-93q17 43 54 73t97 30q40 0 75 -13v-60q-34 13 -72 13q-52 0 -88.5 -25t-53.5 -59v-244h192v-54h-366z" />
    <glyph glyph-name="Rcaron" unicode="&#x158;" 
d="M258 597l-100 191h40l92 -123l92 123h40l-100 -191h-64zM134 0v558h129q108 0 168 -42.5t60 -123.5q0 -66 -40 -107.5t-109 -57.5l186 -227h-80l-174 220h-77v-220h-63zM197 503v-230h67q84 0 123 31.5t39 83.5t-39 83.5t-123 31.5h-67z" />
    <glyph glyph-name="rcaron" unicode="&#x159;" 
d="M280 490l-100 191h40l92 -123l92 123h40l-100 -191h-64zM118 0v54h115v324h-115v54h162v-93q17 43 54 73t97 30q40 0 75 -13v-60q-34 13 -72 13q-52 0 -88.5 -25t-53.5 -59v-244h192v-54h-366z" />
    <glyph glyph-name="Sacute" unicode="&#x15a;" 
d="M253 597l77 191h80l-120 -191h-37zM300 -10q-91 0 -145.5 42.5t-54.5 123.5h63q3 -52 38.5 -80.5t100.5 -28.5q61 0 98 25.5t37 72.5q0 62 -84 91l-119 42q-123 43 -123 144q0 70 52.5 108.5t133.5 38.5q83 0 133.5 -41.5t50.5 -122.5h-62q-4 107 -124 107
q-58 0 -88.5 -24.5t-30.5 -64.5q0 -60 76 -87l119 -42q69 -24 99.5 -57t30.5 -88q0 -79 -56 -119t-145 -40z" />
    <glyph glyph-name="sacute" unicode="&#x15b;" 
d="M254 490l77 191h80l-120 -191h-37zM310 -10q-91 0 -143.5 37.5t-56.5 109.5h58q10 -93 146 -93q115 0 115 70q0 36 -30 51.5t-106 33.5l-7.5 1.5t-6.5 1.5l-8 2q-37 9 -58.5 16t-44.5 20t-33.5 33.5t-10.5 48.5q0 61 47.5 90.5t125.5 29.5q175 0 186 -136h-58
q-14 82 -129 82q-112 0 -112 -62q0 -11 3 -20t12 -16t16.5 -11.5t25 -9.5t28.5 -8t36 -8.5t39 -8.5q75 -18 110 -43.5t35 -81.5q0 -68 -49 -98.5t-130 -30.5z" />
    <glyph glyph-name="Scircumflex" unicode="&#x15c;" 
d="M168 597l100 191h64l100 -191h-40l-92 123l-92 -123h-40zM300 -10q-91 0 -145.5 42.5t-54.5 123.5h63q3 -52 38.5 -80.5t100.5 -28.5q61 0 98 25.5t37 72.5q0 62 -84 91l-119 42q-123 43 -123 144q0 70 52.5 108.5t133.5 38.5q83 0 133.5 -41.5t50.5 -122.5h-62
q-4 107 -124 107q-58 0 -88.5 -24.5t-30.5 -64.5q0 -60 76 -87l119 -42q69 -24 99.5 -57t30.5 -88q0 -79 -56 -119t-145 -40z" />
    <glyph glyph-name="scircumflex" unicode="&#x15d;" 
d="M169 490l100 191h64l100 -191h-40l-92 123l-92 -123h-40zM310 -10q-91 0 -143.5 37.5t-56.5 109.5h58q10 -93 146 -93q115 0 115 70q0 36 -30 51.5t-106 33.5l-7.5 1.5t-6.5 1.5l-8 2q-37 9 -58.5 16t-44.5 20t-33.5 33.5t-10.5 48.5q0 61 47.5 90.5t125.5 29.5
q175 0 186 -136h-58q-14 82 -129 82q-112 0 -112 -62q0 -11 3 -20t12 -16t16.5 -11.5t25 -9.5t28.5 -8t36 -8.5t39 -8.5q75 -18 110 -43.5t35 -81.5q0 -68 -49 -98.5t-130 -30.5z" />
    <glyph glyph-name="Scedilla" unicode="&#x15e;" 
d="M308 -188q-49 0 -76 17l12 38q24 -12 51 -12q41 0 41 24q0 28 -78 47l14 65q-80 6 -126 48t-46 117h63q3 -52 38.5 -80.5t100.5 -28.5q61 0 98 25.5t37 72.5q0 33 -20 53t-64 36l-121 45q-121 45 -121 142q0 71 52 109.5t134 38.5q83 0 133.5 -41.5t50.5 -122.5h-62
q-4 107 -124 107q-58 0 -88.5 -24.5t-30.5 -64.5q0 -60 76 -87l119 -42q69 -24 99.5 -57t30.5 -88q0 -77 -52.5 -117t-137.5 -42l-7 -34q91 -27 91 -80q0 -28 -22.5 -46t-64.5 -18z" />
    <glyph glyph-name="scedilla" unicode="&#x15f;" 
d="M308 -188q-49 0 -76 17l12 38q24 -12 51 -12q41 0 41 24q0 28 -78 47l14 66q-74 7 -116 44t-46 101h58q10 -93 146 -93q115 0 115 70q0 36 -30 51.5t-106 33.5l-7.5 1.5t-6.5 1.5l-8 2q-30 7 -46 12t-38.5 14.5t-34 20.5t-20 29.5t-8.5 41.5q0 61 47.5 90.5t125.5 29.5
q175 0 186 -136h-58q-14 82 -129 82q-112 0 -112 -62q0 -11 3 -20t12 -16t16.5 -11.5t25 -9.5t28.5 -8t36 -8.5t39 -8.5q75 -18 110 -43.5t35 -81.5q0 -68 -49 -98.5t-129 -30.5l-7 -34q91 -27 91 -80q0 -28 -22.5 -46t-64.5 -18z" />
    <glyph glyph-name="Scaron" unicode="&#x160;" 
d="M268 597l-100 191h40l92 -123l92 123h40l-100 -191h-64zM300 -10q-91 0 -145.5 42.5t-54.5 123.5h63q3 -52 38.5 -80.5t100.5 -28.5q61 0 98 25.5t37 72.5q0 62 -84 91l-119 42q-123 43 -123 144q0 70 52.5 108.5t133.5 38.5q83 0 133.5 -41.5t50.5 -122.5h-62
q-4 107 -124 107q-58 0 -88.5 -24.5t-30.5 -64.5q0 -60 76 -87l119 -42q69 -24 99.5 -57t30.5 -88q0 -79 -56 -119t-145 -40z" />
    <glyph glyph-name="scaron" unicode="&#x161;" 
d="M269 490l-100 191h40l92 -123l92 123h40l-100 -191h-64zM310 -10q-91 0 -143.5 37.5t-56.5 109.5h58q10 -93 146 -93q115 0 115 70q0 36 -30 51.5t-106 33.5l-7.5 1.5t-6.5 1.5l-8 2q-37 9 -58.5 16t-44.5 20t-33.5 33.5t-10.5 48.5q0 61 47.5 90.5t125.5 29.5
q175 0 186 -136h-58q-14 82 -129 82q-112 0 -112 -62q0 -11 3 -20t12 -16t16.5 -11.5t25 -9.5t28.5 -8t36 -8.5t39 -8.5q75 -18 110 -43.5t35 -81.5q0 -68 -49 -98.5t-130 -30.5z" />
    <glyph glyph-name="Tcommaaccent" unicode="&#x162;" 
d="M269 -214q-19 0 -19 15q0 6 3 21l24 139h76l-66 -161q-6 -14 -18 -14zM268 0v503h-191v55h446v-55h-192v-503h-63z" />
    <glyph glyph-name="tcommaaccent" unicode="&#x163;" 
d="M333 -214q-19 0 -19 15q0 6 3 21l24 139h76l-66 -161q-6 -14 -18 -14zM380 -10q-82 0 -120.5 40t-38.5 141v207h-144v54h144v200h59v-200h212v-54h-212v-197q0 -75 22 -106t80 -31q47 0 99 16v-54q-44 -16 -101 -16z" />
    <glyph glyph-name="Tcaron" unicode="&#x164;" 
d="M268 597l-100 191h40l92 -123l92 123h40l-100 -191h-64zM268 0v503h-191v55h446v-55h-192v-503h-63z" />
    <glyph glyph-name="tcaron" unicode="&#x165;" 
d="M380 -10q-82 0 -120.5 40t-38.5 141v141h-144v54h144v266h59v-266h212v-54h-212v-131q0 -75 22 -106t80 -31q47 0 99 16v-54q-44 -16 -101 -16zM387 457q-19 0 -19 15q0 6 3 21l24 139h76l-66 -161q-6 -14 -18 -14z" />
    <glyph glyph-name="Tbar" unicode="&#x166;" 
d="M269 0v259h-122v54h122v190h-191v55h446v-55h-192v-190h121v-54h-121v-259h-63z" />
    <glyph glyph-name="tbar" unicode="&#x167;" 
d="M380 -10q-82 0 -120.5 40t-38.5 141v56h-83v54h83v97h-144v54h144v200h59v-200h212v-54h-212v-97h122v-54h-122v-46q0 -75 22 -106t80 -31q47 0 99 16v-54q-44 -16 -101 -16z" />
    <glyph glyph-name="Utilde" unicode="&#x168;" 
d="M171 627l-30 14q15 46 43 80.5t63 34.5q30 0 67 -39q29 -29 46 -29q35 0 69 68l30 -14q-15 -46 -43 -80.5t-63 -34.5q-28 0 -66 38q-28 30 -47 30q-35 0 -69 -68zM300 -10q-94 0 -138 47.5t-44 155.5v365h63v-365q0 -80 27 -113.5t92 -33.5q66 0 93 33.5t27 113.5v365h63
v-365q0 -108 -44.5 -155.5t-138.5 -47.5z" />
    <glyph glyph-name="utilde" unicode="&#x169;" 
d="M172 520l-30 14q15 46 43 80.5t63 34.5q30 0 67 -39q29 -29 46 -29q35 0 69 68l30 -14q-15 -46 -43 -80.5t-63 -34.5q-28 0 -66 38q-28 30 -47 30q-35 0 -69 -68zM279 -10q-145 0 -145 177v265h59v-250q0 -72 21 -105.5t79 -33.5q74 0 115 47v342h59v-432h-47v55
q-45 -65 -141 -65z" />
    <glyph glyph-name="Umacron" unicode="&#x16a;" 
d="M168 657v54h265v-54h-265zM300 -10q-94 0 -138 47.5t-44 155.5v365h63v-365q0 -80 27 -113.5t92 -33.5q66 0 93 33.5t27 113.5v365h63v-365q0 -108 -44.5 -155.5t-138.5 -47.5z" />
    <glyph glyph-name="umacron" unicode="&#x16b;" 
d="M169 550v54h265v-54h-265zM279 -10q-145 0 -145 177v265h59v-250q0 -72 21 -105.5t79 -33.5q74 0 115 47v342h59v-432h-47v55q-45 -65 -141 -65z" />
    <glyph glyph-name="Ubreve" unicode="&#x16c;" 
d="M300 635q-59 0 -96.5 37t-52.5 79l28 17q48 -74 121 -74t121 74l28 -17q-15 -42 -52.5 -79t-96.5 -37zM300 -10q-94 0 -138 47.5t-44 155.5v365h63v-365q0 -80 27 -113.5t92 -33.5q66 0 93 33.5t27 113.5v365h63v-365q0 -108 -44.5 -155.5t-138.5 -47.5z" />
    <glyph glyph-name="ubreve" unicode="&#x16d;" 
d="M301 528q-59 0 -96.5 37t-52.5 79l28 17q48 -74 121 -74t121 74l28 -17q-15 -42 -52.5 -79t-96.5 -37zM279 -10q-145 0 -145 177v265h59v-250q0 -72 21 -105.5t79 -33.5q74 0 115 47v342h59v-432h-47v55q-45 -65 -141 -65z" />
    <glyph glyph-name="Uring" unicode="&#x16e;" 
d="M300 586q-53 0 -89.5 36t-36.5 88t36.5 88t89.5 36t89.5 -36t36.5 -88t-36.5 -88t-89.5 -36zM300 628q34 0 58 24t24 58t-24 58t-58 24t-58 -24t-24 -58t24 -58t58 -24zM300 -10q-94 0 -138 47.5t-44 155.5v365h63v-365q0 -80 27 -113.5t92 -33.5q66 0 93 33.5t27 113.5
v365h63v-365q0 -108 -44.5 -155.5t-138.5 -47.5z" />
    <glyph glyph-name="uring" unicode="&#x16f;" 
d="M301 479q-53 0 -89.5 36t-36.5 88t36.5 88t89.5 36t89.5 -36t36.5 -88t-36.5 -88t-89.5 -36zM301 521q35 0 58.5 23.5t23.5 58.5t-23.5 58.5t-58.5 23.5t-58.5 -23.5t-23.5 -58.5t23.5 -58.5t58.5 -23.5zM279 -10q-145 0 -145 177v265h59v-250q0 -72 21 -105.5t79 -33.5
q74 0 115 47v342h59v-432h-47v55q-45 -65 -141 -65z" />
    <glyph glyph-name="Uhungarumlaut" unicode="&#x170;" 
d="M183 597l75 191h82l-118 -191h-39zM369 597l75 191h82l-118 -191h-39zM300 -10q-94 0 -138 47.5t-44 155.5v365h63v-365q0 -80 27 -113.5t92 -33.5q66 0 93 33.5t27 113.5v365h63v-365q0 -108 -44.5 -155.5t-138.5 -47.5z" />
    <glyph glyph-name="uhungarumlaut" unicode="&#x171;" 
d="M184 490l75 191h82l-118 -191h-39zM370 490l75 191h82l-118 -191h-39zM279 -10q-145 0 -145 177v265h59v-250q0 -72 21 -105.5t79 -33.5q74 0 115 47v342h59v-432h-47v55q-45 -65 -141 -65z" />
    <glyph glyph-name="Uogonek" unicode="&#x172;" 
d="M316 -188q-40 0 -64.5 17.5t-24.5 47.5t25 54t89 65q-22 -6 -48 -6q-89 0 -132 48.5t-43 154.5v365h63v-365q0 -80 27 -113.5t92 -33.5q66 0 93 33.5t27 113.5v365h63v-365q0 -120 -54 -165q-87 -72 -113 -97.5t-26 -44.5q0 -29 39 -29q34 0 58 12l9 -38q-33 -19 -80 -19
z" />
    <glyph glyph-name="uogonek" unicode="&#x173;" 
d="M279 -10q-145 0 -145 177v265h59v-250q0 -72 21 -105.5t79 -33.5q74 0 115 47v342h59v-432q-59 -46 -82 -69.5t-23 -44.5q0 -29 39 -29q34 0 58 12l9 -38q-33 -19 -80 -19q-40 0 -64.5 17.5t-24.5 47.5q0 31 27.5 57.5t93.5 65.5v55q-45 -65 -141 -65z" />
    <glyph glyph-name="Wcircumflex" unicode="&#x174;" 
d="M168 597l100 191h64l100 -191h-40l-92 123l-92 -123h-40zM126 0l-73 558h63l38 -321l21 -182l91 310h69l91 -310l21 182l38 321h62l-73 -558h-88l-86 291l-86 -291h-88z" />
    <glyph glyph-name="wcircumflex" unicode="&#x175;" 
d="M168 490l100 191h64l100 -191h-40l-92 123l-92 -123h-40zM137 0l-75 432h59l59 -377l87 284h66l87 -284l60 377h58l-75 -432h-78l-85 276l-85 -276h-78z" />
    <glyph glyph-name="Ycircumflex" unicode="&#x176;" 
d="M169 597l100 191h64l100 -191h-40l-92 123l-92 -123h-40zM269 0v226l-221 332h73l90 -136l91 -144l90 144l88 136h73l-221 -334v-224h-63z" />
    <glyph glyph-name="ycircumflex" unicode="&#x177;" 
d="M168 490l100 191h64l100 -191h-40l-92 123l-92 -123h-40zM88 -183v54q68 0 108.5 29t69.5 98l-185 434h65l87 -214l66 -161l61 151l91 224h64l-186 -437q-42 -98 -96.5 -138t-144.5 -40z" />
    <glyph glyph-name="Ydieresis" unicode="&#x178;" 
d="M160 658v81h81v-81h-81zM361 658v81h81v-81h-81zM269 0v226l-221 332h73l90 -136l91 -144l90 144l88 136h73l-221 -334v-224h-63z" />
    <glyph glyph-name="Zacute" unicode="&#x179;" 
d="M259 597l77 191h80l-120 -191h-37zM107 0v50l308 453h-303v55h377v-50l-309 -453h312v-55h-385z" />
    <glyph glyph-name="zacute" unicode="&#x17a;" 
d="M253 490l77 191h80l-120 -191h-37zM118 0v44l278 334h-273v54h355v-44l-278 -333h283v-55h-365z" />
    <glyph glyph-name="Zdotaccent" unicode="&#x17b;" 
d="M265 658v81h81v-81h-81zM107 0v50l308 453h-303v55h377v-50l-309 -453h312v-55h-385z" />
    <glyph glyph-name="zdotaccent" unicode="&#x17c;" 
d="M259 551v81h81v-81h-81zM118 0v44l278 334h-273v54h355v-44l-278 -333h283v-55h-365z" />
    <glyph glyph-name="Zcaron" unicode="&#x17d;" 
d="M274 597l-100 191h40l92 -123l92 123h40l-100 -191h-64zM107 0v50l308 453h-303v55h377v-50l-309 -453h312v-55h-385z" />
    <glyph glyph-name="zcaron" unicode="&#x17e;" 
d="M268 490l-100 191h40l92 -123l92 123h40l-100 -191h-64zM118 0v44l278 334h-273v54h355v-44l-278 -333h283v-55h-365z" />
    <glyph glyph-name="uni0180" unicode="&#x180;" 
d="M319 -10q-86 0 -138 65v-55h-47v501h-37v54h37v77h59v-77h138v-54h-138v-115q48 56 128 56q78 0 128.5 -56t50.5 -169q0 -114 -52 -170.5t-129 -56.5zM308 45q66 0 98.5 46t32.5 125t-32.5 125t-98.5 46q-69 0 -115 -46v-250q46 -46 115 -46z" />
    <glyph glyph-name="uni018F" unicode="&#x18f;" 
d="M297 -10q-104 0 -156.5 77.5t-52.5 211.5v14h358q-3 98 -38 159.5t-113 61.5q-61 0 -97 -39t-47 -103h-64q17 92 71 144.5t139 52.5q104 0 158.5 -78.5t54.5 -211.5t-54.5 -211t-158.5 -78zM299 45q133 0 146 194h-292q13 -194 146 -194z" />
    <glyph glyph-name="florin" unicode="&#x192;" 
d="M91 -183v54q178 0 178 143v241h-148v54h148v57q0 95 62 146t179 51v-54q-178 0 -178 -143v-57h146v-54h-146v-241q0 -95 -62 -146t-179 -51z" />
    <glyph glyph-name="Ohorn" unicode="&#x1a0;" 
d="M301 569q96 0 152 -73q38 3 53.5 21t15.5 54q0 20 -5 58h61q4 -24 4 -56q0 -56 -26.5 -83.5t-78.5 -32.5q34 -71 34 -176q0 -135 -54 -213t-158 -78t-157 77.5t-53 209.5q0 135 54 213.5t158 78.5zM300 46q146 0 146 233q0 234 -146 234t-146 -234q0 -233 146 -233z" />
    <glyph glyph-name="ohorn" unicode="&#x1a1;" 
d="M299 -10q-38 0 -71.5 11t-63 35.5t-47 70.5t-17.5 108q0 121 59 174t142 53q106 0 158 -74q33 4 46.5 22t13.5 52q0 20 -5 58h61q4 -24 4 -56q0 -54 -24.5 -81t-73.5 -34q19 -47 19 -112q0 -121 -59 -174t-142 -53zM300 45q139 0 139 171t-139 171t-139 -171t139 -171z
" />
    <glyph glyph-name="Uhorn" unicode="&#x1af;" 
d="M300 -10q-94 0 -138 47.5t-44 155.5v365h63v-365q0 -80 27 -113.5t92 -33.5q66 0 93 33.5t27 113.5v365h36q47 0 65.5 18t18.5 57q0 20 -5 58h61q4 -24 4 -56q0 -59 -29 -86t-88 -31v-325q0 -108 -44.5 -155.5t-138.5 -47.5z" />
    <glyph glyph-name="uhorn" unicode="&#x1b0;" 
d="M279 -10q-145 0 -145 177v265h59v-250q0 -72 21 -105.5t79 -33.5q74 0 115 47v342h37q47 0 65.5 18t18.5 57q0 20 -5 58h61q4 -24 4 -56q0 -61 -30.5 -88t-91.5 -30v-391h-47v55q-45 -65 -141 -65z" />
    <glyph glyph-name="uni01CD" unicode="&#x1cd;" 
d="M268 597l-100 191h40l92 -123l92 123h40l-100 -191h-64zM67 0l198 558h70l198 -558h-70l-47 139h-233l-48 -139h-68zM235 297l-35 -103h197l-34 101l-64 197z" />
    <glyph glyph-name="uni01CE" unicode="&#x1ce;" 
d="M264 490l-100 191h40l92 -123l92 123h40l-100 -191h-64zM244 -10q-66 0 -106 30t-40 91q0 68 48 96t119 28t127 -18v40q0 32 -3 52t-13.5 40.5t-33.5 30t-60 9.5q-117 0 -117 -100h-59q0 45 17 77t46 47.5t57.5 22t60.5 6.5q164 0 164 -168v-209q0 -13 5.5 -17.5
t19.5 -4.5q23 0 54 7v-46q-35 -14 -70 -14q-60 0 -60 57v8q-50 -65 -156 -65zM248 44q82 0 144 46v82q-51 12 -119 12q-58 0 -87.5 -16.5t-29.5 -55.5q0 -68 92 -68z" />
    <glyph glyph-name="uni01CF" unicode="&#x1cf;" 
d="M268 597l-100 191h40l92 -123l92 123h40l-100 -191h-64zM133 0v55h136v448h-136v55h335v-55h-136v-448h136v-55h-335z" />
    <glyph glyph-name="uni01D0" unicode="&#x1d0;" 
d="M275 490l-100 191h40l92 -123l92 123h40l-100 -191h-64zM118 0v54h160v324h-160v54h219v-378h147v-54h-366z" />
    <glyph glyph-name="uni01D1" unicode="&#x1d1;" 
d="M268 597l-100 191h40l92 -123l92 123h40l-100 -191h-64zM299 -10q-104 0 -157 77.5t-53 209.5q0 135 54 213.5t158 78.5t157 -78t53 -210q0 -135 -54 -213t-158 -78zM300 46q146 0 146 233q0 234 -146 234t-146 -234q0 -233 146 -233z" />
    <glyph glyph-name="uni01D2" unicode="&#x1d2;" 
d="M268 490l-100 191h40l92 -123l92 123h40l-100 -191h-64zM299 -10q-38 0 -71.5 11t-63 35.5t-47 70.5t-17.5 108q0 121 59 174t142 53q38 0 71.5 -11t63 -35.5t47 -70.5t17.5 -108q0 -121 -59 -174t-142 -53zM300 45q139 0 139 171t-139 171t-139 -171t139 -171z" />
    <glyph glyph-name="uni01D3" unicode="&#x1d3;" 
d="M268 597l-100 191h40l92 -123l92 123h40l-100 -191h-64zM300 -10q-94 0 -138 47.5t-44 155.5v365h63v-365q0 -80 27 -113.5t92 -33.5q66 0 93 33.5t27 113.5v365h63v-365q0 -108 -44.5 -155.5t-138.5 -47.5z" />
    <glyph glyph-name="uni01D4" unicode="&#x1d4;" 
d="M269 490l-100 191h40l92 -123l92 123h40l-100 -191h-64zM279 -10q-145 0 -145 177v265h59v-250q0 -72 21 -105.5t79 -33.5q74 0 115 47v342h59v-432h-47v55q-45 -65 -141 -65z" />
    <glyph glyph-name="uni01D5" unicode="&#x1d5;" 
d="M159 597v81h81v-81h-81zM360 597v81h81v-81h-81zM167 734v54h265v-54h-265zM300 -10q-94 0 -138 47.5t-44 155.5v365h63v-365q0 -80 27 -113.5t92 -33.5q66 0 93 33.5t27 113.5v365h63v-365q0 -108 -44.5 -155.5t-138.5 -47.5z" />
    <glyph glyph-name="uni01D6" unicode="&#x1d6;" 
d="M160 551v81h81v-81h-81zM361 551v81h81v-81h-81zM168 706v54h265v-54h-265zM279 -10q-145 0 -145 177v265h59v-250q0 -72 21 -105.5t79 -33.5q74 0 115 47v342h59v-432h-47v55q-45 -65 -141 -65z" />
    <glyph glyph-name="uni01D7" unicode="&#x1d7;" 
d="M159 597v81h81v-81h-81zM360 597v81h81v-81h-81zM282 690l71 168h80l-115 -168h-36zM300 -10q-94 0 -138 47.5t-44 155.5v365h63v-365q0 -80 27 -113.5t92 -33.5q66 0 93 33.5t27 113.5v365h63v-365q0 -108 -44.5 -155.5t-138.5 -47.5z" />
    <glyph glyph-name="uni01D8" unicode="&#x1d8;" 
d="M160 551v81h81v-81h-81zM361 551v81h81v-81h-81zM283 664l77 191h80l-120 -191h-37zM279 -10q-145 0 -145 177v265h59v-250q0 -72 21 -105.5t79 -33.5q74 0 115 47v342h59v-432h-47v55q-45 -65 -141 -65z" />
    <glyph glyph-name="uni01D9" unicode="&#x1d9;" 
d="M159 597v81h81v-81h-81zM360 597v81h81v-81h-81zM268 690l-100 168h40l92 -106l92 106h40l-100 -168h-64zM300 -10q-94 0 -138 47.5t-44 155.5v365h63v-365q0 -80 27 -113.5t92 -33.5q66 0 93 33.5t27 113.5v365h63v-365q0 -108 -44.5 -155.5t-138.5 -47.5z" />
    <glyph glyph-name="uni01DA" unicode="&#x1da;" 
d="M160 551v81h81v-81h-81zM361 551v81h81v-81h-81zM269 664l-100 191h40l92 -123l92 123h40l-100 -191h-64zM279 -10q-145 0 -145 177v265h59v-250q0 -72 21 -105.5t79 -33.5q74 0 115 47v342h59v-432h-47v55q-45 -65 -141 -65z" />
    <glyph glyph-name="uni01DB" unicode="&#x1db;" 
d="M441 678v-81h-81v81h81zM240 678v-81h-81v81h81zM247 858l71 -168h-36l-115 168h80zM300 -10q-94 0 -138 47.5t-44 155.5v365h63v-365q0 -80 27 -113.5t92 -33.5q66 0 93 33.5t27 113.5v365h63v-365q0 -108 -44.5 -155.5t-138.5 -47.5z" />
    <glyph glyph-name="uni01DC" unicode="&#x1dc;" 
d="M160 551v81h81v-81h-81zM361 551v81h81v-81h-81zM243 855l77 -191h-37l-120 191h80zM279 -10q-145 0 -145 177v265h59v-250q0 -72 21 -105.5t79 -33.5q74 0 115 47v342h59v-432h-47v55q-45 -65 -141 -65z" />
    <glyph glyph-name="uni01E6" unicode="&#x1e6;" 
d="M268 597l-100 191h40l92 -123l92 123h40l-100 -191h-64zM291 -10q-56 0 -96.5 24.5t-62.5 67t-32 91.5t-10 107q0 139 55 214t156 75q34 0 64 -9t58.5 -29.5t46 -60.5t19.5 -95h-63q-14 140 -126 140q-77 0 -111 -65t-34 -168q0 -65 12 -115.5t46.5 -86.5t89.5 -36
q71 0 122 53v145h-138v55h201v-297h-48v56q-15 -22 -53 -44t-96 -22z" />
    <glyph glyph-name="uni01E7" unicode="&#x1e7;" 
d="M250 490l-100 191h40l92 -123l92 123h40l-100 -191h-64zM284 -188q-180 0 -180 149h59q0 -51 29 -74.5t90 -23.5q77 0 101 30.5t24 90.5v62q-48 -56 -129 -56q-77 0 -127.5 56t-50.5 169q0 114 52 170.5t129 56.5q47 0 83 -19.5t55 -45.5v55h47v-453q0 -84 -41 -125.5
t-141 -41.5zM292 45q69 0 115 46v250q-46 46 -115 46q-66 0 -98.5 -46t-32.5 -125t32.5 -125t98.5 -46z" />
    <glyph glyph-name="uni01EA" unicode="&#x1ea;" 
d="M316 -188q-40 0 -64.5 17.5t-24.5 47.5t26 55.5t87 62.5q-22 -5 -43 -5q-103 0 -155.5 77.5t-52.5 210.5q0 134 54 212.5t158 78.5t157 -78t53 -210q0 -89 -25 -158.5t-91 -122.5q-63 -50 -84 -72t-21 -42q0 -29 39 -29q34 0 58 12l9 -38q-33 -19 -80 -19zM300 46
q146 0 146 233q0 234 -146 234t-146 -234q0 -233 146 -233z" />
    <glyph glyph-name="uni01EB" unicode="&#x1eb;" 
d="M222 -123q0 30 26 55.5t86 61.5q-16 -4 -35 -4q-38 0 -71.5 11t-63 35.5t-47 70.5t-17.5 108q0 121 59 174t142 53q38 0 71.5 -11t63 -35.5t47 -70.5t17.5 -108q0 -68 -21.5 -115t-67.5 -85q-98 -80 -114 -101q-12 -16 -12 -30q0 -29 39 -29q34 0 58 12l9 -38
q-33 -19 -80 -19q-40 0 -64.5 17.5t-24.5 47.5zM300 45q139 0 139 171t-139 171t-139 -171t139 -171z" />
    <glyph glyph-name="uni01F8" unicode="&#x1f8;" 
d="M311 597l-120 191h80l77 -191h-37zM134 0v558h91l187 -495l-6 150v345h60v-558h-91l-187 495l6 -150v-345h-60z" />
    <glyph glyph-name="uni01F9" unicode="&#x1f9;" 
d="M311 490l-120 191h80l77 -191h-37zM134 0v432h47v-55q45 65 141 65q145 0 145 -177v-265h-59v250q0 72 -21 105.5t-79 33.5q-74 0 -115 -47v-342h-59z" />
    <glyph glyph-name="AEacute" unicode="&#x1fc;" 
d="M253 597l77 191h80l-120 -191h-37zM20 0l102 558h421v-55h-205v-190h165v-55h-165v-203h205v-55h-268v258h-145l-46 -258h-64zM173 503l-33 -190h135v190h-102z" />
    <glyph glyph-name="aeacute" unicode="&#x1fd;" 
d="M250 490l77 191h80l-120 -191h-37zM170 -10q-64 0 -100.5 34t-36.5 92q0 63 41 90.5t99 27.5q59 0 98 -15v55q0 52 -23 84t-68 32q-40 0 -59.5 -26.5t-19.5 -69.5h-53q0 66 36 107t101 41q89 0 119 -76q38 76 120 76q67 0 105 -57.5t38 -169.5v-3h-241q1 -83 27 -127
t74 -44q40 0 61.5 29t21.5 70h56q-2 -64 -39 -107t-100 -43q-78 0 -121 67q-47 -67 -136 -67zM174 42q65 0 116 47q-16 39 -20 87q-28 10 -86 10q-93 0 -93 -70q0 -36 22.5 -55t60.5 -19zM328 261h182q-12 130 -90 130q-80 0 -92 -130z" />
    <glyph glyph-name="Oslashacute" unicode="&#x1fe;" 
d="M253 597l77 191h80l-120 -191h-37zM298 -10q-102 0 -155 75l-59 -65h-71l103 114q-27 69 -27 164q0 134 54 212.5t158 78.5q103 0 156 -77l59 66h71l-103 -115q27 -67 27 -163q0 -134 -54.5 -212t-158.5 -78zM300 46q146 0 146 233q0 63 -11 110l-249 -276
q36 -67 114 -67zM165 168l249 277q-36 68 -114 68q-146 0 -146 -234q0 -64 11 -111z" />
    <glyph glyph-name="oslashacute" unicode="&#x1ff;" 
d="M253 490l77 191h80l-120 -191h-37zM299 -10q-92 0 -144 56l-49 -46h-74l94 88q-26 52 -26 128q0 63 18 109t48 70.5t63.5 35.5t71.5 11q91 0 144 -56l49 46h74l-94 -88q26 -54 26 -128q0 -63 -18 -109t-48 -70.5t-63.5 -35.5t-71.5 -11zM299 45q140 0 140 171
q0 48 -12 84l-229 -214q34 -41 101 -41zM173 132l229 214q-36 41 -102 41q-139 0 -139 -171q0 -50 12 -84z" />
    <glyph glyph-name="Scommaaccent" unicode="&#x218;" 
d="M269 -214q-19 0 -19 15q0 6 3 21l24 139h76l-66 -161q-6 -14 -18 -14zM300 -10q-91 0 -145.5 42.5t-54.5 123.5h63q3 -52 38.5 -80.5t100.5 -28.5q61 0 98 25.5t37 72.5q0 62 -84 91l-119 42q-123 43 -123 144q0 70 52.5 108.5t133.5 38.5q83 0 133.5 -41.5t50.5 -122.5
h-62q-4 107 -124 107q-58 0 -88.5 -24.5t-30.5 -64.5q0 -60 76 -87l119 -42q69 -24 99.5 -57t30.5 -88q0 -79 -56 -119t-145 -40z" />
    <glyph glyph-name="scommaaccent" unicode="&#x219;" 
d="M270 -214q-19 0 -19 15q0 6 3 21l24 139h76l-66 -161q-6 -14 -18 -14zM310 -10q-91 0 -143.5 37.5t-56.5 109.5h58q10 -93 146 -93q115 0 115 70q0 36 -30 51.5t-106 33.5l-7.5 1.5t-6.5 1.5l-8 2q-37 9 -58.5 16t-44.5 20t-33.5 33.5t-10.5 48.5q0 61 47.5 90.5
t125.5 29.5q175 0 186 -136h-58q-14 82 -129 82q-112 0 -112 -62q0 -11 3 -20t12 -16t16.5 -11.5t25 -9.5t28.5 -8t36 -8.5t39 -8.5q75 -18 110 -43.5t35 -81.5q0 -68 -49 -98.5t-130 -30.5z" />
    <glyph glyph-name="uni021A" unicode="&#x21a;" 
d="M269 -214q-19 0 -19 15q0 6 3 21l24 139h76l-66 -161q-6 -14 -18 -14zM268 0v503h-191v55h446v-55h-192v-503h-63z" />
    <glyph glyph-name="uni021B" unicode="&#x21b;" 
d="M333 -214q-19 0 -19 15q0 6 3 21l24 139h76l-66 -161q-6 -14 -18 -14zM380 -10q-82 0 -120.5 40t-38.5 141v207h-144v54h144v200h59v-200h212v-54h-212v-197q0 -75 22 -106t80 -31q47 0 99 16v-54q-44 -16 -101 -16z" />
    <glyph glyph-name="uni0226" unicode="&#x226;" 
d="M259 658v81h81v-81h-81zM67 0l198 558h70l198 -558h-70l-47 139h-233l-48 -139h-68zM235 297l-35 -103h197l-34 101l-64 197z" />
    <glyph glyph-name="uni0227" unicode="&#x227;" 
d="M255 551v81h81v-81h-81zM244 -10q-66 0 -106 30t-40 91q0 68 48 96t119 28t127 -18v40q0 32 -3 52t-13.5 40.5t-33.5 30t-60 9.5q-117 0 -117 -100h-59q0 45 17 77t46 47.5t57.5 22t60.5 6.5q164 0 164 -168v-209q0 -13 5.5 -17.5t19.5 -4.5q23 0 54 7v-46
q-35 -14 -70 -14q-60 0 -60 57v8q-50 -65 -156 -65zM248 44q82 0 144 46v82q-51 12 -119 12q-58 0 -87.5 -16.5t-29.5 -55.5q0 -68 92 -68z" />
    <glyph glyph-name="uni022E" unicode="&#x22e;" 
d="M259 658v81h81v-81h-81zM299 -10q-104 0 -157 77.5t-53 209.5q0 135 54 213.5t158 78.5t157 -78t53 -210q0 -135 -54 -213t-158 -78zM300 46q146 0 146 233q0 234 -146 234t-146 -234q0 -233 146 -233z" />
    <glyph glyph-name="uni022F" unicode="&#x22f;" 
d="M259 551v81h81v-81h-81zM299 -10q-38 0 -71.5 11t-63 35.5t-47 70.5t-17.5 108q0 121 59 174t142 53q38 0 71.5 -11t63 -35.5t47 -70.5t17.5 -108q0 -121 -59 -174t-142 -53zM300 45q139 0 139 171t-139 171t-139 -171t139 -171z" />
    <glyph glyph-name="uni0237" unicode="&#x237;" 
d="M152 -183v54q180 0 180 143v364h-168v54h227v-424q0 -91 -61.5 -141t-177.5 -50z" />
    <glyph glyph-name="uni0243" unicode="&#x243;" 
d="M134 0v132h-49v55h49v371h160q85 0 139.5 -39.5t54.5 -109.5q0 -81 -82 -120q105 -36 105 -133q0 -71 -56.5 -113.5t-142.5 -42.5h-178zM317 132h-120v-77h115q67 0 100.5 29.5t33.5 75.5q0 47 -35.5 72.5t-102.5 25.5h-111v-71h120v-55zM197 503v-190h88q138 0 138 92
q0 46 -33 72t-100 26h-93z" />
    <glyph glyph-name="uni0259" unicode="&#x259;" 
d="M296 -10q-36 0 -69 11t-63.5 35t-48.5 70t-18 109v14h343q-6 161 -147 161q-56 0 -91.5 -25.5t-44.5 -72.5h-59q7 55 42 90.5t74 47.5t82 12q88 0 146 -55.5t58 -169.5q0 -62 -18 -108t-49 -71t-65 -36.5t-72 -11.5zM300 42q126 0 139 138h-282q15 -138 143 -138z" />
    <glyph glyph-name="uni02BB" unicode="&#x2bb;" 
d="M248 496l66 161q6 14 18 14q19 0 19 -15q0 -6 -3 -21l-24 -139h-76z" />
    <glyph glyph-name="uni02BC" unicode="&#x2bc;" 
d="M344 632l-66 -161q-6 -14 -18 -14q-19 0 -19 15q0 6 3 21l24 139h76z" />
    <glyph glyph-name="circumflex" unicode="&#x2c6;" 
d="M168 490l100 191h64l100 -191h-40l-92 123l-92 -123h-40z" />
    <glyph glyph-name="caron" unicode="&#x2c7;" 
d="M268 490l-100 191h40l92 -123l92 123h40l-100 -191h-64z" />
    <glyph glyph-name="breve" unicode="&#x2d8;" 
d="M300 528q-59 0 -96.5 37t-52.5 79l28 17q48 -74 121 -74t121 74l28 -17q-15 -42 -52.5 -79t-96.5 -37z" />
    <glyph glyph-name="dotaccent" unicode="&#x2d9;" 
d="M259 551v81h81v-81h-81z" />
    <glyph glyph-name="ring" unicode="&#x2da;" 
d="M300 479q-53 0 -89.5 36t-36.5 88t36.5 88t89.5 36t89.5 -36t36.5 -88t-36.5 -88t-89.5 -36zM300 521q34 0 58 23.5t24 58.5t-24 58.5t-58 23.5t-58 -23.5t-24 -58.5t24 -58.5t58 -23.5z" />
    <glyph glyph-name="ogonek" unicode="&#x2db;" 
d="M305 -188q-40 0 -64.5 17.5t-24.5 47.5q0 31 28 57t94 66h46q-59 -46 -82 -69.5t-23 -44.5q0 -29 39 -29q34 0 58 12l9 -38q-33 -19 -80 -19z" />
    <glyph glyph-name="tilde" unicode="&#x2dc;" 
d="M171 520l-30 14q15 46 43 80.5t63 34.5q30 0 67 -39q29 -29 46 -29q35 0 69 68l30 -14q-15 -46 -43 -80.5t-63 -34.5q-28 0 -66 38q-28 30 -47 30q-35 0 -69 -68z" />
    <glyph glyph-name="hungarumlaut" unicode="&#x2dd;" 
d="M128 490l75 191h82l-118 -191h-39zM314 490l75 191h82l-118 -191h-39z" />
    <glyph glyph-name="uni0300" unicode="&#x300;" horiz-adv-x="0" 
d="M11 490l-120 191h80l77 -191h-37z" />
    <glyph glyph-name="uni0301" unicode="&#x301;" horiz-adv-x="0" 
d="M-47 490l77 191h80l-120 -191h-37z" />
    <glyph glyph-name="uni0302" unicode="&#x302;" horiz-adv-x="0" 
d="M-132 490l100 191h64l100 -191h-40l-92 123l-92 -123h-40z" />
    <glyph glyph-name="uni0303" unicode="&#x303;" horiz-adv-x="0" 
d="M-129 520l-30 14q15 46 43 80.5t63 34.5q30 0 67 -39q29 -29 46 -29q35 0 69 68l30 -14q-15 -46 -43 -80.5t-63 -34.5q-28 0 -66 38q-28 30 -47 30q-35 0 -69 -68z" />
    <glyph glyph-name="uni0304" unicode="&#x304;" horiz-adv-x="0" 
d="M-132 550v54h265v-54h-265z" />
    <glyph glyph-name="uni0306" unicode="&#x306;" horiz-adv-x="0" 
d="M0 528q-59 0 -96.5 37t-52.5 79l28 17q48 -74 121 -74t121 74l28 -17q-15 -42 -52.5 -79t-96.5 -37z" />
    <glyph glyph-name="uni0307" unicode="&#x307;" horiz-adv-x="0" 
d="M-41 551v81h81v-81h-81z" />
    <glyph glyph-name="uni0308" unicode="&#x308;" horiz-adv-x="0" 
d="M-141 551v81h81v-81h-81zM60 551v81h81v-81h-81z" />
    <glyph glyph-name="uni0309" unicode="&#x309;" horiz-adv-x="0" 
d="M-5 490l-21 25q64 53 64 85q0 37 -46 37q-45 0 -45 -38h-47q0 84 95 84q48 0 72 -21t24 -53q0 -30 -22.5 -57t-73.5 -62z" />
    <glyph glyph-name="uni030A" unicode="&#x30a;" horiz-adv-x="0" 
d="M0 479q-53 0 -89.5 36t-36.5 88t36.5 88t89.5 36t89.5 -36t36.5 -88t-36.5 -88t-89.5 -36zM0 521q34 0 58 23.5t24 58.5t-24 58.5t-58 23.5t-58 -23.5t-24 -58.5t24 -58.5t58 -23.5z" />
    <glyph glyph-name="uni030B" unicode="&#x30b;" horiz-adv-x="0" 
d="M-117 490l75 191h82l-118 -191h-39zM69 490l75 191h82l-118 -191h-39z" />
    <glyph glyph-name="uni030C" unicode="&#x30c;" horiz-adv-x="0" 
d="M-32 490l-100 191h40l92 -123l92 123h40l-100 -191h-64z" />
    <glyph glyph-name="uni030D" unicode="&#x30d;" horiz-adv-x="0" 
d="M-24 490v191h48v-191h-48z" />
    <glyph glyph-name="uni030E" unicode="&#x30e;" horiz-adv-x="0" 
d="M52 490v191h48v-191h-48zM-100 490v191h48v-191h-48z" />
    <glyph glyph-name="uni030F" unicode="&#x30f;" horiz-adv-x="0" 
d="M42 681l75 -191h-39l-118 191h82zM-144 681l75 -191h-39l-118 191h82z" />
    <glyph glyph-name="uni0312" unicode="&#x312;" horiz-adv-x="0" 
d="M-33 496l66 161q6 14 18 14q19 0 19 -15q0 -6 -3 -21l-24 -139h-76z" />
    <glyph glyph-name="uni0313" unicode="&#x313;" horiz-adv-x="0" 
d="M77 671l-66 -161q-6 -14 -18 -14q-19 0 -19 15q0 6 3 21l24 139h76z" />
    <glyph glyph-name="uni0315" unicode="&#x315;" horiz-adv-x="0" 
d="M44 632l-66 -161q-6 -14 -18 -14q-19 0 -19 15q0 6 3 21l24 139h76z" />
    <glyph glyph-name="uni031B" unicode="&#x31b;" horiz-adv-x="0" 
d="M-72 391v41q47 0 65.5 18t18.5 57q0 20 -5 58h61q4 -24 4 -56q0 -65 -35.5 -91.5t-108.5 -26.5z" />
    <glyph glyph-name="uni0323" unicode="&#x323;" horiz-adv-x="0" 
d="M-41 -151v81h81v-81h-81z" />
    <glyph glyph-name="uni0324" unicode="&#x324;" horiz-adv-x="0" 
d="M-140 -151v81h81v-81h-81zM61 -151v81h81v-81h-81z" />
    <glyph glyph-name="uni0326" unicode="&#x326;" horiz-adv-x="0" 
d="M-31 -214q-19 0 -19 15q0 6 3 21l24 139h76l-66 -161q-6 -14 -18 -14z" />
    <glyph glyph-name="uni0327" unicode="&#x327;" horiz-adv-x="0" 
d="M7 -188q-49 0 -76 17l12 38q24 -12 51 -12q41 0 41 24q0 28 -78 47l16 74h39l-9 -44q91 -27 91 -80q0 -28 -22.5 -46t-64.5 -18z" />
    <glyph glyph-name="uni0328" unicode="&#x328;" horiz-adv-x="0" 
d="M-54 -188q-40 0 -64.5 17.5t-24.5 47.5q0 31 28 57t94 66h46q-59 -46 -82 -69.5t-23 -44.5q0 -29 39 -29q34 0 58 12l9 -38q-33 -19 -80 -19z" />
    <glyph glyph-name="uni032E" unicode="&#x32e;" horiz-adv-x="0" 
d="M0 -188q-59 0 -96.5 37t-52.5 79l28 17q48 -74 121 -74t121 74l28 -17q-15 -42 -52.5 -79t-96.5 -37z" />
    <glyph glyph-name="uni0331" unicode="&#x331;" horiz-adv-x="0" 
d="M-132 -138v54h265v-54h-265z" />
    <glyph glyph-name="uni0340" unicode="&#x340;" horiz-adv-x="0" 
d="M11 490l-120 191h80l77 -191h-37z" />
    <glyph glyph-name="uni0341" unicode="&#x341;" horiz-adv-x="0" 
d="M-47 490l77 191h80l-120 -191h-37z" />
    <glyph glyph-name="uni0342" unicode="&#x342;" horiz-adv-x="0" 
d="M-129 520l-30 14q15 46 43 80.5t63 34.5q30 0 67 -39q29 -29 46 -29q35 0 69 68l30 -14q-15 -46 -43 -80.5t-63 -34.5q-28 0 -66 38q-28 30 -47 30q-35 0 -69 -68z" />
    <glyph glyph-name="uni0343" unicode="&#x343;" horiz-adv-x="0" 
d="M77 671l-66 -161q-6 -14 -18 -14q-19 0 -19 15q0 6 3 21l24 139h76z" />
    <glyph glyph-name="tonos" unicode="&#x384;" 
d="M288 490l-27 191h78l-27 -191h-24z" />
    <glyph glyph-name="dieresistonos" unicode="&#x385;" 
d="M129 551v81h81v-81h-81zM287 490l-27 191h78l-27 -191h-24zM390 551v81h81v-81h-81z" />
    <glyph glyph-name="Alphatonos" unicode="&#x386;" 
d="M113 367l-27 191h78l-27 -191h-24zM77 0l198 558h70l198 -558h-70l-47 139h-233l-48 -139h-68zM245 297l-35 -103h197l-34 101l-64 197z" />
    <glyph glyph-name="Epsilontonos" unicode="&#x388;" 
d="M209 0v558h294v-55h-231v-190h197v-55h-197v-203h231v-55h-294zM78 367l-27 191h78l-27 -191h-24z" />
    <glyph glyph-name="Etatonos" unicode="&#x389;" 
d="M209 0v558h63v-245h171v245h63v-558h-63v258h-171v-258h-63zM78 367l-27 191h78l-27 -191h-24z" />
    <glyph glyph-name="Iotatonos" unicode="&#x38a;" 
d="M183 0v55h116v448h-116v55h295v-55h-116v-448h116v-55h-295zM78 367l-27 191h78l-27 -191h-24z" />
    <glyph glyph-name="Omicrontonos" unicode="&#x38c;" 
d="M340 -10q-88 0 -129.5 77t-41.5 213q0 135 42 212t128 77q88 0 129.5 -77t41.5 -213q0 -135 -42 -212t-128 -77zM340 45q107 0 107 234q0 235 -107 235q-108 0 -108 -235q0 -234 108 -234zM78 367l-27 191h78l-27 -191h-24z" />
    <glyph glyph-name="Upsilontonos" unicode="&#x38e;" 
d="M325 0v229l-171 329h67l70 -136l65 -136l64 136l69 136h67l-171 -332v-226h-60zM68 367l-27 191h78l-27 -191h-24z" />
    <glyph glyph-name="Omegatonos" unicode="&#x38f;" 
d="M162 0v53h94q-35 37 -61 102.5t-26 157.5q0 125 45 190.5t126 65.5q83 0 126.5 -66t43.5 -190q0 -92 -26 -157.5t-61 -102.5h94v-53h-145v49q75 120 75 264q0 93 -26 147.5t-81 54.5q-108 0 -108 -202q0 -144 75 -264v-49h-145zM78 367l-27 191h78l-27 -191h-24z" />
    <glyph glyph-name="iotadieresistonos" unicode="&#x390;" 
d="M125 551v81h81v-81h-81zM283 490l-27 191h78l-27 -191h-24zM386 551v81h81v-81h-81zM425 -10q-80 0 -119.5 39.5t-39.5 141.5v207h-160v54h219v-251q0 -76 22.5 -106.5t80.5 -30.5q48 0 86 13v-55q-39 -12 -89 -12z" />
    <glyph glyph-name="Alpha" unicode="&#x391;" 
d="M67 0l198 558h70l198 -558h-70l-47 139h-233l-48 -139h-68zM235 297l-35 -103h197l-34 101l-64 197z" />
    <glyph glyph-name="Beta" unicode="&#x392;" 
d="M134 0v558h160q85 0 139.5 -39.5t54.5 -109.5q0 -81 -82 -120q105 -36 105 -133q0 -71 -56.5 -113.5t-142.5 -42.5h-178zM197 258v-203h115q67 0 100.5 29.5t33.5 75.5q0 47 -35.5 72.5t-102.5 25.5h-111zM197 503v-190h88q138 0 138 92q0 46 -33 72t-100 26h-93z" />
    <glyph glyph-name="Gamma" unicode="&#x393;" 
d="M134 0v558h349v-55h-286v-503h-63z" />
    <glyph glyph-name="uni0394" unicode="&#x394;" 
d="M83 0v50l178 508h78l178 -508v-50h-434zM235 304l-84 -249h296l-83 248l-65 192z" />
    <glyph glyph-name="Epsilon" unicode="&#x395;" 
d="M134 0v558h344v-55h-281v-190h247v-55h-247v-203h281v-55h-344z" />
    <glyph glyph-name="Zeta" unicode="&#x396;" 
d="M107 0v50l308 453h-303v55h377v-50l-309 -453h312v-55h-385z" />
    <glyph glyph-name="Eta" unicode="&#x397;" 
d="M134 0v558h63v-245h206v245h63v-558h-63v258h-206v-258h-63z" />
    <glyph glyph-name="Theta" unicode="&#x398;" 
d="M299 -10q-104 0 -157 77.5t-53 209.5q0 135 54 213.5t158 78.5t157 -78t53 -210q0 -135 -54 -213t-158 -78zM300 46q146 0 146 233q0 234 -146 234t-146 -234q0 -233 146 -233zM206 253v54h188v-54h-188z" />
    <glyph glyph-name="Iota" unicode="&#x399;" 
d="M133 0v55h136v448h-136v55h335v-55h-136v-448h136v-55h-335z" />
    <glyph glyph-name="Kappa" unicode="&#x39a;" 
d="M134 0v558h63v-277l247 277h81l-216 -237l240 -321h-79l-201 277l-72 -78v-199h-63z" />
    <glyph glyph-name="Lambda" unicode="&#x39b;" 
d="M66 0l195 558h78l195 -558h-69l-102 303l-63 193l-64 -193l-102 -303h-68z" />
    <glyph glyph-name="Mu" unicode="&#x39c;" 
d="M100 0v558h91l71 -203l39 -123l39 123l71 203h89v-558h-59v357l3 142l-117 -339h-54l-117 339l3 -142v-357h-59z" />
    <glyph glyph-name="Nu" unicode="&#x39d;" 
d="M134 0v558h91l187 -495l-6 150v345h60v-558h-91l-187 495l6 -150v-345h-60z" />
    <glyph glyph-name="Xi" unicode="&#x39e;" 
d="M122 0v55h356v-55h-356zM164 258v55h272v-55h-272zM122 503v55h356v-55h-356z" />
    <glyph glyph-name="Omicron" unicode="&#x39f;" 
d="M299 -10q-104 0 -157 77.5t-53 209.5q0 135 54 213.5t158 78.5t157 -78t53 -210q0 -135 -54 -213t-158 -78zM300 46q146 0 146 233q0 234 -146 234t-146 -234q0 -233 146 -233z" />
    <glyph glyph-name="Pi" unicode="&#x3a0;" 
d="M134 0v558h332v-558h-63v503h-206v-503h-63z" />
    <glyph glyph-name="Rho" unicode="&#x3a1;" 
d="M134 0v558h148q109 0 168.5 -42.5t59.5 -127.5q0 -84 -59.5 -127t-168.5 -43h-85v-218h-63zM197 503v-230h86q162 0 162 115t-162 115h-86z" />
    <glyph glyph-name="Sigma" unicode="&#x3a3;" 
d="M118 0v52l234 227l-234 227v52h363v-55h-278l207 -203v-42l-207 -203h278v-55h-363z" />
    <glyph glyph-name="Tau" unicode="&#x3a4;" 
d="M268 0v503h-191v55h446v-55h-192v-503h-63z" />
    <glyph glyph-name="Upsilon" unicode="&#x3a5;" 
d="M269 0v226l-221 332h73l90 -136l91 -144l90 144l88 136h73l-221 -334v-224h-63z" />
    <glyph glyph-name="Phi" unicode="&#x3a6;" 
d="M269 0v49q-102 3 -165 68.5t-63 161.5q0 94 63.5 160.5t164.5 69.5v49h62v-49q102 -3 165 -68.5t63 -161.5q0 -94 -63.5 -160.5t-164.5 -69.5v-49h-62zM269 104v350q-81 -2 -122 -52t-41 -123t41 -123t122 -52zM331 104q81 2 122 52t41 123t-41 123t-122 52v-350z" />
    <glyph glyph-name="Chi" unicode="&#x3a7;" 
d="M63 0l199 287l-188 271h76l89 -134l60 -91l60 91l89 134h78l-188 -271l199 -287h-76l-100 150l-60 91l-60 -91l-100 -150h-78z" />
    <glyph glyph-name="Psi" unicode="&#x3a8;" 
d="M269 0v188q-104 0 -155.5 53.5t-51.5 145.5v171h62v-164q0 -70 31.5 -111t113.5 -41v316h62v-316q82 0 113.5 41t31.5 111v164h62v-171q0 -91 -52 -145t-155 -54v-188h-62z" />
    <glyph glyph-name="uni03A9" unicode="&#x3a9;" 
d="M89 0v55h115q-42 34 -74 99.5t-32 158.5q0 126 51.5 191t150.5 65q202 0 202 -256q0 -93 -32 -158.5t-74 -99.5h115v-55h-171v53q98 119 98 260q0 201 -138 201t-138 -201q0 -141 98 -260v-53h-171z" />
    <glyph glyph-name="Iotadieresis" unicode="&#x3aa;" 
d="M159 658v81h81v-81h-81zM360 658v81h81v-81h-81zM133 0v55h136v448h-136v55h335v-55h-136v-448h136v-55h-335z" />
    <glyph glyph-name="Upsilondieresis" unicode="&#x3ab;" 
d="M160 658v81h81v-81h-81zM361 658v81h81v-81h-81zM269 0v226l-221 332h73l90 -136l91 -144l90 144l88 136h73l-221 -334v-224h-63z" />
    <glyph glyph-name="alphatonos" unicode="&#x3ac;" 
d="M272 490l-27 191h78l-27 -191h-24zM268 -10q-74 0 -121 57t-47 168q0 112 48 169.5t121 57.5q53 0 89 -24.5t54 -54.5v69h54v-367q0 -13 5.5 -17.5t20.5 -4.5q22 0 53 7v-46q-35 -14 -69 -14q-64 0 -64 63v16q-17 -29 -53 -54t-91 -25zM278 45q45 0 78.5 22t50.5 49v200
q-17 27 -50.5 49t-78.5 22q-62 0 -89.5 -48t-27.5 -123t27.5 -123t89.5 -48z" />
    <glyph glyph-name="epsilontonos" unicode="&#x3ad;" 
d="M297 490l-27 191h78l-27 -191h-24zM304 -10q-85 0 -132 32.5t-47 92.5q0 41 24 72t68 40q-83 25 -83 99q0 56 47.5 86t123.5 30q75 0 123 -32.5t50 -106.5h-57q-5 87 -119 87q-108 0 -108 -67q0 -70 112 -70h28v-51h-28q-54 0 -87 -21.5t-33 -62.5q0 -76 118 -76t123 87
h57q-2 -71 -50.5 -105t-129.5 -34z" />
    <glyph glyph-name="etatonos" unicode="&#x3ae;" 
d="M287 490l-27 191h78l-27 -191h-24zM408 -178v428q0 72 -21 105.5t-79 33.5q-74 0 -115 -47v-342h-59v432h47v-55q45 65 141 65q145 0 145 -177v-443h-59z" />
    <glyph glyph-name="iotatonos" unicode="&#x3af;" 
d="M284 490l-27 191h78l-27 -191h-24zM425 -10q-80 0 -119.5 39.5t-39.5 141.5v207h-160v54h219v-251q0 -76 22.5 -106.5t80.5 -30.5q48 0 86 13v-55q-39 -12 -89 -12z" />
    <glyph glyph-name="upsilondieresistonos" unicode="&#x3b0;" 
d="M129 551v81h81v-81h-81zM287 490l-27 191h78l-27 -191h-24zM390 551v81h81v-81h-81zM300 -10q-79 0 -122.5 37.5t-43.5 139.5v265h59v-250q0 -73 22 -106t85 -33t85 33t22 106v250h59v-265q0 -99 -44 -138t-122 -39z" />
    <glyph glyph-name="alpha" unicode="&#x3b1;" 
d="M268 -10q-74 0 -121 57t-47 168q0 112 48 169.5t121 57.5q53 0 89 -24.5t54 -54.5v69h54v-367q0 -13 5.5 -17.5t20.5 -4.5q22 0 53 7v-46q-35 -14 -69 -14q-64 0 -64 63v16q-17 -29 -53 -54t-91 -25zM278 45q45 0 78.5 22t50.5 49v200q-17 27 -50.5 49t-78.5 22
q-62 0 -89.5 -48t-27.5 -123t27.5 -123t89.5 -48z" />
    <glyph glyph-name="beta" unicode="&#x3b2;" 
d="M128 -178v613q0 105 47.5 156t133.5 51q81 0 127.5 -41t46.5 -113q0 -39 -14 -70t-39 -50t-45 -29t-46 -19q29 -8 54.5 -20.5t53 -33t43.5 -51.5t16 -69q0 -69 -50 -112.5t-131 -43.5q-82 0 -138 37v-205h-59zM187 438v-360q59 -33 132 -33q58 0 92.5 25.5t34.5 74.5
q0 57 -46 92.5t-135 61.5v40q84 25 121 58.5t37 87.5q0 50 -28.5 77.5t-84.5 27.5q-63 0 -93 -37t-30 -115z" />
    <glyph glyph-name="gamma" unicode="&#x3b3;" 
d="M270 -178v171l-187 439h65l93 -228l60 -147l60 147l92 228h64l-188 -442v-168h-59z" />
    <glyph glyph-name="delta" unicode="&#x3b4;" 
d="M300 -10q-84 0 -142 51.5t-58 154.5q0 102 55.5 154t132.5 52q56 0 90 -28l1 1l-45 37l-193 176v44h327v-53h-243l158 -143q62 -56 89.5 -110.5t27.5 -122.5q0 -107 -57.5 -160t-142.5 -53zM300 43q75 0 107.5 43t32.5 110q0 153 -141 153q-139 0 -139 -151
q0 -155 140 -155z" />
    <glyph glyph-name="epsilon" unicode="&#x3b5;" 
d="M304 -10q-85 0 -132 32.5t-47 92.5q0 41 24 72t68 40q-83 25 -83 99q0 56 47.5 86t123.5 30q75 0 123 -32.5t50 -106.5h-57q-5 87 -119 87q-108 0 -108 -67q0 -70 112 -70h28v-51h-28q-54 0 -87 -21.5t-33 -62.5q0 -76 118 -76t123 87h57q-2 -71 -50.5 -105t-129.5 -34z
" />
    <glyph glyph-name="zeta" unicode="&#x3b6;" 
d="M424 -170l-33 33q29 26 40.5 43t11.5 39q0 29 -24.5 44.5t-93.5 35.5q-33 9 -53 16t-46.5 21t-41 30.5t-25 43.5t-10.5 61q0 67 37 119t139 151l114 111h-271v54h357v-44l-155 -153q-41 -40 -57 -57t-42 -46t-35.5 -46t-17.5 -40.5t-8 -46.5q0 -29 10 -50t32 -35
t40.5 -21t53.5 -17q85 -24 109 -38q49 -29 49 -84q0 -75 -80 -124z" />
    <glyph glyph-name="eta" unicode="&#x3b7;" 
d="M408 -178v428q0 72 -21 105.5t-79 33.5q-74 0 -115 -47v-342h-59v432h47v-55q45 65 141 65q145 0 145 -177v-443h-59z" />
    <glyph glyph-name="theta" unicode="&#x3b8;" 
d="M300 -10q-187 0 -187 252v146q0 254 187 254t187 -252v-146q0 -254 -187 -254zM300 45q69 0 99 50.5t30 160.5v33h-258v-33q0 -110 30 -160.5t99 -50.5zM171 376v-33h258v33q0 110 -30 160.5t-99 50.5t-99 -50.5t-30 -160.5z" />
    <glyph glyph-name="iota" unicode="&#x3b9;" 
d="M425 -10q-80 0 -119.5 39.5t-39.5 141.5v207h-160v54h219v-251q0 -76 22.5 -106.5t80.5 -30.5q48 0 86 13v-55q-39 -12 -89 -12z" />
    <glyph glyph-name="kappa" unicode="&#x3ba;" 
d="M134 0v432h59v-206l242 206h77l-194 -163l203 -269h-73l-171 235l-84 -70v-165h-59z" />
    <glyph glyph-name="lambda" unicode="&#x3bb;" 
d="M94 0l189 382l-33 74q-30 68 -73.5 97.5t-111.5 29.5v54q86 0 140.5 -33.5t98.5 -127.5l224 -476h-64l-92 200l-57 125l-63 -129l-95 -196h-63z" />
    <glyph glyph-name="uni03BC" unicode="&#x3bc;" 
d="M134 -178v610h59v-378h84q77 0 115 46v332h59v-367q0 -13 5.5 -17.5t19.5 -4.5q23 0 54 7v-46q-35 -14 -70 -14q-60 0 -60 57v15q-13 -24 -47.5 -43t-87.5 -19h-72v-178h-59z" />
    <glyph glyph-name="nu" unicode="&#x3bd;" 
d="M265 0l-184 432h65l87 -214l66 -161l61 151l91 224h64l-184 -432h-66z" />
    <glyph glyph-name="xi" unicode="&#x3be;" 
d="M399 -170l-33 33q29 26 40.5 43t11.5 39q0 30 -24.5 45.5t-93.5 34.5q-40 11 -66 22t-54 29.5t-42 48t-14 68.5q0 117 117 161q-106 31 -106 136q0 69 46 110.5t135 41.5q78 0 127.5 -34t54.5 -102h-58q-13 82 -123 82q-122 0 -122 -98q0 -29 12 -49.5t27.5 -31
t43.5 -15.5t46 -6t49 -1h58v-53h-60q-85 0 -135.5 -38.5t-50.5 -99.5q0 -24 9 -43t20.5 -30t33.5 -21.5t34.5 -14.5t38.5 -11q87 -24 113 -41q44 -30 45 -81q0 -75 -80 -124z" />
    <glyph glyph-name="omicron" unicode="&#x3bf;" 
d="M299 -10q-38 0 -71.5 11t-63 35.5t-47 70.5t-17.5 108q0 121 59 174t142 53q38 0 71.5 -11t63 -35.5t47 -70.5t17.5 -108q0 -121 -59 -174t-142 -53zM300 45q139 0 139 171t-139 171t-139 -171t139 -171z" />
    <glyph glyph-name="pi" unicode="&#x3c0;" 
d="M149 0v378h-69v54h440v-54h-69v-378h-59v378h-184v-378h-59z" />
    <glyph glyph-name="rho" unicode="&#x3c1;" 
d="M129 -178v389q0 120 51.5 175.5t136.5 55.5q83 0 135.5 -52t52.5 -169q0 -64 -17 -111.5t-45 -72t-58.5 -36t-63.5 -11.5q-85 0 -133 56v-224h-59zM307 45q65 0 101 43.5t36 130.5q0 80 -32.5 124t-95.5 44q-128 0 -128 -171v-125q46 -46 119 -46z" />
    <glyph glyph-name="sigma1" unicode="&#x3c2;" 
d="M384 -170l-33 33q29 26 40.5 43t11.5 39q0 29 -24 44t-94 36q-82 25 -128.5 70.5t-46.5 137.5q0 102 57 155.5t143 53.5q70 0 119 -38t54 -125h-60q-10 109 -115 109q-68 0 -103 -43.5t-35 -111.5q0 -69 35 -103t101 -54q6 -2 30.5 -9t33 -10t28 -11t27.5 -15t19.5 -18.5
t15.5 -26t4 -32.5q0 -75 -80 -124z" />
    <glyph glyph-name="sigma" unicode="&#x3c3;" 
d="M293 -10q-38 0 -72 11t-63.5 35.5t-47 69.5t-17.5 106q0 64 19 109.5t52 68.5t68 32.5t76 9.5h225v-54h-109q69 -60 69 -167q0 -116 -58.5 -168.5t-141.5 -52.5zM432 212q0 111 -62 166h-56q-82 0 -121 -38t-39 -125q0 -170 139 -170q68 0 103.5 42.5t35.5 124.5z" />
    <glyph glyph-name="tau" unicode="&#x3c4;" 
d="M380 -10q-82 0 -120.5 40t-38.5 141v207h-144v54h415v-54h-212v-197q0 -75 22 -106t80 -31q47 0 99 16v-54q-44 -16 -101 -16z" />
    <glyph glyph-name="upsilon" unicode="&#x3c5;" 
d="M300 -10q-79 0 -122.5 37.5t-43.5 139.5v265h59v-250q0 -73 22 -106t85 -33t85 33t22 106v250h59v-265q0 -99 -44 -138t-122 -39z" />
    <glyph glyph-name="phi" unicode="&#x3c6;" 
d="M270 -178v168q-200 0 -200 212q0 69 19.5 133t45.5 97h64q-72 -100 -72 -226q0 -87 35 -126.5t108 -39.5v175q0 69 9.5 115.5t28 70t38.5 32.5t47 9q136 0 136 -203q0 -249 -203 -249v-168h-56zM326 217v-177q78 0 112 47.5t34 146.5q0 158 -75 158q-38 0 -54.5 -43
t-16.5 -132z" />
    <glyph glyph-name="chi" unicode="&#x3c7;" 
d="M68 -178l196 314l-187 296h69l154 -251l154 251h66l-187 -298l198 -312h-69l-165 265l-163 -265h-66z" />
    <glyph glyph-name="psi" unicode="&#x3c8;" 
d="M272 -178v168q-80 0 -133.5 45.5t-53.5 144.5v252h57v-240q0 -150 130 -150v390h56v-390q130 0 130 150v240h57v-250q0 -102 -54 -147t-133 -45v-168h-56z" />
    <glyph glyph-name="omega" unicode="&#x3c9;" 
d="M195 -10q-69 0 -100.5 57.5t-31.5 148.5q0 74 18.5 137t46.5 99h64q-72 -102 -72 -233q0 -159 79 -159q74 0 74 147v115h54v-115q0 -147 74 -147q79 0 79 159q0 131 -72 233h64q28 -36 46.5 -99t18.5 -137q0 -91 -31.5 -148.5t-100.5 -57.5q-78 0 -105 70
q-29 -70 -105 -70z" />
    <glyph glyph-name="iotadieresis" unicode="&#x3ca;" 
d="M155 551v81h81v-81h-81zM356 551v81h81v-81h-81zM425 -10q-80 0 -119.5 39.5t-39.5 141.5v207h-160v54h219v-251q0 -76 22.5 -106.5t80.5 -30.5q48 0 86 13v-55q-39 -12 -89 -12z" />
    <glyph glyph-name="upsilondieresis" unicode="&#x3cb;" 
d="M159 551v81h81v-81h-81zM360 551v81h81v-81h-81zM300 -10q-79 0 -122.5 37.5t-43.5 139.5v265h59v-250q0 -73 22 -106t85 -33t85 33t22 106v250h59v-265q0 -99 -44 -138t-122 -39z" />
    <glyph glyph-name="omicrontonos" unicode="&#x3cc;" 
d="M288 490l-27 191h78l-27 -191h-24zM299 -10q-38 0 -71.5 11t-63 35.5t-47 70.5t-17.5 108q0 121 59 174t142 53q38 0 71.5 -11t63 -35.5t47 -70.5t17.5 -108q0 -121 -59 -174t-142 -53zM300 45q139 0 139 171t-139 171t-139 -171t139 -171z" />
    <glyph glyph-name="upsilontonos" unicode="&#x3cd;" 
d="M288 490l-27 191h78l-27 -191h-24zM300 -10q-79 0 -122.5 37.5t-43.5 139.5v265h59v-250q0 -73 22 -106t85 -33t85 33t22 106v250h59v-265q0 -99 -44 -138t-122 -39z" />
    <glyph glyph-name="omegatonos" unicode="&#x3ce;" 
d="M288 490l-27 191h78l-27 -191h-24zM195 -10q-69 0 -100.5 57.5t-31.5 148.5q0 74 18.5 137t46.5 99h64q-72 -102 -72 -233q0 -159 79 -159q74 0 74 147v115h54v-115q0 -147 74 -147q79 0 79 159q0 131 -72 233h64q28 -36 46.5 -99t18.5 -137q0 -91 -31.5 -148.5
t-100.5 -57.5q-78 0 -105 70q-29 -70 -105 -70z" />
    <glyph glyph-name="uni0400" unicode="&#x400;" 
d="M320 597l-120 191h80l77 -191h-37zM134 0v558h344v-55h-281v-190h247v-55h-247v-203h281v-55h-344z" />
    <glyph glyph-name="uni0401" unicode="&#x401;" 
d="M168 658v81h81v-81h-81zM369 658v81h81v-81h-81zM134 0v558h344v-55h-281v-190h247v-55h-247v-203h281v-55h-344z" />
    <glyph glyph-name="uni0402" unicode="&#x402;" 
d="M341 -6q-29 0 -42 3v55q17 -3 37 -3q61 0 91.5 28t30.5 74q0 51 -35.5 79t-102.5 28h-73v-258h-63v503h-147v55h357v-55h-147v-190h77q88 0 143.5 -42.5t55.5 -117.5q0 -71 -51 -115t-131 -44z" />
    <glyph glyph-name="uni0403" unicode="&#x403;" 
d="M265 597l77 191h80l-120 -191h-37zM134 0v558h349v-55h-286v-503h-63z" />
    <glyph glyph-name="uni0404" unicode="&#x404;" 
d="M310 -10q-108 0 -164.5 73.5t-56.5 214.5q0 142 57.5 216.5t168.5 74.5q35 0 66 -8t60.5 -26.5t48 -55.5t20.5 -89h-63q-15 125 -133 125q-149 0 -159 -202h269v-55h-270q6 -214 160 -214q118 0 133 125h63q-4 -94 -61.5 -136.5t-138.5 -42.5z" />
    <glyph glyph-name="uni0405" unicode="&#x405;" 
d="M300 -10q-91 0 -145.5 42.5t-54.5 123.5h63q3 -52 38.5 -80.5t100.5 -28.5q61 0 98 25.5t37 72.5q0 62 -84 91l-119 42q-123 43 -123 144q0 70 52.5 108.5t133.5 38.5q83 0 133.5 -41.5t50.5 -122.5h-62q-4 107 -124 107q-58 0 -88.5 -24.5t-30.5 -64.5q0 -60 76 -87
l119 -42q69 -24 99.5 -57t30.5 -88q0 -79 -56 -119t-145 -40z" />
    <glyph glyph-name="uni0406" unicode="&#x406;" 
d="M133 0v55h136v448h-136v55h335v-55h-136v-448h136v-55h-335z" />
    <glyph glyph-name="uni0407" unicode="&#x407;" 
d="M159 658v81h81v-81h-81zM360 658v81h81v-81h-81zM133 0v55h136v448h-136v55h335v-55h-136v-448h136v-55h-335z" />
    <glyph glyph-name="uni0408" unicode="&#x408;" 
d="M293 -10q-95 0 -141 50.5t-46 136.5q0 21 2 34h63q-2 -14 -2 -36q0 -129 123 -129q68 0 95.5 40.5t27.5 121.5v350h63v-350q0 -109 -44.5 -163.5t-140.5 -54.5z" />
    <glyph glyph-name="uni0409" unicode="&#x409;" 
d="M17 -5v53q64 0 91.5 35t32.5 119l18 356h222v-245h15q87 0 143 -41.5t56 -113.5q0 -73 -56 -115.5t-143 -42.5h-76v504h-102l-16 -313q-5 -98 -46 -147t-139 -49zM381 259v-205h13q67 0 102.5 27.5t35.5 75.5t-35.5 75t-102.5 27h-13z" />
    <glyph glyph-name="uni040A" unicode="&#x40a;" 
d="M55 0v558h61v-245h158v245h61v-245h44q87 0 143 -41.5t56 -113.5q0 -73 -56 -115.5t-143 -42.5h-105v259h-158v-259h-61zM335 259v-205h42q67 0 102.5 27.5t35.5 75.5t-35.5 75t-102.5 27h-42z" />
    <glyph glyph-name="uni040B" unicode="&#x40b;" 
d="M184 0v503h-147v55h357v-55h-147v-198q60 13 114 13q86 0 124 -42.5t38 -134.5v-141h-63v135q0 71 -22.5 99t-91.5 28q-48 0 -99 -11v-251h-63z" />
    <glyph glyph-name="uni040C" unicode="&#x40c;" 
d="M282 597l77 191h80l-120 -191h-37zM134 0v558h63v-277l247 277h81l-216 -237l240 -321h-79l-201 277l-72 -78v-199h-63z" />
    <glyph glyph-name="uni040D" unicode="&#x40d;" 
d="M311 597l-120 191h80l77 -191h-37zM134 0v558h60v-345l-6 -150l187 495h91v-558h-60v345l6 150l-187 -495h-91z" />
    <glyph glyph-name="uni040E" unicode="&#x40e;" 
d="M312 635q-59 0 -96.5 37t-52.5 79l28 17q48 -74 121 -74t121 74l28 -17q-15 -42 -52.5 -79t-96.5 -37zM129 -5v56q62 0 101.5 22.5t67.5 74.5l-230 410h79l117 -222l68 -131l51 131l90 222h70l-158 -376q-43 -102 -102 -144.5t-154 -42.5z" />
    <glyph glyph-name="uni040F" unicode="&#x40f;" 
d="M268 -132v132h-134v558h63v-503h206v503h63v-558h-135v-132h-63z" />
    <glyph glyph-name="uni0410" unicode="&#x410;" 
d="M67 0l198 558h70l198 -558h-70l-47 139h-233l-48 -139h-68zM235 297l-35 -103h197l-34 101l-64 197z" />
    <glyph glyph-name="uni0411" unicode="&#x411;" 
d="M134 0v558h349v-55h-286v-190h115q87 0 143 -41.5t56 -113.5q0 -73 -56 -115.5t-143 -42.5h-178zM197 258v-203h111q67 0 102.5 27t35.5 75t-35.5 74.5t-102.5 26.5h-111z" />
    <glyph glyph-name="uni0412" unicode="&#x412;" 
d="M134 0v558h160q85 0 139.5 -39.5t54.5 -109.5q0 -81 -82 -120q105 -36 105 -133q0 -71 -56.5 -113.5t-142.5 -42.5h-178zM197 258v-203h115q67 0 100.5 29.5t33.5 75.5q0 47 -35.5 72.5t-102.5 25.5h-111zM197 503v-190h88q138 0 138 92q0 46 -33 72t-100 26h-93z" />
    <glyph glyph-name="uni0413" unicode="&#x413;" 
d="M134 0v558h349v-55h-286v-503h-63z" />
    <glyph glyph-name="uni0414" unicode="&#x414;" 
d="M27 -132v186q73 0 97.5 24t36.5 107l53 373h262v-504h77v-186h-63v132h-400v-132h-63zM174 54h240v449h-145l-46 -327q-14 -94 -49 -122z" />
    <glyph glyph-name="uni0415" unicode="&#x415;" 
d="M134 0v558h344v-55h-281v-190h247v-55h-247v-203h281v-55h-344z" />
    <glyph glyph-name="uni0416" unicode="&#x416;" 
d="M0 0l172 336l-156 222h72l137 -204l45 -68v272h60v-272l45 68l137 204h72l-156 -222l172 -336h-65l-146 289l-59 -74v-215h-60v214l-60 75l-145 -289h-65z" />
    <glyph glyph-name="uni0417" unicode="&#x417;" 
d="M298 -10q-89 0 -146 43.5t-61 133.5h62q8 -123 145 -123q61 0 97.5 27.5t36.5 79.5q0 55 -40.5 85t-105.5 30h-11v51h11q133 0 133 97q0 46 -34.5 73.5t-89.5 27.5q-129 0 -138 -123h-62q5 91 61 134t140 43q85 0 136.5 -43.5t51.5 -111.5q0 -88 -89 -121
q48 -17 75 -54.5t27 -87.5q0 -72 -52.5 -116.5t-146.5 -44.5z" />
    <glyph glyph-name="uni0418" unicode="&#x418;" 
d="M134 0v558h60v-345l-6 -150l187 495h91v-558h-60v345l6 150l-187 -495h-91z" />
    <glyph glyph-name="uni0419" unicode="&#x419;" 
d="M300 635q-59 0 -96.5 37t-52.5 79l28 17q48 -74 121 -74t121 74l28 -17q-15 -42 -52.5 -79t-96.5 -37zM134 0v558h60v-345l-6 -150l187 495h91v-558h-60v345l6 150l-187 -495h-91z" />
    <glyph glyph-name="uni041A" unicode="&#x41a;" 
d="M134 0v558h63v-277l247 277h81l-216 -237l240 -321h-79l-201 277l-72 -78v-199h-63z" />
    <glyph glyph-name="uni041B" unicode="&#x41b;" 
d="M17 -5v55q64 0 88 26t36 109l53 373h272v-558h-63v503h-154l-46 -327q-14 -98 -51 -139.5t-135 -41.5z" />
    <glyph glyph-name="uni041C" unicode="&#x41c;" 
d="M100 0v558h91l71 -203l39 -123l39 123l71 203h89v-558h-59v357l3 142l-117 -339h-54l-117 339l3 -142v-357h-59z" />
    <glyph glyph-name="uni041D" unicode="&#x41d;" 
d="M134 0v558h63v-245h206v245h63v-558h-63v258h-206v-258h-63z" />
    <glyph glyph-name="uni041E" unicode="&#x41e;" 
d="M299 -10q-104 0 -157 77.5t-53 209.5q0 135 54 213.5t158 78.5t157 -78t53 -210q0 -135 -54 -213t-158 -78zM300 46q146 0 146 233q0 234 -146 234t-146 -234q0 -233 146 -233z" />
    <glyph glyph-name="uni041F" unicode="&#x41f;" 
d="M134 0v558h332v-558h-63v503h-206v-503h-63z" />
    <glyph glyph-name="uni0420" unicode="&#x420;" 
d="M134 0v558h148q109 0 168.5 -42.5t59.5 -127.5q0 -84 -59.5 -127t-168.5 -43h-85v-218h-63zM197 503v-230h86q162 0 162 115t-162 115h-86z" />
    <glyph glyph-name="uni0421" unicode="&#x421;" 
d="M310 -10q-108 0 -164.5 73.5t-56.5 214.5q0 142 57.5 216.5t168.5 74.5q35 0 66 -8t60.5 -26.5t48 -55.5t20.5 -89h-63q-15 125 -133 125q-160 0 -160 -236q0 -235 160 -235q118 0 133 125h63q-4 -94 -61.5 -136.5t-138.5 -42.5z" />
    <glyph glyph-name="uni0422" unicode="&#x422;" 
d="M268 0v503h-191v55h446v-55h-192v-503h-63z" />
    <glyph glyph-name="uni0423" unicode="&#x423;" 
d="M129 -5v56q62 0 101.5 22.5t67.5 74.5l-230 410h79l117 -222l68 -131l51 131l90 222h70l-158 -376q-43 -102 -102 -144.5t-154 -42.5z" />
    <glyph glyph-name="uni0424" unicode="&#x424;" 
d="M269 0v79q-106 0 -167 55.5t-61 143.5t61.5 144.5t166.5 56.5v79h62v-79q106 0 167 -55.5t61 -143.5t-61.5 -144.5t-166.5 -56.5v-79h-62zM269 134v290q-84 0 -123.5 -40t-39.5 -105t39.5 -105t123.5 -40zM331 424v-290q84 0 123.5 40t39.5 105t-39.5 105t-123.5 40z" />
    <glyph glyph-name="uni0425" unicode="&#x425;" 
d="M63 0l199 287l-188 271h76l89 -134l60 -91l60 91l89 134h78l-188 -271l199 -287h-76l-100 150l-60 91l-60 -91l-100 -150h-78z" />
    <glyph glyph-name="uni0426" unicode="&#x426;" 
d="M446 -132v132h-312v558h63v-503h206v503h63v-503h43v-187h-63z" />
    <glyph glyph-name="uni0427" unicode="&#x427;" 
d="M403 0v253q-60 -13 -115 -13q-85 0 -123 42.5t-38 134.5v141h63v-135q0 -71 22.5 -99t91.5 -28q48 0 99 11v251h63v-558h-63z" />
    <glyph glyph-name="uni0428" unicode="&#x428;" 
d="M62 0v558h62v-503h145v503h62v-503h145v503h62v-558h-476z" />
    <glyph glyph-name="uni0429" unicode="&#x429;" 
d="M518 -132v132h-456v558h62v-503h145v503h62v-503h145v503h62v-503h43v-187h-63z" />
    <glyph glyph-name="uni042A" unicode="&#x42a;" 
d="M219 0v503h-142v55h205v-245h30q87 0 143 -41.5t56 -113.5q0 -73 -56 -115.5t-143 -42.5h-93zM282 258v-203h26q67 0 102.5 27t35.5 75t-35.5 74.5t-102.5 26.5h-26z" />
    <glyph glyph-name="uni042B" unicode="&#x42b;" 
d="M90 0v558h63v-245h30q87 0 143 -41.5t56 -113.5q0 -73 -56 -115.5t-143 -42.5h-93zM153 258v-203h26q67 0 102.5 27t35.5 75t-35.5 74.5t-102.5 26.5h-26zM447 0v558h63v-558h-63z" />
    <glyph glyph-name="uni042C" unicode="&#x42c;" 
d="M134 0v558h63v-245h115q87 0 143 -41.5t56 -113.5q0 -73 -56 -115.5t-143 -42.5h-178zM197 258v-203h111q67 0 102.5 27t35.5 75t-35.5 74.5t-102.5 26.5h-111z" />
    <glyph glyph-name="uni042D" unicode="&#x42d;" 
d="M285 -10q-35 0 -66 8t-60.5 26.5t-48 55.5t-20.5 89h63q15 -125 133 -125q153 0 159 214h-269v55h269q-10 202 -159 202q-118 0 -133 -125h-63q4 94 61.5 136.5t138.5 42.5q108 0 164.5 -73.5t56.5 -214.5q0 -142 -57.5 -216.5t-168.5 -74.5z" />
    <glyph glyph-name="uni042E" unicode="&#x42e;" 
d="M380 -10q-90 0 -127.5 71t-40.5 197h-84v-258h-63v558h63v-245h84q5 120 43.5 188t126.5 68q49 0 83 -21.5t52.5 -62.5t26.5 -90t8 -113q0 -292 -172 -292zM381 45q61 0 83.5 60.5t22.5 174.5t-22.5 174t-83.5 60t-83.5 -60.5t-22.5 -174.5t22.5 -174t83.5 -60z" />
    <glyph glyph-name="uni042F" unicode="&#x42f;" 
d="M72 0l186 227q-71 16 -110 58t-39 107q0 81 60 123.5t168 42.5h129v-558h-63v220h-77l-174 -220h-80zM336 273h67v230h-67q-84 0 -123 -31.5t-39 -83.5t39 -83.5t123 -31.5z" />
    <glyph glyph-name="uni0430" unicode="&#x430;" 
d="M244 -10q-66 0 -106 30t-40 91q0 68 48 96t119 28t127 -18v40q0 32 -3 52t-13.5 40.5t-33.5 30t-60 9.5q-117 0 -117 -100h-59q0 45 17 77t46 47.5t57.5 22t60.5 6.5q164 0 164 -168v-209q0 -13 5.5 -17.5t19.5 -4.5q23 0 54 7v-46q-35 -14 -70 -14q-60 0 -60 57v8
q-50 -65 -156 -65zM248 44q82 0 144 46v82q-51 12 -119 12q-58 0 -87.5 -16.5t-29.5 -55.5q0 -68 92 -68z" />
    <glyph glyph-name="uni0431" unicode="&#x431;" 
d="M298 -10q-98 0 -151 68q-47 60 -47 206q0 111 20.5 178.5t53 96t87.5 43.5l209 55v-57l-182 -48q-66 -17 -93 -54.5t-35 -108.5q44 73 144 73q83 0 139.5 -52.5t56.5 -171.5q0 -64 -18 -111t-48.5 -71t-64 -35t-71.5 -11zM300 45q139 0 139 171t-139 171t-139 -171
t139 -171z" />
    <glyph glyph-name="uni0432" unicode="&#x432;" 
d="M134 0v432h167q76 0 119 -30.5t43 -85.5q0 -62 -59 -90q37 -12 58.5 -39.5t21.5 -65.5q0 -55 -44 -88t-122 -33h-184zM193 195v-143h122q109 0 109 72q0 36 -26 53.5t-87 17.5h-118zM193 380v-133h97q62 0 87 15t25 50q0 32 -23.5 50t-84.5 18h-101z" />
    <glyph glyph-name="uni0433" unicode="&#x433;" 
d="M154 0v432h309v-54h-250v-378h-59z" />
    <glyph glyph-name="uni0434" unicode="&#x434;" 
d="M46 -112v164h11q52 0 72 18t29 76l45 286h266v-380h65v-164h-59v112h-370v-112h-59zM178 52h233v328h-157l-38 -243q-11 -67 -38 -85z" />
    <glyph glyph-name="uni0435" unicode="&#x435;" 
d="M304 -10q-88 0 -146 55.5t-58 169.5q0 62 18 108t49 71t65 36.5t72 11.5q36 0 69 -11t63.5 -35t48.5 -70t18 -109v-14h-344q8 -161 148 -161q56 0 91.5 25.5t44.5 72.5h59q-7 -55 -42 -90.5t-74 -47.5t-82 -12zM160 252h282q-16 138 -142 138q-127 0 -140 -138z" />
    <glyph glyph-name="uni0436" unicode="&#x436;" 
d="M0 0l185 244l-176 188h70l123 -131l70 -82v213h56v-213l71 82l122 131h70l-177 -188l186 -244h-68l-156 209l-48 -48v-161h-56v161l-49 48l-155 -209h-68z" />
    <glyph glyph-name="uni0437" unicode="&#x437;" 
d="M301 -10q-84 0 -132 34.5t-50 104.5h57q5 -87 124 -87q117 0 117 73q0 39 -33 59t-87 20h-28v51h28q52 0 82 19t30 55q0 71 -113 71q-109 0 -114 -87h-57q2 73 49.5 106t122.5 33q78 0 125 -32t47 -89q0 -77 -83 -102q44 -9 68 -38t24 -70q0 -58 -47 -89.5t-130 -31.5z
" />
    <glyph glyph-name="uni0438" unicode="&#x438;" 
d="M134 0v432h56v-246l-4 -123l204 369h77v-432h-56v246l4 123l-204 -369h-77z" />
    <glyph glyph-name="uni0439" unicode="&#x439;" 
d="M300 528q-59 0 -96.5 37t-52.5 79l28 17q48 -74 121 -74t121 74l28 -17q-15 -42 -52.5 -79t-96.5 -37zM134 0v432h56v-246l-4 -123l204 369h77v-432h-56v246l4 123l-204 -369h-77z" />
    <glyph glyph-name="uni043A" unicode="&#x43a;" 
d="M134 0v432h59v-206l242 206h77l-194 -163l203 -269h-73l-171 235l-84 -70v-165h-59z" />
    <glyph glyph-name="uni043B" unicode="&#x43b;" 
d="M54 -5v54q59 0 81.5 23t32.5 98l37 262h262v-432h-59v378h-152l-30 -216q-13 -90 -47.5 -128.5t-124.5 -38.5z" />
    <glyph glyph-name="uni043C" unicode="&#x43c;" 
d="M112 0v432h86l70 -175l33 -94l32 94l70 175h85v-432h-56v269l4 112l-111 -278h-50l-111 278l4 -112v-269h-56z" />
    <glyph glyph-name="uni043D" unicode="&#x43d;" 
d="M134 0v432h59v-185h215v185h59v-432h-59v193h-215v-193h-59z" />
    <glyph glyph-name="uni043E" unicode="&#x43e;" 
d="M299 -10q-38 0 -71.5 11t-63 35.5t-47 70.5t-17.5 108q0 121 59 174t142 53q38 0 71.5 -11t63 -35.5t47 -70.5t17.5 -108q0 -121 -59 -174t-142 -53zM300 45q139 0 139 171t-139 171t-139 -171t139 -171z" />
    <glyph glyph-name="uni043F" unicode="&#x43f;" 
d="M134 0v432h333v-432h-59v378h-215v-378h-59z" />
    <glyph glyph-name="uni0440" unicode="&#x440;" 
d="M134 -178v610h47v-55q52 65 139 65q76 0 128 -55t52 -169q0 -112 -51 -170t-128 -58t-128 56v-224h-59zM308 45q66 0 98.5 46t32.5 125t-32.5 125t-98.5 46q-69 0 -115 -46v-250q46 -46 115 -46z" />
    <glyph glyph-name="uni0441" unicode="&#x441;" 
d="M304 -10q-38 0 -71.5 11t-64.5 35t-49.5 70t-18.5 109q0 52 13 93t33.5 65.5t49 40.5t55.5 22t56 6q31 0 59 -7t55.5 -23t45.5 -47.5t21 -75.5h-60q-10 99 -119 99q-149 0 -149 -171q0 -173 149 -173q108 0 119 100h60q-3 -44 -21.5 -75.5t-46.5 -48t-56.5 -23.5
t-59.5 -7z" />
    <glyph glyph-name="uni0442" unicode="&#x442;" 
d="M270 0v378h-193v54h445v-54h-193v-378h-59z" />
    <glyph glyph-name="uni0443" unicode="&#x443;" 
d="M88 -183v54q68 0 108.5 29t69.5 98l-185 434h65l87 -214l66 -161l61 151l91 224h64l-186 -437q-42 -98 -96.5 -138t-144.5 -40z" />
    <glyph glyph-name="uni0444" unicode="&#x444;" 
d="M271 -178v213q-35 -45 -99 -45q-65 0 -104.5 55.5t-39.5 169.5t40 170.5t105 56.5q63 0 98 -45v235h59v-235q35 45 99 45q65 0 104.5 -55t39.5 -169q0 -115 -40 -171.5t-105 -56.5q-63 0 -98 45v-213h-59zM188 43q27 0 51 12t32 23v276q-7 11 -31 23t-53 12
q-99 0 -99 -173t100 -173zM413 43q100 0 100 173t-99 173q-29 0 -53 -12t-31 -23v-276q8 -11 32 -23t51 -12z" />
    <glyph glyph-name="uni0445" unicode="&#x445;" 
d="M70 0l194 222l-185 210h73l149 -172l148 172h71l-184 -211l195 -221h-73l-160 183l-157 -183h-71z" />
    <glyph glyph-name="uni0446" unicode="&#x446;" 
d="M447 -112v112h-313v432h59v-378h215v378h59v-378h39v-166h-59z" />
    <glyph glyph-name="uni0447" unicode="&#x447;" 
d="M408 0v193q-67 -14 -121 -14q-83 0 -121 40.5t-38 126.5v86h59v-81q0 -66 24 -92.5t94 -26.5q55 0 103 10v190h59v-432h-59z" />
    <glyph glyph-name="uni0448" unicode="&#x448;" 
d="M62 0v432h59v-378h150v378h59v-378h150v378h59v-432h-477z" />
    <glyph glyph-name="uni0449" unicode="&#x449;" 
d="M519 -112v112h-457v432h59v-378h150v378h59v-378h150v378h59v-378h39v-166h-59z" />
    <glyph glyph-name="uni044A" unicode="&#x44a;" 
d="M209 0v378h-147v54h206v-185h80q71 0 114.5 -31.5t43.5 -91.5t-43.5 -92t-114.5 -32h-139zM268 193v-139h75q53 0 77.5 17t24.5 53t-24.5 52.5t-77.5 16.5h-75z" />
    <glyph glyph-name="uni044B" unicode="&#x44b;" 
d="M85 0v432h59v-185h80q71 0 114.5 -31.5t43.5 -91.5t-43.5 -92t-114.5 -32h-139zM144 193v-139h75q53 0 77.5 17t24.5 53t-24.5 52.5t-77.5 16.5h-75zM456 0v432h59v-432h-59z" />
    <glyph glyph-name="uni044C" unicode="&#x44c;" 
d="M134 0v432h59v-185h144q71 0 114.5 -31.5t43.5 -91.5t-43.5 -92t-114.5 -32h-203zM193 193v-139h139q53 0 77.5 17t24.5 53t-24.5 52.5t-77.5 16.5h-139z" />
    <glyph glyph-name="uni044D" unicode="&#x44d;" 
d="M293 -10q-31 0 -59 7t-55.5 23t-45.5 47.5t-21 75.5h60q10 -99 119 -99q138 0 148 149h-215v51h215q-13 144 -148 144q-108 0 -119 -100h-60q3 44 21.5 75.5t46.5 48t56.5 23.5t59.5 7q38 0 71.5 -11t64.5 -35t49.5 -70t18.5 -109q0 -52 -13 -93t-33.5 -65.5t-49 -40.5
t-55.5 -22t-56 -6z" />
    <glyph glyph-name="uni044E" unicode="&#x44e;" 
d="M378 -10q-163 0 -170 205h-84v-195h-59v432h59v-185h85q11 195 173 195q170 0 170 -224q0 -228 -174 -228zM379 42q59 -1 86 44t27 130t-27 130t-86 44q-59 1 -86 -44t-27 -130t27 -130t86 -44z" />
    <glyph glyph-name="uni044F" unicode="&#x44f;" 
d="M91 0l158 173q-120 32 -120 130q0 62 51.5 95.5t143.5 33.5h143v-432h-59v166h-93l-146 -166h-78zM323 216h85v164h-85q-133 0 -133 -82t133 -82z" />
    <glyph glyph-name="uni0450" unicode="&#x450;" 
d="M310 490l-120 191h80l77 -191h-37zM304 -10q-88 0 -146 55.5t-58 169.5q0 62 18 108t49 71t65 36.5t72 11.5q36 0 69 -11t63.5 -35t48.5 -70t18 -109v-14h-344q8 -161 148 -161q56 0 91.5 25.5t44.5 72.5h59q-7 -55 -42 -90.5t-74 -47.5t-82 -12zM160 252h282
q-16 138 -142 138q-127 0 -140 -138z" />
    <glyph glyph-name="uni0451" unicode="&#x451;" 
d="M158 551v81h81v-81h-81zM359 551v81h81v-81h-81zM304 -10q-88 0 -146 55.5t-58 169.5q0 62 18 108t49 71t65 36.5t72 11.5q36 0 69 -11t63.5 -35t48.5 -70t18 -109v-14h-344q8 -161 148 -161q56 0 91.5 25.5t44.5 72.5h59q-7 -55 -42 -90.5t-74 -47.5t-82 -12zM160 252
h282q-16 138 -142 138q-127 0 -140 -138z" />
    <glyph glyph-name="uni0452" unicode="&#x452;" 
d="M228 -183v54q180 0 180 143v236q0 72 -21 105.5t-79 33.5q-74 0 -115 -47v-342h-59v501h-49v54h49v77h59v-77h126v-54h-126v-113q46 54 127 54q65 0 106 -38t41 -139v-251q0 -92 -62 -144.5t-177 -52.5z" />
    <glyph glyph-name="uni0453" unicode="&#x453;" 
d="M262 490l77 191h80l-120 -191h-37zM154 0v432h309v-54h-250v-378h-59z" />
    <glyph glyph-name="uni0454" unicode="&#x454;" 
d="M304 -10q-38 0 -71.5 11t-64.5 35t-49.5 70t-18.5 109q0 52 13 93t33.5 65.5t49 40.5t55.5 22t56 6q31 0 59 -7t55.5 -23t45.5 -47.5t21 -75.5h-60q-10 99 -119 99q-136 0 -148 -144h215v-51h-215q10 -149 148 -149q108 0 119 100h60q-3 -44 -21.5 -75.5t-46.5 -48
t-56.5 -23.5t-59.5 -7z" />
    <glyph glyph-name="uni0455" unicode="&#x455;" 
d="M310 -10q-91 0 -143.5 37.5t-56.5 109.5h58q10 -93 146 -93q115 0 115 70q0 36 -30 51.5t-106 33.5l-7.5 1.5t-6.5 1.5l-8 2q-37 9 -58.5 16t-44.5 20t-33.5 33.5t-10.5 48.5q0 61 47.5 90.5t125.5 29.5q175 0 186 -136h-58q-14 82 -129 82q-112 0 -112 -62q0 -11 3 -20
t12 -16t16.5 -11.5t25 -9.5t28.5 -8t36 -8.5t39 -8.5q75 -18 110 -43.5t35 -81.5q0 -68 -49 -98.5t-130 -30.5z" />
    <glyph glyph-name="uni0456" unicode="&#x456;" 
d="M118 0v54h160v324h-160v54h219v-378h147v-54h-366zM267 551v81h81v-81h-81z" />
    <glyph glyph-name="uni0457" unicode="&#x457;" 
d="M166 551v81h81v-81h-81zM367 551v81h81v-81h-81zM118 0v54h160v324h-160v54h219v-378h147v-54h-366z" />
    <glyph glyph-name="uni0458" unicode="&#x458;" 
d="M152 -183v54q180 0 180 143v364h-168v54h227v-424q0 -91 -61.5 -141t-177.5 -50zM321 551v81h81v-81h-81z" />
    <glyph glyph-name="uni0459" unicode="&#x459;" 
d="M17 -5v54q59 0 81.5 23t32.5 98l37 262h209v-185h60q71 0 114.5 -31.5t43.5 -91.5t-43.5 -92t-114.5 -32h-119v378h-99l-30 -216q-13 -90 -47.5 -128.5t-124.5 -38.5zM377 193v-139h55q53 0 77.5 17t24.5 53t-24.5 52.5t-77.5 16.5h-55z" />
    <glyph glyph-name="uni045A" unicode="&#x45a;" 
d="M49 0v432h59v-185h165v185h59v-185h95q71 0 114.5 -31.5t43.5 -91.5t-43.5 -92t-114.5 -32h-154v193h-165v-193h-59zM332 193v-139h90q53 0 77.5 17t24.5 53t-24.5 52.5t-77.5 16.5h-90z" />
    <glyph glyph-name="uni045B" unicode="&#x45b;" 
d="M134 0v501h-49v54h49v77h59v-77h126v-54h-126v-113q46 54 127 54q65 0 106 -38t41 -139v-265h-59v250q0 72 -21 105.5t-79 33.5q-74 0 -115 -47v-342h-59z" />
    <glyph glyph-name="uni045C" unicode="&#x45c;" 
d="M255 490l77 191h80l-120 -191h-37zM134 0v432h59v-206l242 206h77l-194 -163l203 -269h-73l-171 235l-84 -70v-165h-59z" />
    <glyph glyph-name="uni045D" unicode="&#x45d;" 
d="M311 490l-120 191h80l77 -191h-37zM134 0v432h56v-246l-4 -123l204 369h77v-432h-56v246l4 123l-204 -369h-77z" />
    <glyph glyph-name="uni045E" unicode="&#x45e;" 
d="M300 528q-59 0 -96.5 37t-52.5 79l28 17q48 -74 121 -74t121 74l28 -17q-15 -42 -52.5 -79t-96.5 -37zM88 -183v54q68 0 108.5 29t69.5 98l-185 434h65l87 -214l66 -161l61 151l91 224h64l-186 -437q-42 -98 -96.5 -138t-144.5 -40z" />
    <glyph glyph-name="uni045F" unicode="&#x45f;" 
d="M270 -112v112h-136v432h59v-378h215v378h59v-432h-138v-112h-59z" />
    <glyph glyph-name="uni0472" unicode="&#x472;" 
d="M300 46q144 0 146 226q-35 -49 -75 -49q-26 0 -76 28.5t-71 28.5q-33 0 -69 -49q15 -185 145 -185zM375 282q33 0 69 49q-17 182 -144 182q-142 0 -146 -222q34 48 75 48q25 0 75 -28.5t71 -28.5zM299 -10q-104 0 -157 77.5t-53 209.5q0 135 54 213.5t158 78.5t157 -78
t53 -210q0 -135 -54 -213t-158 -78z" />
    <glyph glyph-name="uni0473" unicode="&#x473;" 
d="M300 43q134 0 140 161q-8 -16 -26.5 -29t-38.5 -13q-23 0 -79 25.5t-76 25.5q-30 0 -59 -38q17 -132 139 -132zM380 215q30 0 59 36q-15 138 -139 138q-137 0 -141 -166q8 17 27 30t40 13q23 0 79 -25.5t75 -25.5zM299 -10q-38 0 -71.5 11t-63 35.5t-47 70.5t-17.5 108
q0 121 59 174t142 53q38 0 71.5 -11t63 -35.5t47 -70.5t17.5 -108q0 -121 -59 -174t-142 -53z" />
    <glyph glyph-name="uni0490" unicode="&#x490;" 
d="M134 0v558h286v132h63v-187h-286v-503h-63z" />
    <glyph glyph-name="uni0491" unicode="&#x491;" 
d="M154 0v432h250v112h59v-166h-250v-378h-59z" />
    <glyph glyph-name="uni0492" unicode="&#x492;" 
d="M144 0v258h-87v55h87v245h349v-55h-286v-190h207v-55h-207v-258h-63z" />
    <glyph glyph-name="uni0493" unicode="&#x493;" 
d="M164 0v196h-70v53h70v183h309v-54h-250v-129h180v-53h-180v-196h-59z" />
    <glyph glyph-name="uni0496" unicode="&#x496;" 
d="M547 -132v132h-12l-146 289l-59 -74v-215h-60v214l-60 75l-145 -289h-65l172 336l-156 222h72l137 -204l45 -68v272h60v-272l45 68l137 204h72l-156 -222l144 -281h38v-187h-63z" />
    <glyph glyph-name="uni0497" unicode="&#x497;" 
d="M541 -112v112h-9l-156 209l-48 -48v-161h-56v161l-49 48l-155 -209h-68l185 244l-176 188h70l123 -131l70 -82v213h56v-213l71 82l122 131h70l-177 -188l145 -190h41v-166h-59z" />
    <glyph glyph-name="uni0498" unicode="&#x498;" 
d="M269 -132v124q-76 7 -122.5 50.5t-50.5 124.5h62q8 -123 145 -123q61 0 97.5 27.5t36.5 79.5q0 55 -40.5 85t-105.5 30h-11v51h11q133 0 133 97q0 46 -34.5 73.5t-89.5 27.5q-129 0 -138 -123h-62q5 91 61 134t140 43q85 0 136.5 -43.5t51.5 -111.5q0 -88 -89 -121
q48 -17 75 -54.5t27 -87.5q0 -66 -44.5 -109.5t-125.5 -50.5v-123h-63z" />
    <glyph glyph-name="uni0499" unicode="&#x499;" 
d="M267 -112v104q-145 13 -148 137h57q5 -87 124 -87q117 0 117 73q0 39 -33 59t-87 20h-28v51h28q52 0 82 19t30 55q0 71 -113 71q-109 0 -114 -87h-57q2 73 49.5 106t122.5 33q78 0 125 -32t47 -89q0 -77 -83 -102q44 -9 68 -38t24 -70q0 -53 -40.5 -84t-111.5 -36v-103
h-59z" />
    <glyph glyph-name="uni049A" unicode="&#x49a;" 
d="M488 -132v132h-18l-201 277l-72 -78v-199h-63v558h63v-277l247 277h81l-216 -237l199 -266h43v-187h-63z" />
    <glyph glyph-name="uni049B" unicode="&#x49b;" 
d="M464 -112v112h-16l-171 235l-84 -70v-165h-59v432h59v-206l242 206h77l-194 -163l162 -215h43v-166h-59z" />
    <glyph glyph-name="uni049C" unicode="&#x49c;" 
d="M129 0v558h63v-245h39v95h55v-95h21l149 245h74l-166 -269l190 -289h-77l-166 258h-25v-97h-55v97h-39v-258h-63z" />
    <glyph glyph-name="uni049D" unicode="&#x49d;" 
d="M134 0v432h59v-185h43v87h53v-87h22l126 185h69l-144 -209l164 -223h-73l-139 195h-25v-87h-53v87h-43v-195h-59z" />
    <glyph glyph-name="uni04A0" unicode="&#x4a0;" 
d="M154 0v503h-142v55h205v-277l247 277h81l-216 -237l240 -321h-79l-201 277l-72 -78v-199h-63z" />
    <glyph glyph-name="uni04A1" unicode="&#x4a1;" 
d="M169 0v378h-147v54h206v-206l242 206h77l-194 -163l203 -269h-73l-171 235l-84 -70v-165h-59z" />
    <glyph glyph-name="uni04A2" unicode="&#x4a2;" 
d="M446 -132v132h-43v258h-206v-258h-63v558h63v-245h206v245h63v-503h43v-187h-63z" />
    <glyph glyph-name="uni04A3" unicode="&#x4a3;" 
d="M447 -112v112h-39v193h-215v-193h-59v432h59v-185h215v185h59v-378h39v-166h-59z" />
    <glyph glyph-name="uni04AA" unicode="&#x4aa;" 
d="M281 -132v124q-94 9 -143 82t-49 204q0 142 57.5 216.5t168.5 74.5q35 0 66 -8t60.5 -26.5t48 -55.5t20.5 -89h-63q-15 125 -133 125q-160 0 -160 -236q0 -235 160 -235q118 0 133 125h63q-4 -84 -50.5 -126.5t-115.5 -50.5v-124h-63z" />
    <glyph glyph-name="uni04AB" unicode="&#x4ab;" 
d="M277 -112v104q-75 7 -126 60t-51 163q0 52 13 93t33.5 65.5t49 40.5t55.5 22t56 6q31 0 59 -7t55.5 -23t45.5 -47.5t21 -75.5h-60q-10 99 -119 99q-149 0 -149 -171q0 -173 149 -173q108 0 119 100h60q-5 -73 -48.5 -109t-103.5 -43v-104h-59z" />
    <glyph glyph-name="uni04AE" unicode="&#x4ae;" 
d="M269 0v226l-221 332h73l90 -136l91 -144l90 144l88 136h73l-221 -334v-224h-63z" />
    <glyph glyph-name="uni04AF" unicode="&#x4af;" 
d="M270 -178v171l-187 439h65l93 -228l60 -147l60 147l92 228h64l-188 -442v-168h-59z" />
    <glyph glyph-name="uni04B0" unicode="&#x4b0;" 
d="M269 0v135h-153v55h153v36l-221 332h73l90 -136l91 -144l90 144l88 136h73l-221 -334v-34h153v-55h-153v-135h-63z" />
    <glyph glyph-name="uni04B1" unicode="&#x4b1;" 
d="M270 -178v178h-152v54h126l-161 378h65l93 -228l60 -147l60 147l92 228h64l-161 -378h131v-54h-158v-178h-59z" />
    <glyph glyph-name="uni04B2" unicode="&#x4b2;" 
d="M481 -132v132h-20l-100 150l-60 91l-60 -91l-100 -150h-78l199 287l-188 271h76l89 -134l60 -91l60 91l89 134h78l-188 -271l161 -232h45v-187h-63z" />
    <glyph glyph-name="uni04B3" unicode="&#x4b3;" 
d="M472 -112v112h-14l-160 183l-157 -183h-71l194 222l-185 210h73l149 -172l148 172h71l-184 -211l147 -167h48v-166h-59z" />
    <glyph glyph-name="uni04B6" unicode="&#x4b6;" 
d="M446 -132v132h-43v253q-60 -13 -115 -13q-85 0 -123 42.5t-38 134.5v141h63v-135q0 -71 22.5 -99t91.5 -28q48 0 99 11v251h63v-503h43v-187h-63z" />
    <glyph glyph-name="uni04B7" unicode="&#x4b7;" 
d="M447 -112v112h-39v193q-67 -14 -121 -14q-83 0 -121 40.5t-38 126.5v86h59v-81q0 -66 24 -92.5t94 -26.5q55 0 103 10v190h59v-378h39v-166h-59z" />
    <glyph glyph-name="uni04B8" unicode="&#x4b8;" 
d="M403 0v253q-33 -8 -77 -12v-97h-55v96q-77 4 -110.5 46.5t-33.5 130.5v141h63v-135q0 -63 16.5 -91.5t64.5 -34.5v94h55v-95q36 2 77 11v251h63v-558h-63z" />
    <glyph glyph-name="uni04B9" unicode="&#x4b9;" 
d="M408 0v193q-31 -7 -81 -12v-88h-53v87q-76 3 -111 43t-35 123v86h59v-81q0 -59 18 -85.5t69 -32.5v86h53v-87q46 3 81 10v190h59v-432h-59z" />
    <glyph glyph-name="uni04BA" unicode="&#x4ba;" 
d="M134 0v558h63v-253q60 13 114 13q86 0 124 -42.5t38 -134.5v-141h-63v135q0 71 -22.5 99t-91.5 28q-48 0 -99 -11v-251h-63z" />
    <glyph glyph-name="uni04BB" unicode="&#x4bb;" 
d="M134 0v632h59v-244q46 54 127 54q65 0 106 -38t41 -139v-265h-59v250q0 72 -21 105.5t-79 33.5q-74 0 -115 -47v-342h-59z" />
    <glyph glyph-name="uni04C1" unicode="&#x4c1;" 
d="M300 635q-59 0 -96.5 37t-52.5 79l28 17q48 -74 121 -74t121 74l28 -17q-15 -42 -52.5 -79t-96.5 -37zM0 0l172 336l-156 222h72l137 -204l45 -68v272h60v-272l45 68l137 204h72l-156 -222l172 -336h-65l-146 289l-59 -74v-215h-60v214l-60 75l-145 -289h-65z" />
    <glyph glyph-name="uni04C2" unicode="&#x4c2;" 
d="M300 528q-59 0 -96.5 37t-52.5 79l28 17q48 -74 121 -74t121 74l28 -17q-15 -42 -52.5 -79t-96.5 -37zM0 0l185 244l-176 188h70l123 -131l70 -82v213h56v-213l71 82l122 131h70l-177 -188l186 -244h-68l-156 209l-48 -48v-161h-56v161l-49 48l-155 -209h-68z" />
    <glyph glyph-name="uni04D8" unicode="&#x4d8;" 
d="M297 -10q-104 0 -156.5 77.5t-52.5 211.5v14h358q-3 98 -38 159.5t-113 61.5q-61 0 -97 -39t-47 -103h-64q17 92 71 144.5t139 52.5q104 0 158.5 -78.5t54.5 -211.5t-54.5 -211t-158.5 -78zM299 45q133 0 146 194h-292q13 -194 146 -194z" />
    <glyph glyph-name="uni04D9" unicode="&#x4d9;" 
d="M296 -10q-36 0 -69 11t-63.5 35t-48.5 70t-18 109v14h343q-6 161 -147 161q-56 0 -91.5 -25.5t-44.5 -72.5h-59q7 55 42 90.5t74 47.5t82 12q88 0 146 -55.5t58 -169.5q0 -62 -18 -108t-49 -71t-65 -36.5t-72 -11.5zM300 42q126 0 139 138h-282q15 -138 143 -138z" />
    <glyph glyph-name="uni04E2" unicode="&#x4e2;" 
d="M168 657v54h265v-54h-265zM134 0v558h60v-345l-6 -150l187 495h91v-558h-60v345l6 150l-187 -495h-91z" />
    <glyph glyph-name="uni04E3" unicode="&#x4e3;" 
d="M168 550v54h265v-54h-265zM134 0v432h56v-246l-4 -123l204 369h77v-432h-56v246l4 123l-204 -369h-77z" />
    <glyph glyph-name="uni04E8" unicode="&#x4e8;" 
d="M299 -10q-104 0 -157 77.5t-53 209.5q0 135 54 213.5t158 78.5t157 -78t53 -210q0 -135 -54 -213t-158 -78zM300 46q137 0 145 207h-291q10 -207 146 -207zM154 308h291q-8 205 -145 205q-136 0 -146 -205z" />
    <glyph glyph-name="uni04E9" unicode="&#x4e9;" 
d="M299 -10q-38 0 -71.5 11t-63 35.5t-47 70.5t-17.5 108q0 121 59 174t142 53q38 0 71.5 -11t63 -35.5t47 -70.5t17.5 -108q0 -121 -59 -174t-142 -53zM300 43q130 0 140 148h-280q10 -148 140 -148zM160 241h280q-11 148 -140 148t-140 -148z" />
    <glyph glyph-name="uni04EE" unicode="&#x4ee;" 
d="M180 657v54h265v-54h-265zM129 -5v56q62 0 101.5 22.5t67.5 74.5l-230 410h79l117 -222l68 -131l51 131l90 222h70l-158 -376q-43 -102 -102 -144.5t-154 -42.5z" />
    <glyph glyph-name="uni04EF" unicode="&#x4ef;" 
d="M168 550v54h265v-54h-265zM88 -183v54q68 0 108.5 29t69.5 98l-185 434h65l87 -214l66 -161l61 151l91 224h64l-186 -437q-42 -98 -96.5 -138t-144.5 -40z" />
    <glyph glyph-name="uni05B0" unicode="&#x5b0;" horiz-adv-x="0" 
d="M-33 -124v66h66v-66h-66zM-33 -235v66h66v-66h-66z" />
    <glyph glyph-name="uni05B1" unicode="&#x5b1;" horiz-adv-x="0" 
d="M-165 -124v66h66v-66h-66zM-33 -124v66h66v-66h-66zM99 -124v66h66v-66h-66zM-99 -235v66h66v-66h-66zM99 -235v66h66v-66h-66z" />
    <glyph glyph-name="uni05B2" unicode="&#x5b2;" horiz-adv-x="0" 
d="M87 -124v66h66v-66h-66zM-153 -120v58h174v-58h-174zM87 -235v66h66v-66h-66z" />
    <glyph glyph-name="uni05B3" unicode="&#x5b3;" horiz-adv-x="0" 
d="M87 -124v66h66v-66h-66zM-98 -216l11 96h-66v58h174v-58h-66l11 -96h-64zM87 -235v66h66v-66h-66z" />
    <glyph glyph-name="uni05B4" unicode="&#x5b4;" horiz-adv-x="0" 
d="M-33 -124v66h66v-66h-66z" />
    <glyph glyph-name="uni05B5" unicode="&#x5b5;" horiz-adv-x="0" 
d="M-99 -124v66h66v-66h-66zM33 -124v66h66v-66h-66z" />
    <glyph glyph-name="uni05B6" unicode="&#x5b6;" horiz-adv-x="0" 
d="M-99 -124v66h66v-66h-66zM33 -124v66h66v-66h-66zM-33 -235v66h66v-66h-66z" />
    <glyph glyph-name="uni05B7" unicode="&#x5b7;" horiz-adv-x="0" 
d="M-87 -120v58h174v-58h-174z" />
    <glyph glyph-name="uni05B8" unicode="&#x5b8;" horiz-adv-x="0" 
d="M-32 -216l11 96h-66v58h174v-58h-66l11 -96h-64z" />
    <glyph glyph-name="uni05B9" unicode="&#x5b9;" horiz-adv-x="0" 
d="M-33 545v66h66v-66h-66z" />
    <glyph glyph-name="uni05BA" unicode="&#x5ba;" horiz-adv-x="0" 
d="M-33 545v66h66v-66h-66z" />
    <glyph glyph-name="uni05BB" unicode="&#x5bb;" horiz-adv-x="0" 
d="M-119 -124v66h66v-66h-66zM-33 -179v66h66v-66h-66zM53 -234v66h66v-66h-66z" />
    <glyph glyph-name="uni05BC" unicode="&#x5bc;" horiz-adv-x="0" 
d="M-33 224v66h66v-66h-66z" />
    <glyph glyph-name="uni05BD" unicode="&#x5bd;" horiz-adv-x="0" 
d="M-29 -200v146h58v-146h-58z" />
    <glyph glyph-name="uni05BE" unicode="&#x5be;" 
d="M180 431v55h240v-55h-240z" />
    <glyph glyph-name="uni05BF" unicode="&#x5bf;" horiz-adv-x="0" 
d="M-87 544v50h174v-50h-174z" />
    <glyph glyph-name="uni05C0" unicode="&#x5c0;" 
d="M272 -178v810h56v-810h-56z" />
    <glyph glyph-name="uni05C1" unicode="&#x5c1;" horiz-adv-x="0" 
d="M-33 545v66h66v-66h-66z" />
    <glyph glyph-name="uni05C2" unicode="&#x5c2;" horiz-adv-x="0" 
d="M-33 545v66h66v-66h-66z" />
    <glyph glyph-name="uni05C3" unicode="&#x5c3;" 
d="M249 384v102h102v-102h-102zM249 0v102h102v-102h-102z" />
    <glyph glyph-name="uni05C7" unicode="&#x5c7;" horiz-adv-x="0" 
d="M-29 -178l9 58h-40v58h120v-58h-40l9 -58h-58z" />
    <glyph glyph-name="uni05D0" unicode="&#x5d0;" 
d="M101 0v201q0 105 87 151l-95 134h68l214 -301q65 35 65 116v185h59v-191q0 -107 -93 -153l101 -142h-68l-221 309q-58 -35 -58 -114v-195h-59z" />
    <glyph glyph-name="uni05D1" unicode="&#x5d1;" 
d="M120 0v54h283v252q0 69 -26 97.5t-100 28.5h-157v54h171q36 0 63.5 -6.5t53.5 -23.5t40 -52.5t14 -88.5v-261h80v-54h-422z" />
    <glyph glyph-name="uni05D2" unicode="&#x5d2;" 
d="M107 0l55 118q42 90 95 125.5t127 35.5l-3 26q-8 72 -35.5 104.5t-84.5 32.5q-35 0 -65 -13v54q31 13 72 13q74 0 115.5 -39t54.5 -137l42 -320h-59l-30 228q-67 0 -104.5 -29t-70.5 -99l-47 -100h-62z" />
    <glyph glyph-name="uni05D3" unicode="&#x5d3;" 
d="M378 0v432h-311v54h446v-54h-77v-432h-58z" />
    <glyph glyph-name="uni05D4" unicode="&#x5d4;" 
d="M437 0v306q0 69 -26 97.5t-100 28.5h-208v54h222q36 0 63.5 -6.5t53.5 -23.5t40 -52.5t14 -88.5v-315h-59zM103 0v279h59v-279h-59z" />
    <glyph glyph-name="uni05D5" unicode="&#x5d5;" 
d="M319 0v432h-175v54h234v-486h-59z" />
    <glyph glyph-name="uni05D6" unicode="&#x5d6;" 
d="M347 0l-78 206q-22 59 -22 100q0 68 45 126h-180v54h375v-54h-133q-47 -58 -47 -126q0 -37 17 -83l84 -223h-61z" />
    <glyph glyph-name="uni05D7" unicode="&#x5d7;" 
d="M102 0v486h225q36 0 63.5 -6.5t53.5 -23.5t40 -52.5t14 -88.5v-315h-59v306q0 69 -26 97.5t-100 28.5h-152v-432h-59z" />
    <glyph glyph-name="uni05D8" unicode="&#x5d8;" 
d="M77 230v256h59v-249q0 -100 41 -146.5t123 -46.5t123 46.5t41 146.5v68q0 75 -22 106t-78 31q-50 0 -88 -16v54q37 16 91 16q79 0 117.5 -39.5t38.5 -141.5v-85q0 -240 -223 -240t-223 240z" />
    <glyph glyph-name="uni05D9" unicode="&#x5d9;" 
d="M255 190v53q136 16 136 141v48h-241v54h300v-108q0 -81 -50 -130t-145 -58z" />
    <glyph glyph-name="uni05DA" unicode="&#x5da;" 
d="M409 -178v484q0 69 -26 97.5t-100 28.5h-192v54h206q36 0 63.5 -6.5t53.5 -23.5t40 -52.5t14 -88.5v-493h-59z" />
    <glyph glyph-name="uni05DB" unicode="&#x5db;" 
d="M125 0v54h167q171 0 171 189t-171 189h-167v54h167q47 0 86.5 -12t73.5 -38.5t53.5 -75.5t19.5 -117t-20 -117.5t-54.5 -75.5t-73.5 -38t-85 -12h-167z" />
    <glyph glyph-name="uni05DC" unicode="&#x5dc;" 
d="M249 -4v53q91 0 136.5 42.5t45.5 142.5v198h-348v200h57v-146h350v-260q0 -230 -241 -230z" />
    <glyph glyph-name="uni05DD" unicode="&#x5dd;" 
d="M102 0v486h225q36 0 63.5 -6.5t53.5 -23.5t40 -52.5t14 -88.5v-315h-396zM161 54h278v252q0 69 -26 97.5t-100 28.5h-152v-378z" />
    <glyph glyph-name="uni05DE" unicode="&#x5de;" 
d="M86 0l44 342l-33 144h52l21 -90q57 100 176 100q167 0 167 -211v-285h-200v54h141v221q0 83 -26 125.5t-90 42.5q-95 0 -148 -91l-45 -352h-59z" />
    <glyph glyph-name="uni05DF" unicode="&#x5df;" 
d="M297 -178v610h-153v54h212v-664h-59z" />
    <glyph glyph-name="uni05E0" unicode="&#x5e0;" 
d="M138 0v54h250v251q0 75 -22 106t-78 31q-50 0 -88 -16v54q37 16 91 16q79 0 117.5 -39.5t38.5 -141.5v-315h-309z" />
    <glyph glyph-name="uni05E1" unicode="&#x5e1;" 
d="M300 45q163 0 163 198t-163 198t-163 -198t163 -198zM300 -10q-44 0 -81.5 12.5t-71 40t-53 79t-19.5 121.5q0 71 20 122.5t54 78.5t71 39.5t80 12.5q44 0 81.5 -12.5t71 -40t53 -79t19.5 -121.5q0 -71 -20 -122.5t-54 -78.5t-71 -39.5t-80 -12.5z" />
    <glyph glyph-name="uni05E2" unicode="&#x5e2;" 
d="M53 0v54h138l-76 432h59l74 -432q135 0 157 127l52 305h59l-54 -315q-16 -94 -76.5 -132.5t-155.5 -38.5h-177z" />
    <glyph glyph-name="uni05E3" unicode="&#x5e3;" 
d="M441 -178v421q0 189 -163 189h-121l-11 -87q-2 -16 -2 -31q0 -53 30 -72t88 -19v-53q-175 0 -175 135q0 16 2 32l19 149h170q46 0 84 -12t70 -38t50 -75t18 -117v-422h-59z" />
    <glyph glyph-name="uni05E4" unicode="&#x5e4;" 
d="M110 0v54h177q171 0 171 189t-171 189h-121l-9 -71q-2 -16 -2 -31q0 -53 30 -72t88 -19v-53q-175 0 -175 135q0 16 2 32l17 133h170q47 0 86.5 -12t73.5 -38.5t53.5 -75.5t19.5 -116q0 -68 -20 -117.5t-54.5 -76t-73.5 -38.5t-85 -12h-177z" />
    <glyph glyph-name="uni05E5" unicode="&#x5e5;" 
d="M206 -178l-86 664h61l42 -324l77 20q75 19 106.5 46t31.5 92v166h59v-171q0 -39 -9.5 -67.5t-23.5 -46.5t-42 -32.5t-53 -23t-69 -19.5l-70 -18l37 -286h-61z" />
    <glyph glyph-name="uni05E6" unicode="&#x5e6;" 
d="M81 0v54h313l-61 86l-246 346h68l189 -266q84 40 84 125v141h59v-147q0 -113 -112 -163l95 -132v-44h-389z" />
    <glyph glyph-name="uni05E7" unicode="&#x5e7;" 
d="M112 -178v457h59v-457h-59zM308 0l174 432h-370v54h436v-44l-178 -442h-62z" />
    <glyph glyph-name="uni05E8" unicode="&#x5e8;" 
d="M420 0v252q0 97 -45.5 138.5t-134.5 41.5h-147v54h155q106 0 168.5 -53.5t62.5 -172.5v-260h-59z" />
    <glyph glyph-name="uni05E9" unicode="&#x5e9;" 
d="M61 193v293h59v-285q0 -15 1 -21l12 3q75 19 106.5 45.5t31.5 91.5v166h59v-171q0 -37 -10 -65t-24.5 -46t-42.5 -32t-53 -22t-67 -19q40 -87 167 -87q78 0 129 39t51 118v285h59v-293q0 -70 -35 -117t-87 -66.5t-117 -19.5t-117 19.5t-87 66.5t-35 117z" />
    <glyph glyph-name="uni05EA" unicode="&#x5ea;" 
d="M61 0v54h77v225q0 92 25 153h-102v54h269q36 0 63.5 -6.5t53.5 -23.5t40 -52.5t14 -88.5v-315h-59v306q0 69 -26 97.5t-100 28.5h-95q-24 -66 -24 -159v-273h-136z" />
    <glyph glyph-name="uni05F0" unicode="&#x5f0;" 
d="M181 0v432h-115v54h174v-486h-59zM414 0v432h-115v54h174v-486h-59z" />
    <glyph glyph-name="uni05F1" unicode="&#x5f1;" 
d="M443 0v432h-115v54h174v-486h-59zM73 190v53q136 16 136 141v48h-152v54h211v-108q0 -81 -50 -130t-145 -58z" />
    <glyph glyph-name="uni05F2" unicode="&#x5f2;" 
d="M75 190v53q136 16 136 141v48h-152v54h211v-108q0 -81 -50 -130t-145 -58zM346 190v53q136 16 136 141v48h-152v54h211v-108q0 -81 -50 -130t-145 -58z" />
    <glyph glyph-name="uni05F3" unicode="&#x5f3;" 
d="M223 314l67 221h109l-135 -234q-12 -21 -26 -21q-18 0 -18 17q0 7 3 17z" />
    <glyph glyph-name="uni05F4" unicode="&#x5f4;" 
d="M327 314l67 221h109l-135 -234q-12 -21 -26 -21q-18 0 -18 17q0 7 3 17zM129 314l67 221h109l-135 -234q-12 -21 -26 -21q-18 0 -18 17q0 7 3 17z" />
    <glyph glyph-name="uni0E3F" unicode="&#xe3f;" 
d="M134 0v558h146v71h49v-73q71 -8 115 -46.5t44 -100.5q0 -81 -82 -120q105 -36 105 -133q0 -67 -51 -109t-131 -47v-70h-49v70h-146zM446 160q0 44 -30 69t-87 29v-205q59 4 88 33.5t29 73.5zM197 258v-204h83v204h-83zM197 504v-191h83v191h-83zM423 405q0 38 -23.5 64
t-70.5 33v-188q94 12 94 91z" />
    <glyph glyph-name="uni1E04" unicode="&#x1e04;" 
d="M261 -151v81h81v-81h-81zM134 0v558h160q85 0 139.5 -39.5t54.5 -109.5q0 -81 -82 -120q105 -36 105 -133q0 -71 -56.5 -113.5t-142.5 -42.5h-178zM197 258v-203h115q67 0 100.5 29.5t33.5 75.5q0 47 -35.5 72.5t-102.5 25.5h-111zM197 503v-190h88q138 0 138 92
q0 46 -33 72t-100 26h-93z" />
    <glyph glyph-name="uni1E05" unicode="&#x1e05;" 
d="M272 -151v81h81v-81h-81zM319 -10q-86 0 -138 65v-55h-47v632h59v-246q48 56 128 56q78 0 128.5 -56t50.5 -169q0 -114 -52 -170.5t-129 -56.5zM308 45q66 0 98.5 46t32.5 125t-32.5 125t-98.5 46q-69 0 -115 -46v-250q46 -46 115 -46z" />
    <glyph glyph-name="uni1E0C" unicode="&#x1e0c;" 
d="M259 -151v81h81v-81h-81zM134 0v558h148q229 0 229 -278q0 -280 -229 -280h-148zM197 503v-448h85q43 0 74.5 14.5t48.5 35.5t26.5 53.5t12 59t2.5 61.5t-2.5 61.5t-12 59t-26.5 53.5t-48.5 35.5t-74.5 14.5h-85z" />
    <glyph glyph-name="uni1E0D" unicode="&#x1e0d;" 
d="M259 -151v81h81v-81h-81zM280 -10q-76 0 -128 55t-52 169q0 112 51 170t128 58t128 -56v246h59v-632h-47v55q-52 -65 -139 -65zM292 45q69 0 115 46v250q-46 46 -115 46q-66 0 -98.5 -46t-32.5 -125t32.5 -125t98.5 -46z" />
    <glyph glyph-name="uni1E0E" unicode="&#x1e0e;" 
d="M168 -138v54h265v-54h-265zM134 0v558h148q229 0 229 -278q0 -280 -229 -280h-148zM197 503v-448h85q43 0 74.5 14.5t48.5 35.5t26.5 53.5t12 59t2.5 61.5t-2.5 61.5t-12 59t-26.5 53.5t-48.5 35.5t-74.5 14.5h-85z" />
    <glyph glyph-name="uni1E0F" unicode="&#x1e0f;" 
d="M168 -138v54h265v-54h-265zM280 -10q-76 0 -128 55t-52 169q0 112 51 170t128 58t128 -56v246h59v-632h-47v55q-52 -65 -139 -65zM292 45q69 0 115 46v250q-46 46 -115 46q-66 0 -98.5 -46t-32.5 -125t32.5 -125t98.5 -46z" />
    <glyph glyph-name="uni1E20" unicode="&#x1e20;" 
d="M168 657v54h265v-54h-265zM291 -10q-56 0 -96.5 24.5t-62.5 67t-32 91.5t-10 107q0 139 55 214t156 75q34 0 64 -9t58.5 -29.5t46 -60.5t19.5 -95h-63q-14 140 -126 140q-77 0 -111 -65t-34 -168q0 -65 12 -115.5t46.5 -86.5t89.5 -36q71 0 122 53v145h-138v55h201v-297
h-48v56q-15 -22 -53 -44t-96 -22z" />
    <glyph glyph-name="uni1E21" unicode="&#x1e21;" 
d="M150 550v54h265v-54h-265zM284 -188q-180 0 -180 149h59q0 -51 29 -74.5t90 -23.5q77 0 101 30.5t24 90.5v62q-48 -56 -129 -56q-77 0 -127.5 56t-50.5 169q0 114 52 170.5t129 56.5q47 0 83 -19.5t55 -45.5v55h47v-453q0 -84 -41 -125.5t-141 -41.5zM292 45q69 0 115 46
v250q-46 46 -115 46q-66 0 -98.5 -46t-32.5 -125t32.5 -125t98.5 -46z" />
    <glyph glyph-name="uni1E24" unicode="&#x1e24;" 
d="M259 -151v81h81v-81h-81zM134 0v558h63v-245h206v245h63v-558h-63v258h-206v-258h-63z" />
    <glyph glyph-name="uni1E25" unicode="&#x1e25;" 
d="M259 -151v81h81v-81h-81zM134 0v632h59v-244q46 54 127 54q65 0 106 -38t41 -139v-265h-59v250q0 72 -21 105.5t-79 33.5q-74 0 -115 -47v-342h-59z" />
    <glyph glyph-name="uni1E2A" unicode="&#x1e2a;" 
d="M300 -188q-59 0 -96.5 37t-52.5 79l28 17q48 -74 121 -74t121 74l28 -17q-15 -42 -52.5 -79t-96.5 -37zM134 0v558h63v-245h206v245h63v-558h-63v258h-206v-258h-63z" />
    <glyph glyph-name="uni1E2B" unicode="&#x1e2b;" 
d="M300 -188q-59 0 -96.5 37t-52.5 79l28 17q48 -74 121 -74t121 74l28 -17q-15 -42 -52.5 -79t-96.5 -37zM134 0v632h59v-244q46 54 127 54q65 0 106 -38t41 -139v-265h-59v250q0 72 -21 105.5t-79 33.5q-74 0 -115 -47v-342h-59z" />
    <glyph glyph-name="uni1E32" unicode="&#x1e32;" 
d="M283 -151v81h81v-81h-81zM134 0v558h63v-277l247 277h81l-216 -237l240 -321h-79l-201 277l-72 -78v-199h-63z" />
    <glyph glyph-name="uni1E33" unicode="&#x1e33;" 
d="M266 -151v81h81v-81h-81zM134 0v632h59v-406l242 206h77l-194 -163l203 -269h-73l-171 235l-84 -70v-165h-59z" />
    <glyph glyph-name="uni1E36" unicode="&#x1e36;" 
d="M278 -151v81h81v-81h-81zM134 0v558h63v-503h286v-55h-349z" />
    <glyph glyph-name="uni1E37" unicode="&#x1e37;" 
d="M260 -151v81h81v-81h-81zM118 0v54h153v524h-153v54h212v-578h154v-54h-366z" />
    <glyph glyph-name="uni1E38" unicode="&#x1e38;" 
d="M278 -151v81h81v-81h-81zM34 657v54h265v-54h-265zM134 0v558h63v-503h286v-55h-349z" />
    <glyph glyph-name="uni1E39" unicode="&#x1e39;" 
d="M260 -151v81h81v-81h-81zM168 743v54h265v-54h-265zM118 0v54h153v524h-153v54h212v-578h154v-54h-366z" />
    <glyph glyph-name="uni1E3A" unicode="&#x1e3a;" 
d="M187 -138v54h265v-54h-265zM134 0v558h63v-503h286v-55h-349z" />
    <glyph glyph-name="uni1E3B" unicode="&#x1e3b;" 
d="M169 -138v54h265v-54h-265zM118 0v54h153v524h-153v54h212v-578h154v-54h-366z" />
    <glyph glyph-name="uni1E3E" unicode="&#x1e3e;" 
d="M253 597l77 191h80l-120 -191h-37zM100 0v558h91l71 -203l39 -123l39 123l71 203h89v-558h-59v357l3 142l-117 -339h-54l-117 339l3 -142v-357h-59z" />
    <glyph glyph-name="uni1E3F" unicode="&#x1e3f;" 
d="M253 490l77 191h80l-120 -191h-37zM62 0v432h47v-64q43 74 115 74q70 0 95 -71q46 71 115 71q47 0 76 -34t29 -99v-309h-59v294q0 95 -60 95q-52 0 -90 -63v-326h-59v294q0 95 -60 95q-52 0 -90 -63v-326h-59z" />
    <glyph glyph-name="uni1E40" unicode="&#x1e40;" 
d="M259 658v81h81v-81h-81zM100 0v558h91l71 -203l39 -123l39 123l71 203h89v-558h-59v357l3 142l-117 -339h-54l-117 339l3 -142v-357h-59z" />
    <glyph glyph-name="uni1E41" unicode="&#x1e41;" 
d="M259 551v81h81v-81h-81zM62 0v432h47v-64q43 74 115 74q70 0 95 -71q46 71 115 71q47 0 76 -34t29 -99v-309h-59v294q0 95 -60 95q-52 0 -90 -63v-326h-59v294q0 95 -60 95q-52 0 -90 -63v-326h-59z" />
    <glyph glyph-name="uni1E42" unicode="&#x1e42;" 
d="M259 -151v81h81v-81h-81zM100 0v558h91l71 -203l39 -123l39 123l71 203h89v-558h-59v357l3 142l-117 -339h-54l-117 339l3 -142v-357h-59z" />
    <glyph glyph-name="uni1E43" unicode="&#x1e43;" 
d="M259 -151v81h81v-81h-81zM62 0v432h47v-64q43 74 115 74q70 0 95 -71q46 71 115 71q47 0 76 -34t29 -99v-309h-59v294q0 95 -60 95q-52 0 -90 -63v-326h-59v294q0 95 -60 95q-52 0 -90 -63v-326h-59z" />
    <glyph glyph-name="uni1E44" unicode="&#x1e44;" 
d="M259 658v81h81v-81h-81zM134 0v558h91l187 -495l-6 150v345h60v-558h-91l-187 495l6 -150v-345h-60z" />
    <glyph glyph-name="uni1E45" unicode="&#x1e45;" 
d="M259 551v81h81v-81h-81zM134 0v432h47v-55q45 65 141 65q145 0 145 -177v-265h-59v250q0 72 -21 105.5t-79 33.5q-74 0 -115 -47v-342h-59z" />
    <glyph glyph-name="uni1E46" unicode="&#x1e46;" 
d="M259 -151v81h81v-81h-81zM134 0v558h91l187 -495l-6 150v345h60v-558h-91l-187 495l6 -150v-345h-60z" />
    <glyph glyph-name="uni1E47" unicode="&#x1e47;" 
d="M260 -151v81h81v-81h-81zM134 0v432h47v-55q45 65 141 65q145 0 145 -177v-265h-59v250q0 72 -21 105.5t-79 33.5q-74 0 -115 -47v-342h-59z" />
    <glyph glyph-name="uni1E48" unicode="&#x1e48;" 
d="M168 -138v54h265v-54h-265zM134 0v558h91l187 -495l-6 150v345h60v-558h-91l-187 495l6 -150v-345h-60z" />
    <glyph glyph-name="uni1E49" unicode="&#x1e49;" 
d="M169 -138v54h265v-54h-265zM134 0v432h47v-55q45 65 141 65q145 0 145 -177v-265h-59v250q0 72 -21 105.5t-79 33.5q-74 0 -115 -47v-342h-59z" />
    <glyph glyph-name="uni1E56" unicode="&#x1e56;" 
d="M257 658v81h81v-81h-81zM134 0v558h148q109 0 168.5 -42.5t59.5 -127.5q0 -84 -59.5 -127t-168.5 -43h-85v-218h-63zM197 503v-230h86q162 0 162 115t-162 115h-86z" />
    <glyph glyph-name="uni1E57" unicode="&#x1e57;" 
d="M259 551v81h81v-81h-81zM134 -178v610h47v-55q52 65 139 65q76 0 128 -55t52 -169q0 -112 -51 -170t-128 -58t-128 56v-224h-59zM308 45q66 0 98.5 46t32.5 125t-32.5 125t-98.5 46q-69 0 -115 -46v-250q46 -46 115 -46z" />
    <glyph glyph-name="uni1E58" unicode="&#x1e58;" 
d="M249 658v81h81v-81h-81zM134 0v558h129q108 0 168 -42.5t60 -123.5q0 -66 -40 -107.5t-109 -57.5l186 -227h-80l-174 220h-77v-220h-63zM197 503v-230h67q84 0 123 31.5t39 83.5t-39 83.5t-123 31.5h-67z" />
    <glyph glyph-name="uni1E59" unicode="&#x1e59;" 
d="M271 551v81h81v-81h-81zM118 0v54h115v324h-115v54h162v-93q17 43 54 73t97 30q40 0 75 -13v-60q-34 13 -72 13q-52 0 -88.5 -25t-53.5 -59v-244h192v-54h-366z" />
    <glyph glyph-name="uni1E5A" unicode="&#x1e5a;" 
d="M277 -151v81h81v-81h-81zM134 0v558h129q108 0 168 -42.5t60 -123.5q0 -66 -40 -107.5t-109 -57.5l186 -227h-80l-174 220h-77v-220h-63zM197 503v-230h67q84 0 123 31.5t39 83.5t-39 83.5t-123 31.5h-67z" />
    <glyph glyph-name="uni1E5B" unicode="&#x1e5b;" 
d="M221 -151v81h81v-81h-81zM118 0v54h115v324h-115v54h162v-93q17 43 54 73t97 30q40 0 75 -13v-60q-34 13 -72 13q-52 0 -88.5 -25t-53.5 -59v-244h192v-54h-366z" />
    <glyph glyph-name="uni1E5C" unicode="&#x1e5c;" 
d="M277 -151v81h81v-81h-81zM158 657v54h265v-54h-265zM134 0v558h129q108 0 168 -42.5t60 -123.5q0 -66 -40 -107.5t-109 -57.5l186 -227h-80l-174 220h-77v-220h-63zM197 503v-230h67q84 0 123 31.5t39 83.5t-39 83.5t-123 31.5h-67z" />
    <glyph glyph-name="uni1E5D" unicode="&#x1e5d;" 
d="M221 -151v81h81v-81h-81zM180 550v54h265v-54h-265zM118 0v54h115v324h-115v54h162v-93q17 43 54 73t97 30q40 0 75 -13v-60q-34 13 -72 13q-52 0 -88.5 -25t-53.5 -59v-244h192v-54h-366z" />
    <glyph glyph-name="uni1E5E" unicode="&#x1e5e;" 
d="M186 -138v54h265v-54h-265zM134 0v558h129q108 0 168 -42.5t60 -123.5q0 -66 -40 -107.5t-109 -57.5l186 -227h-80l-174 220h-77v-220h-63zM197 503v-230h67q84 0 123 31.5t39 83.5t-39 83.5t-123 31.5h-67z" />
    <glyph glyph-name="uni1E5F" unicode="&#x1e5f;" 
d="M169 -138v54h265v-54h-265zM118 0v54h115v324h-115v54h162v-93q17 43 54 73t97 30q40 0 75 -13v-60q-34 13 -72 13q-52 0 -88.5 -25t-53.5 -59v-244h192v-54h-366z" />
    <glyph glyph-name="uni1E60" unicode="&#x1e60;" 
d="M259 658v81h81v-81h-81zM300 -10q-91 0 -145.5 42.5t-54.5 123.5h63q3 -52 38.5 -80.5t100.5 -28.5q61 0 98 25.5t37 72.5q0 62 -84 91l-119 42q-123 43 -123 144q0 70 52.5 108.5t133.5 38.5q83 0 133.5 -41.5t50.5 -122.5h-62q-4 107 -124 107q-58 0 -88.5 -24.5
t-30.5 -64.5q0 -60 76 -87l119 -42q69 -24 99.5 -57t30.5 -88q0 -79 -56 -119t-145 -40z" />
    <glyph glyph-name="uni1E61" unicode="&#x1e61;" 
d="M260 551v81h81v-81h-81zM310 -10q-91 0 -143.5 37.5t-56.5 109.5h58q10 -93 146 -93q115 0 115 70q0 36 -30 51.5t-106 33.5l-7.5 1.5t-6.5 1.5l-8 2q-37 9 -58.5 16t-44.5 20t-33.5 33.5t-10.5 48.5q0 61 47.5 90.5t125.5 29.5q175 0 186 -136h-58q-14 82 -129 82
q-112 0 -112 -62q0 -11 3 -20t12 -16t16.5 -11.5t25 -9.5t28.5 -8t36 -8.5t39 -8.5q75 -18 110 -43.5t35 -81.5q0 -68 -49 -98.5t-130 -30.5z" />
    <glyph glyph-name="uni1E62" unicode="&#x1e62;" 
d="M259 -151v81h81v-81h-81zM300 -10q-91 0 -145.5 42.5t-54.5 123.5h63q3 -52 38.5 -80.5t100.5 -28.5q61 0 98 25.5t37 72.5q0 62 -84 91l-119 42q-123 43 -123 144q0 70 52.5 108.5t133.5 38.5q83 0 133.5 -41.5t50.5 -122.5h-62q-4 107 -124 107q-58 0 -88.5 -24.5
t-30.5 -64.5q0 -60 76 -87l119 -42q69 -24 99.5 -57t30.5 -88q0 -79 -56 -119t-145 -40z" />
    <glyph glyph-name="uni1E63" unicode="&#x1e63;" 
d="M260 -151v81h81v-81h-81zM310 -10q-91 0 -143.5 37.5t-56.5 109.5h58q10 -93 146 -93q115 0 115 70q0 36 -30 51.5t-106 33.5l-7.5 1.5t-6.5 1.5l-8 2q-37 9 -58.5 16t-44.5 20t-33.5 33.5t-10.5 48.5q0 61 47.5 90.5t125.5 29.5q175 0 186 -136h-58q-14 82 -129 82
q-112 0 -112 -62q0 -11 3 -20t12 -16t16.5 -11.5t25 -9.5t28.5 -8t36 -8.5t39 -8.5q75 -18 110 -43.5t35 -81.5q0 -68 -49 -98.5t-130 -30.5z" />
    <glyph glyph-name="uni1E6C" unicode="&#x1e6c;" 
d="M259 -151v81h81v-81h-81zM268 0v503h-191v55h446v-55h-192v-503h-63z" />
    <glyph glyph-name="uni1E6D" unicode="&#x1e6d;" 
d="M323 -151v81h81v-81h-81zM380 -10q-82 0 -120.5 40t-38.5 141v207h-144v54h144v200h59v-200h212v-54h-212v-197q0 -75 22 -106t80 -31q47 0 99 16v-54q-44 -16 -101 -16z" />
    <glyph glyph-name="uni1E6E" unicode="&#x1e6e;" 
d="M168 -138v54h265v-54h-265zM268 0v503h-191v55h446v-55h-192v-503h-63z" />
    <glyph glyph-name="uni1E6F" unicode="&#x1e6f;" 
d="M232 -138v54h265v-54h-265zM380 -10q-82 0 -120.5 40t-38.5 141v207h-144v54h144v200h59v-200h212v-54h-212v-197q0 -75 22 -106t80 -31q47 0 99 16v-54q-44 -16 -101 -16z" />
    <glyph glyph-name="uni1E7E" unicode="&#x1e7e;" 
d="M259 -151v81h81v-81h-81zM261 0l-195 558h69l102 -303l63 -193l64 193l102 303h68l-195 -558h-78z" />
    <glyph glyph-name="uni1E7F" unicode="&#x1e7f;" 
d="M261 -151v81h81v-81h-81zM267 0l-184 432h65l87 -214l66 -161l61 151l91 224h64l-184 -432h-66z" />
    <glyph glyph-name="Wgrave" unicode="&#x1e80;" 
d="M311 597l-120 191h80l77 -191h-37zM126 0l-73 558h63l38 -321l21 -182l91 310h69l91 -310l21 182l38 321h62l-73 -558h-88l-86 291l-86 -291h-88z" />
    <glyph glyph-name="wgrave" unicode="&#x1e81;" 
d="M311 490l-120 191h80l77 -191h-37zM137 0l-75 432h59l59 -377l87 284h66l87 -284l60 377h58l-75 -432h-78l-85 276l-85 -276h-78z" />
    <glyph glyph-name="Wacute" unicode="&#x1e82;" 
d="M253 597l77 191h80l-120 -191h-37zM126 0l-73 558h63l38 -321l21 -182l91 310h69l91 -310l21 182l38 321h62l-73 -558h-88l-86 291l-86 -291h-88z" />
    <glyph glyph-name="wacute" unicode="&#x1e83;" 
d="M253 490l77 191h80l-120 -191h-37zM137 0l-75 432h59l59 -377l87 284h66l87 -284l60 377h58l-75 -432h-78l-85 276l-85 -276h-78z" />
    <glyph glyph-name="Wdieresis" unicode="&#x1e84;" 
d="M159 658v81h81v-81h-81zM360 658v81h81v-81h-81zM126 0l-73 558h63l38 -321l21 -182l91 310h69l91 -310l21 182l38 321h62l-73 -558h-88l-86 291l-86 -291h-88z" />
    <glyph glyph-name="wdieresis" unicode="&#x1e85;" 
d="M159 551v81h81v-81h-81zM360 551v81h81v-81h-81zM137 0l-75 432h59l59 -377l87 284h66l87 -284l60 377h58l-75 -432h-78l-85 276l-85 -276h-78z" />
    <glyph glyph-name="uni1E86" unicode="&#x1e86;" 
d="M259 658v81h81v-81h-81zM126 0l-73 558h63l38 -321l21 -182l91 310h69l91 -310l21 182l38 321h62l-73 -558h-88l-86 291l-86 -291h-88z" />
    <glyph glyph-name="uni1E87" unicode="&#x1e87;" 
d="M259 551v81h81v-81h-81zM137 0l-75 432h59l59 -377l87 284h66l87 -284l60 377h58l-75 -432h-78l-85 276l-85 -276h-78z" />
    <glyph glyph-name="uni1E88" unicode="&#x1e88;" 
d="M259 -151v81h81v-81h-81zM126 0l-73 558h63l38 -321l21 -182l91 310h69l91 -310l21 182l38 321h62l-73 -558h-88l-86 291l-86 -291h-88z" />
    <glyph glyph-name="uni1E89" unicode="&#x1e89;" 
d="M259 -151v81h81v-81h-81zM137 0l-75 432h59l59 -377l87 284h66l87 -284l60 377h58l-75 -432h-78l-85 276l-85 -276h-78z" />
    <glyph glyph-name="uni1E8A" unicode="&#x1e8a;" 
d="M259 658v81h81v-81h-81zM63 0l199 287l-188 271h76l89 -134l60 -91l60 91l89 134h78l-188 -271l199 -287h-76l-100 150l-60 91l-60 -91l-100 -150h-78z" />
    <glyph glyph-name="uni1E8B" unicode="&#x1e8b;" 
d="M260 551v81h81v-81h-81zM70 0l194 222l-185 210h73l149 -172l148 172h71l-184 -211l195 -221h-73l-160 183l-157 -183h-71z" />
    <glyph glyph-name="uni1E8E" unicode="&#x1e8e;" 
d="M260 658v81h81v-81h-81zM269 0v226l-221 332h73l90 -136l91 -144l90 144l88 136h73l-221 -334v-224h-63z" />
    <glyph glyph-name="uni1E8F" unicode="&#x1e8f;" 
d="M259 551v81h81v-81h-81zM88 -183v54q68 0 108.5 29t69.5 98l-185 434h65l87 -214l66 -161l61 151l91 224h64l-186 -437q-42 -98 -96.5 -138t-144.5 -40z" />
    <glyph glyph-name="uni1E92" unicode="&#x1e92;" 
d="M259 -151v81h81v-81h-81zM107 0v50l308 453h-303v55h377v-50l-309 -453h312v-55h-385z" />
    <glyph glyph-name="uni1E93" unicode="&#x1e93;" 
d="M259 -151v81h81v-81h-81zM118 0v44l278 334h-273v54h355v-44l-278 -333h283v-55h-365z" />
    <glyph glyph-name="uni1E97" unicode="&#x1e97;" 
d="M110 744v81h81v-81h-81zM311 744v81h81v-81h-81zM380 -10q-82 0 -120.5 40t-38.5 141v207h-144v54h144v200h59v-200h212v-54h-212v-197q0 -75 22 -106t80 -31q47 0 99 16v-54q-44 -16 -101 -16z" />
    <glyph glyph-name="uni1E9E" unicode="&#x1e9e;" 
d="M273 309l142 194h-218v-503h-63v558h351v-52l-149 -203q83 -16 132 -59t49 -113q0 -67 -44 -104t-113 -37q-56 0 -87 18v57q43 -21 88 -21q43 0 67.5 22.5t24.5 62.5q0 107 -180 131v49z" />
    <glyph glyph-name="uni1EA0" unicode="&#x1ea0;" 
d="M259 -151v81h81v-81h-81zM67 0l198 558h70l198 -558h-70l-47 139h-233l-48 -139h-68zM235 297l-35 -103h197l-34 101l-64 197z" />
    <glyph glyph-name="uni1EA1" unicode="&#x1ea1;" 
d="M272 -151v81h81v-81h-81zM244 -10q-66 0 -106 30t-40 91q0 68 48 96t119 28t127 -18v40q0 32 -3 52t-13.5 40.5t-33.5 30t-60 9.5q-117 0 -117 -100h-59q0 45 17 77t46 47.5t57.5 22t60.5 6.5q164 0 164 -168v-209q0 -13 5.5 -17.5t19.5 -4.5q23 0 54 7v-46
q-35 -14 -70 -14q-60 0 -60 57v8q-50 -65 -156 -65zM248 44q82 0 144 46v82q-51 12 -119 12q-58 0 -87.5 -16.5t-29.5 -55.5q0 -68 92 -68z" />
    <glyph glyph-name="uni1EA2" unicode="&#x1ea2;" 
d="M295 597l-21 25q64 53 64 85q0 37 -46 37q-45 0 -45 -38h-47q0 84 95 84q48 0 72 -21t24 -53q0 -30 -22.5 -57t-73.5 -62zM67 0l198 558h70l198 -558h-70l-47 139h-233l-48 -139h-68zM235 297l-35 -103h197l-34 101l-64 197z" />
    <glyph glyph-name="uni1EA3" unicode="&#x1ea3;" 
d="M291 490l-21 25q64 53 64 85q0 37 -46 37q-45 0 -45 -38h-47q0 84 95 84q48 0 72 -21t24 -53q0 -30 -22.5 -57t-73.5 -62zM244 -10q-66 0 -106 30t-40 91q0 68 48 96t119 28t127 -18v40q0 32 -3 52t-13.5 40.5t-33.5 30t-60 9.5q-117 0 -117 -100h-59q0 45 17 77t46 47.5
t57.5 22t60.5 6.5q164 0 164 -168v-209q0 -13 5.5 -17.5t19.5 -4.5q23 0 54 7v-46q-35 -14 -70 -14q-60 0 -60 57v8q-50 -65 -156 -65zM248 44q82 0 144 46v82q-51 12 -119 12q-58 0 -87.5 -16.5t-29.5 -55.5q0 -68 92 -68z" />
    <glyph glyph-name="uni1EA4" unicode="&#x1ea4;" 
d="M332 765l100 -168h-40l-92 106l-92 -106h-40l100 168h64zM397 711l52 147h76l-95 -147h-33zM67 0l198 558h70l198 -558h-70l-47 139h-233l-48 -139h-68zM235 297l-35 -103h197l-34 101l-64 197z" />
    <glyph glyph-name="uni1EA5" unicode="&#x1ea5;" 
d="M164 490l100 191h64l100 -191h-40l-92 123l-92 -123h-40zM389 664l77 191h80l-120 -191h-37zM244 -10q-66 0 -106 30t-40 91q0 68 48 96t119 28t127 -18v40q0 32 -3 52t-13.5 40.5t-33.5 30t-60 9.5q-117 0 -117 -100h-59q0 45 17 77t46 47.5t57.5 22t60.5 6.5
q164 0 164 -168v-209q0 -13 5.5 -17.5t19.5 -4.5q23 0 54 7v-46q-35 -14 -70 -14q-60 0 -60 57v8q-50 -65 -156 -65zM248 44q82 0 144 46v82q-51 12 -119 12q-58 0 -87.5 -16.5t-29.5 -55.5q0 -68 92 -68z" />
    <glyph glyph-name="uni1EA6" unicode="&#x1ea6;" 
d="M168 597l100 168h64l100 -168h-40l-92 106l-92 -106h-40zM151 858l52 -147h-33l-95 147h76zM67 0l198 558h70l198 -558h-70l-47 139h-233l-48 -139h-68zM235 297l-35 -103h197l-34 101l-64 197z" />
    <glyph glyph-name="uni1EA7" unicode="&#x1ea7;" 
d="M164 490l100 191h64l100 -191h-40l-92 123l-92 -123h-40zM166 664l-120 191h80l77 -191h-37zM244 -10q-66 0 -106 30t-40 91q0 68 48 96t119 28t127 -18v40q0 32 -3 52t-13.5 40.5t-33.5 30t-60 9.5q-117 0 -117 -100h-59q0 45 17 77t46 47.5t57.5 22t60.5 6.5
q164 0 164 -168v-209q0 -13 5.5 -17.5t19.5 -4.5q23 0 54 7v-46q-35 -14 -70 -14q-60 0 -60 57v8q-50 -65 -156 -65zM248 44q82 0 144 46v82q-51 12 -119 12q-58 0 -87.5 -16.5t-29.5 -55.5q0 -68 92 -68z" />
    <glyph glyph-name="uni1EA8" unicode="&#x1ea8;" 
d="M330 750l102 -153h-40l-92 94l-92 -94h-40l102 153h60zM427 673l-21 25q64 53 64 85q0 37 -46 37q-45 0 -45 -38h-47q0 84 95 84q48 0 72 -21t24 -53q0 -30 -22.5 -57t-73.5 -62zM67 0l198 558h70l198 -558h-70l-47 139h-233l-48 -139h-68zM235 297l-35 -103h197l-34 101
l-64 197z" />
    <glyph glyph-name="uni1EA9" unicode="&#x1ea9;" 
d="M164 490l100 191h64l100 -191h-40l-92 123l-92 -123h-40zM398 666l-21 25q64 53 64 85q0 37 -46 37q-45 0 -45 -38h-47q0 84 95 84q48 0 72 -21t24 -53q0 -30 -23 -57t-73 -62zM244 -10q-66 0 -106 30t-40 91q0 68 48 96t119 28t127 -18v40q0 32 -3 52t-13.5 40.5
t-33.5 30t-60 9.5q-117 0 -117 -100h-59q0 45 17 77t46 47.5t57.5 22t60.5 6.5q164 0 164 -168v-209q0 -13 5.5 -17.5t19.5 -4.5q23 0 54 7v-46q-35 -14 -70 -14q-60 0 -60 57v8q-50 -65 -156 -65zM248 44q82 0 144 46v82q-51 12 -119 12q-58 0 -87.5 -16.5t-29.5 -55.5
q0 -68 92 -68z" />
    <glyph glyph-name="uni1EAA" unicode="&#x1eaa;" 
d="M170 761l-28 13q15 37 42 64t62 27q28 0 67 -29q29 -21 49 -21q40 0 68 50l28 -13q-15 -37 -42 -64t-62 -27q-27 0 -63 26q-34 24 -53 24q-40 0 -68 -50zM330 742l102 -145h-40l-92 86l-92 -86h-40l102 145h60zM67 0l198 558h70l198 -558h-70l-47 139h-233l-48 -139h-68z
M235 297l-35 -103h197l-34 101l-64 197z" />
    <glyph glyph-name="uni1EAB" unicode="&#x1eab;" 
d="M164 490l100 191h64l100 -191h-40l-92 123l-92 -123h-40zM167 718l-30 14q15 46 43 80.5t63 34.5q30 0 68 -40q26 -28 45 -28q35 0 69 68l30 -14q-15 -46 -43 -80.5t-63 -34.5q-28 0 -60 32q-34 36 -53 36q-35 0 -69 -68zM244 -10q-66 0 -106 30t-40 91q0 68 48 96
t119 28t127 -18v40q0 32 -3 52t-13.5 40.5t-33.5 30t-60 9.5q-117 0 -117 -100h-59q0 45 17 77t46 47.5t57.5 22t60.5 6.5q164 0 164 -168v-209q0 -13 5.5 -17.5t19.5 -4.5q23 0 54 7v-46q-35 -14 -70 -14q-60 0 -60 57v8q-50 -65 -156 -65zM248 44q82 0 144 46v82
q-51 12 -119 12q-58 0 -87.5 -16.5t-29.5 -55.5q0 -68 92 -68z" />
    <glyph glyph-name="uni1EAC" unicode="&#x1eac;" 
d="M259 -151v81h81v-81h-81zM168 597l100 191h64l100 -191h-40l-92 123l-92 -123h-40zM67 0l198 558h70l198 -558h-70l-47 139h-233l-48 -139h-68zM235 297l-35 -103h197l-34 101l-64 197z" />
    <glyph glyph-name="uni1EAD" unicode="&#x1ead;" 
d="M272 -151v81h81v-81h-81zM164 490l100 191h64l100 -191h-40l-92 123l-92 -123h-40zM244 -10q-66 0 -106 30t-40 91q0 68 48 96t119 28t127 -18v40q0 32 -3 52t-13.5 40.5t-33.5 30t-60 9.5q-117 0 -117 -100h-59q0 45 17 77t46 47.5t57.5 22t60.5 6.5q164 0 164 -168
v-209q0 -13 5.5 -17.5t19.5 -4.5q23 0 54 7v-46q-35 -14 -70 -14q-60 0 -60 57v8q-50 -65 -156 -65zM248 44q82 0 144 46v82q-51 12 -119 12q-58 0 -87.5 -16.5t-29.5 -55.5q0 -68 92 -68z" />
    <glyph glyph-name="uni1EAE" unicode="&#x1eae;" 
d="M300 604q-59 0 -96.5 37t-52.5 79l28 17q48 -74 121 -74t121 74l28 -17q-15 -42 -52.5 -79t-96.5 -37zM284 711l52 147h76l-95 -147h-33zM67 0l198 558h70l198 -558h-70l-47 139h-233l-48 -139h-68zM235 297l-35 -103h197l-34 101l-64 197z" />
    <glyph glyph-name="uni1EAF" unicode="&#x1eaf;" 
d="M296 528q-59 0 -96.5 37t-52.5 79l28 17q48 -74 121 -74t121 74l28 -17q-15 -42 -52.5 -79t-96.5 -37zM279 664l77 191h80l-120 -191h-37zM244 -10q-66 0 -106 30t-40 91q0 68 48 96t119 28t127 -18v40q0 32 -3 52t-13.5 40.5t-33.5 30t-60 9.5q-117 0 -117 -100h-59
q0 45 17 77t46 47.5t57.5 22t60.5 6.5q164 0 164 -168v-209q0 -13 5.5 -17.5t19.5 -4.5q23 0 54 7v-46q-35 -14 -70 -14q-60 0 -60 57v8q-50 -65 -156 -65zM248 44q82 0 144 46v82q-51 12 -119 12q-58 0 -87.5 -16.5t-29.5 -55.5q0 -68 92 -68z" />
    <glyph glyph-name="uni1EB0" unicode="&#x1eb0;" 
d="M300 604q-59 0 -96.5 37t-52.5 79l28 17q48 -74 121 -74t121 74l28 -17q-15 -42 -52.5 -79t-96.5 -37zM264 858l52 -147h-33l-95 147h76zM67 0l198 558h70l198 -558h-70l-47 139h-233l-48 -139h-68zM235 297l-35 -103h197l-34 101l-64 197z" />
    <glyph glyph-name="uni1EB1" unicode="&#x1eb1;" 
d="M296 528q-59 0 -96.5 37t-52.5 79l28 17q48 -74 121 -74t121 74l28 -17q-15 -42 -52.5 -79t-96.5 -37zM279 664l-120 191h80l77 -191h-37zM244 -10q-66 0 -106 30t-40 91q0 68 48 96t119 28t127 -18v40q0 32 -3 52t-13.5 40.5t-33.5 30t-60 9.5q-117 0 -117 -100h-59
q0 45 17 77t46 47.5t57.5 22t60.5 6.5q164 0 164 -168v-209q0 -13 5.5 -17.5t19.5 -4.5q23 0 54 7v-46q-35 -14 -70 -14q-60 0 -60 57v8q-50 -65 -156 -65zM248 44q82 0 144 46v82q-51 12 -119 12q-58 0 -87.5 -16.5t-29.5 -55.5q0 -68 92 -68z" />
    <glyph glyph-name="uni1EB2" unicode="&#x1eb2;" 
d="M300 604q-59 0 -96.5 37t-52.5 79l28 17q48 -76 121 -76t121 76l28 -17q-15 -42 -52.5 -79t-96.5 -37zM278 699l-9 30q74 20 74 56q0 35 -45 35q-46 0 -46 -38h-47q0 84 95 84q47 0 71.5 -20t24.5 -50q0 -33 -31 -59.5t-87 -37.5zM67 0l198 558h70l198 -558h-70l-47 139
h-233l-48 -139h-68zM235 297l-35 -103h197l-34 101l-64 197z" />
    <glyph glyph-name="uni1EB3" unicode="&#x1eb3;" 
d="M296 528q-59 0 -96.5 37t-52.5 79l28 17q48 -74 121 -74t121 74l28 -17q-15 -42 -52.5 -79t-96.5 -37zM297 666l-21 25q64 53 64 84q0 34 -46 34q-45 0 -45 -34h-47q0 84 96 84q47 0 71 -21t24 -53q0 -30 -22.5 -57t-73.5 -62zM244 -10q-66 0 -106 30t-40 91q0 68 48 96
t119 28t127 -18v40q0 32 -3 52t-13.5 40.5t-33.5 30t-60 9.5q-117 0 -117 -100h-59q0 45 17 77t46 47.5t57.5 22t60.5 6.5q164 0 164 -168v-209q0 -13 5.5 -17.5t19.5 -4.5q23 0 54 7v-46q-35 -14 -70 -14q-60 0 -60 57v8q-50 -65 -156 -65zM248 44q82 0 144 46v82
q-51 12 -119 12q-58 0 -87.5 -16.5t-29.5 -55.5q0 -68 92 -68z" />
    <glyph glyph-name="uni1EB4" unicode="&#x1eb4;" 
d="M300 604q-59 0 -96.5 37t-52.5 79l28 17q48 -74 121 -74t121 74l28 -17q-15 -42 -52.5 -79t-96.5 -37zM170 761l-28 13q15 37 42 64t62 27q27 0 66 -28q32 -22 50 -22q40 0 68 50l28 -13q-15 -37 -42 -64t-62 -27q-29 0 -63 26q-34 24 -53 24q-40 0 -68 -50zM67 0
l198 558h70l198 -558h-70l-47 139h-233l-48 -139h-68zM235 297l-35 -103h197l-34 101l-64 197z" />
    <glyph glyph-name="uni1EB5" unicode="&#x1eb5;" 
d="M296 528q-59 0 -96.5 37t-52.5 79l28 17q48 -74 121 -74t121 74l28 -17q-15 -42 -52.5 -79t-96.5 -37zM167 718l-30 14q15 46 43 80.5t63 34.5q28 0 66 -38q30 -30 47 -30q35 0 69 68l30 -14q-15 -46 -43 -80.5t-63 -34.5q-28 0 -62 34t-51 34q-35 0 -69 -68zM244 -10
q-66 0 -106 30t-40 91q0 68 48 96t119 28t127 -18v40q0 32 -3 52t-13.5 40.5t-33.5 30t-60 9.5q-117 0 -117 -100h-59q0 45 17 77t46 47.5t57.5 22t60.5 6.5q164 0 164 -168v-209q0 -13 5.5 -17.5t19.5 -4.5q23 0 54 7v-46q-35 -14 -70 -14q-60 0 -60 57v8q-50 -65 -156 -65
zM248 44q82 0 144 46v82q-51 12 -119 12q-58 0 -87.5 -16.5t-29.5 -55.5q0 -68 92 -68z" />
    <glyph glyph-name="uni1EB6" unicode="&#x1eb6;" 
d="M259 -151v81h81v-81h-81zM300 635q-59 0 -96.5 37t-52.5 79l28 17q48 -74 121 -74t121 74l28 -17q-15 -42 -52.5 -79t-96.5 -37zM67 0l198 558h70l198 -558h-70l-47 139h-233l-48 -139h-68zM235 297l-35 -103h197l-34 101l-64 197z" />
    <glyph glyph-name="uni1EB7" unicode="&#x1eb7;" 
d="M272 -151v81h81v-81h-81zM296 528q-59 0 -96.5 37t-52.5 79l28 17q48 -74 121 -74t121 74l28 -17q-15 -42 -52.5 -79t-96.5 -37zM244 -10q-66 0 -106 30t-40 91q0 68 48 96t119 28t127 -18v40q0 32 -3 52t-13.5 40.5t-33.5 30t-60 9.5q-117 0 -117 -100h-59q0 45 17 77
t46 47.5t57.5 22t60.5 6.5q164 0 164 -168v-209q0 -13 5.5 -17.5t19.5 -4.5q23 0 54 7v-46q-35 -14 -70 -14q-60 0 -60 57v8q-50 -65 -156 -65zM248 44q82 0 144 46v82q-51 12 -119 12q-58 0 -87.5 -16.5t-29.5 -55.5q0 -68 92 -68z" />
    <glyph glyph-name="uni1EB8" unicode="&#x1eb8;" 
d="M265 -151v81h81v-81h-81zM134 0v558h344v-55h-281v-190h247v-55h-247v-203h281v-55h-344z" />
    <glyph glyph-name="uni1EB9" unicode="&#x1eb9;" 
d="M258 -151v81h81v-81h-81zM304 -10q-88 0 -146 55.5t-58 169.5q0 62 18 108t49 71t65 36.5t72 11.5q36 0 69 -11t63.5 -35t48.5 -70t18 -109v-14h-344q8 -161 148 -161q56 0 91.5 25.5t44.5 72.5h59q-7 -55 -42 -90.5t-74 -47.5t-82 -12zM160 252h282q-16 138 -142 138
q-127 0 -140 -138z" />
    <glyph glyph-name="uni1EBA" unicode="&#x1eba;" 
d="M304 597l-21 25q64 53 64 85q0 37 -46 37q-45 0 -45 -38h-47q0 84 95 84q48 0 72 -21t24 -53q0 -30 -23 -57t-73 -62zM134 0v558h344v-55h-281v-190h247v-55h-247v-203h281v-55h-344z" />
    <glyph glyph-name="uni1EBB" unicode="&#x1ebb;" 
d="M294 490l-21 25q64 53 64 85q0 37 -46 37q-45 0 -45 -38h-47q0 84 95 84q48 0 72 -21t24 -53q0 -30 -23 -57t-73 -62zM304 -10q-88 0 -146 55.5t-58 169.5q0 62 18 108t49 71t65 36.5t72 11.5q36 0 69 -11t63.5 -35t48.5 -70t18 -109v-14h-344q8 -161 148 -161
q56 0 91.5 25.5t44.5 72.5h59q-7 -55 -42 -90.5t-74 -47.5t-82 -12zM160 252h282q-16 138 -142 138q-127 0 -140 -138z" />
    <glyph glyph-name="uni1EBC" unicode="&#x1ebc;" 
d="M180 627l-30 14q15 46 43 80.5t63 34.5q30 0 67 -39q29 -29 46 -29q35 0 69 68l30 -14q-15 -46 -43 -80.5t-63 -34.5q-28 0 -66 38q-28 30 -47 30q-35 0 -69 -68zM134 0v558h344v-55h-281v-190h247v-55h-247v-203h281v-55h-344z" />
    <glyph glyph-name="uni1EBD" unicode="&#x1ebd;" 
d="M170 520l-30 14q15 46 43 80.5t63 34.5q30 0 67 -39q29 -29 46 -29q35 0 69 68l30 -14q-15 -46 -43 -80.5t-63 -34.5q-28 0 -66 38q-28 30 -47 30q-35 0 -69 -68zM304 -10q-88 0 -146 55.5t-58 169.5q0 62 18 108t49 71t65 36.5t72 11.5q36 0 69 -11t63.5 -35t48.5 -70
t18 -109v-14h-344q8 -161 148 -161q56 0 91.5 25.5t44.5 72.5h59q-7 -55 -42 -90.5t-74 -47.5t-82 -12zM160 252h282q-16 138 -142 138q-127 0 -140 -138z" />
    <glyph glyph-name="uni1EBE" unicode="&#x1ebe;" 
d="M341 765l100 -168h-40l-92 106l-92 -106h-40l100 168h64zM406 711l52 147h76l-95 -147h-33zM134 0v558h344v-55h-281v-190h247v-55h-247v-203h281v-55h-344z" />
    <glyph glyph-name="uni1EBF" unicode="&#x1ebf;" 
d="M167 490l100 191h64l100 -191h-40l-92 123l-92 -123h-40zM392 664l77 191h80l-120 -191h-37zM304 -10q-88 0 -146 55.5t-58 169.5q0 62 18 108t49 71t65 36.5t72 11.5q36 0 69 -11t63.5 -35t48.5 -70t18 -109v-14h-344q8 -161 148 -161q56 0 91.5 25.5t44.5 72.5h59
q-7 -55 -42 -90.5t-74 -47.5t-82 -12zM160 252h282q-16 138 -142 138q-127 0 -140 -138z" />
    <glyph glyph-name="uni1EC0" unicode="&#x1ec0;" 
d="M177 597l100 168h64l100 -168h-40l-92 106l-92 -106h-40zM160 858l52 -147h-33l-95 147h76zM134 0v558h344v-55h-281v-190h247v-55h-247v-203h281v-55h-344z" />
    <glyph glyph-name="uni1EC1" unicode="&#x1ec1;" 
d="M167 490l100 191h64l100 -191h-40l-92 123l-92 -123h-40zM169 664l-120 191h80l77 -191h-37zM304 -10q-88 0 -146 55.5t-58 169.5q0 62 18 108t49 71t65 36.5t72 11.5q36 0 69 -11t63.5 -35t48.5 -70t18 -109v-14h-344q8 -161 148 -161q56 0 91.5 25.5t44.5 72.5h59
q-7 -55 -42 -90.5t-74 -47.5t-82 -12zM160 252h282q-16 138 -142 138q-127 0 -140 -138z" />
    <glyph glyph-name="uni1EC2" unicode="&#x1ec2;" 
d="M339 750l102 -153h-40l-92 94l-92 -94h-40l102 153h60zM436 673l-21 25q64 53 64 85q0 37 -46 37q-45 0 -45 -38h-47q0 84 95 84q48 0 72 -21t24 -53q0 -30 -23 -57t-73 -62zM134 0v558h344v-55h-281v-190h247v-55h-247v-203h281v-55h-344z" />
    <glyph glyph-name="uni1EC3" unicode="&#x1ec3;" 
d="M167 490l100 191h64l100 -191h-40l-92 123l-92 -123h-40zM401 666l-21 25q64 53 64 85q0 37 -46 37q-45 0 -45 -38h-47q0 84 95 84q48 0 72 -21t24 -53q0 -30 -22.5 -57t-73.5 -62zM304 -10q-88 0 -146 55.5t-58 169.5q0 62 18 108t49 71t65 36.5t72 11.5q36 0 69 -11
t63.5 -35t48.5 -70t18 -109v-14h-344q8 -161 148 -161q56 0 91.5 25.5t44.5 72.5h59q-7 -55 -42 -90.5t-74 -47.5t-82 -12zM160 252h282q-16 138 -142 138q-127 0 -140 -138z" />
    <glyph glyph-name="uni1EC4" unicode="&#x1ec4;" 
d="M179 761l-28 13q15 37 42 64t62 27q28 0 67 -29q29 -21 49 -21q40 0 68 50l28 -13q-15 -37 -42 -64t-62 -27q-27 0 -63 26q-34 24 -53 24q-40 0 -68 -50zM339 742l102 -145h-40l-92 86l-92 -86h-40l102 145h60zM134 0v558h344v-55h-281v-190h247v-55h-247v-203h281v-55
h-344z" />
    <glyph glyph-name="uni1EC5" unicode="&#x1ec5;" 
d="M167 490l100 191h64l100 -191h-40l-92 123l-92 -123h-40zM170 718l-30 14q15 46 43 80.5t63 34.5q30 0 68 -40q26 -28 45 -28q35 0 69 68l30 -14q-15 -46 -43 -80.5t-63 -34.5q-28 0 -60 32q-34 36 -53 36q-35 0 -69 -68zM304 -10q-88 0 -146 55.5t-58 169.5q0 62 18 108
t49 71t65 36.5t72 11.5q36 0 69 -11t63.5 -35t48.5 -70t18 -109v-14h-344q8 -161 148 -161q56 0 91.5 25.5t44.5 72.5h59q-7 -55 -42 -90.5t-74 -47.5t-82 -12zM160 252h282q-16 138 -142 138q-127 0 -140 -138z" />
    <glyph glyph-name="uni1EC6" unicode="&#x1ec6;" 
d="M265 -151v81h81v-81h-81zM177 597l100 191h64l100 -191h-40l-92 123l-92 -123h-40zM134 0v558h344v-55h-281v-190h247v-55h-247v-203h281v-55h-344z" />
    <glyph glyph-name="uni1EC7" unicode="&#x1ec7;" 
d="M258 -151v81h81v-81h-81zM167 490l100 191h64l100 -191h-40l-92 123l-92 -123h-40zM304 -10q-88 0 -146 55.5t-58 169.5q0 62 18 108t49 71t65 36.5t72 11.5q36 0 69 -11t63.5 -35t48.5 -70t18 -109v-14h-344q8 -161 148 -161q56 0 91.5 25.5t44.5 72.5h59
q-7 -55 -42 -90.5t-74 -47.5t-82 -12zM160 252h282q-16 138 -142 138q-127 0 -140 -138z" />
    <glyph glyph-name="uni1EC8" unicode="&#x1ec8;" 
d="M295 597l-21 25q64 53 64 85q0 37 -46 37q-45 0 -45 -38h-47q0 84 95 84q48 0 72 -21t24 -53q0 -30 -22.5 -57t-73.5 -62zM133 0v55h136v448h-136v55h335v-55h-136v-448h136v-55h-335z" />
    <glyph glyph-name="uni1EC9" unicode="&#x1ec9;" 
d="M302 490l-21 25q64 53 64 85q0 37 -46 37q-45 0 -45 -38h-47q0 84 95 84q48 0 72 -21t24 -53q0 -30 -23 -57t-73 -62zM118 0v54h160v324h-160v54h219v-378h147v-54h-366z" />
    <glyph glyph-name="uni1ECA" unicode="&#x1eca;" 
d="M259 -151v81h81v-81h-81zM133 0v55h136v448h-136v55h335v-55h-136v-448h136v-55h-335z" />
    <glyph glyph-name="uni1ECB" unicode="&#x1ecb;" 
d="M266 -151v81h81v-81h-81zM118 0v54h160v324h-160v54h219v-378h147v-54h-366zM267 551v81h81v-81h-81z" />
    <glyph glyph-name="uni1ECC" unicode="&#x1ecc;" 
d="M259 -151v81h81v-81h-81zM299 -10q-104 0 -157 77.5t-53 209.5q0 135 54 213.5t158 78.5t157 -78t53 -210q0 -135 -54 -213t-158 -78zM300 46q146 0 146 233q0 234 -146 234t-146 -234q0 -233 146 -233z" />
    <glyph glyph-name="uni1ECD" unicode="&#x1ecd;" 
d="M259 -151v81h81v-81h-81zM299 -10q-38 0 -71.5 11t-63 35.5t-47 70.5t-17.5 108q0 121 59 174t142 53q38 0 71.5 -11t63 -35.5t47 -70.5t17.5 -108q0 -121 -59 -174t-142 -53zM300 45q139 0 139 171t-139 171t-139 -171t139 -171z" />
    <glyph glyph-name="uni1ECE" unicode="&#x1ece;" 
d="M295 597l-21 25q64 53 64 85q0 37 -46 37q-45 0 -45 -38h-47q0 84 95 84q48 0 72 -21t24 -53q0 -30 -22.5 -57t-73.5 -62zM299 -10q-104 0 -157 77.5t-53 209.5q0 135 54 213.5t158 78.5t157 -78t53 -210q0 -135 -54 -213t-158 -78zM300 46q146 0 146 233q0 234 -146 234
t-146 -234q0 -233 146 -233z" />
    <glyph glyph-name="uni1ECF" unicode="&#x1ecf;" 
d="M295 490l-21 25q64 53 64 85q0 37 -46 37q-45 0 -45 -38h-47q0 84 95 84q48 0 72 -21t24 -53q0 -30 -22.5 -57t-73.5 -62zM299 -10q-38 0 -71.5 11t-63 35.5t-47 70.5t-17.5 108q0 121 59 174t142 53q38 0 71.5 -11t63 -35.5t47 -70.5t17.5 -108q0 -121 -59 -174
t-142 -53zM300 45q139 0 139 171t-139 171t-139 -171t139 -171z" />
    <glyph glyph-name="uni1ED0" unicode="&#x1ed0;" 
d="M332 765l100 -168h-40l-92 106l-92 -106h-40l100 168h64zM397 711l52 147h76l-95 -147h-33zM299 -10q-104 0 -157 77.5t-53 209.5q0 135 54 213.5t158 78.5t157 -78t53 -210q0 -135 -54 -213t-158 -78zM300 46q146 0 146 233q0 234 -146 234t-146 -234q0 -233 146 -233z
" />
    <glyph glyph-name="uni1ED1" unicode="&#x1ed1;" 
d="M168 490l100 191h64l100 -191h-40l-92 123l-92 -123h-40zM393 664l77 191h80l-120 -191h-37zM299 -10q-38 0 -71.5 11t-63 35.5t-47 70.5t-17.5 108q0 121 59 174t142 53q38 0 71.5 -11t63 -35.5t47 -70.5t17.5 -108q0 -121 -59 -174t-142 -53zM300 45q139 0 139 171
t-139 171t-139 -171t139 -171z" />
    <glyph glyph-name="uni1ED2" unicode="&#x1ed2;" 
d="M168 597l100 168h64l100 -168h-40l-92 106l-92 -106h-40zM151 858l52 -147h-33l-95 147h76zM299 -10q-104 0 -157 77.5t-53 209.5q0 135 54 213.5t158 78.5t157 -78t53 -210q0 -135 -54 -213t-158 -78zM300 46q146 0 146 233q0 234 -146 234t-146 -234q0 -233 146 -233z
" />
    <glyph glyph-name="uni1ED3" unicode="&#x1ed3;" 
d="M168 490l100 191h64l100 -191h-40l-92 123l-92 -123h-40zM170 664l-120 191h80l77 -191h-37zM299 -10q-38 0 -71.5 11t-63 35.5t-47 70.5t-17.5 108q0 121 59 174t142 53q38 0 71.5 -11t63 -35.5t47 -70.5t17.5 -108q0 -121 -59 -174t-142 -53zM300 45q139 0 139 171
t-139 171t-139 -171t139 -171z" />
    <glyph glyph-name="uni1ED4" unicode="&#x1ed4;" 
d="M330 750l102 -153h-40l-92 94l-92 -94h-40l102 153h60zM427 673l-21 25q64 53 64 85q0 37 -46 37q-45 0 -45 -38h-47q0 84 95 84q48 0 72 -21t24 -53q0 -30 -22.5 -57t-73.5 -62zM299 -10q-104 0 -157 77.5t-53 209.5q0 135 54 213.5t158 78.5t157 -78t53 -210
q0 -135 -54 -213t-158 -78zM300 46q146 0 146 233q0 234 -146 234t-146 -234q0 -233 146 -233z" />
    <glyph glyph-name="uni1ED5" unicode="&#x1ed5;" 
d="M168 490l100 191h64l100 -191h-40l-92 123l-92 -123h-40zM402 666l-21 25q64 53 64 85q0 37 -46 37q-45 0 -45 -38h-47q0 84 95 84q48 0 72 -21t24 -53q0 -30 -23 -57t-73 -62zM299 -10q-38 0 -71.5 11t-63 35.5t-47 70.5t-17.5 108q0 121 59 174t142 53q38 0 71.5 -11
t63 -35.5t47 -70.5t17.5 -108q0 -121 -59 -174t-142 -53zM300 45q139 0 139 171t-139 171t-139 -171t139 -171z" />
    <glyph glyph-name="uni1ED6" unicode="&#x1ed6;" 
d="M170 761l-28 13q15 37 42 64t62 27q28 0 67 -29q29 -21 49 -21q40 0 68 50l28 -13q-15 -37 -42 -64t-62 -27q-27 0 -63 26q-34 24 -53 24q-40 0 -68 -50zM330 742l102 -145h-40l-92 86l-92 -86h-40l102 145h60zM299 -10q-104 0 -157 77.5t-53 209.5q0 135 54 213.5
t158 78.5t157 -78t53 -210q0 -135 -54 -213t-158 -78zM300 46q146 0 146 233q0 234 -146 234t-146 -234q0 -233 146 -233z" />
    <glyph glyph-name="uni1ED7" unicode="&#x1ed7;" 
d="M168 490l100 191h64l100 -191h-40l-92 123l-92 -123h-40zM171 718l-30 14q15 46 43 80.5t63 34.5q30 0 68 -40q26 -28 45 -28q35 0 69 68l30 -14q-15 -46 -43 -80.5t-63 -34.5q-28 0 -60 32q-34 36 -53 36q-35 0 -69 -68zM299 -10q-38 0 -71.5 11t-63 35.5t-47 70.5
t-17.5 108q0 121 59 174t142 53q38 0 71.5 -11t63 -35.5t47 -70.5t17.5 -108q0 -121 -59 -174t-142 -53zM300 45q139 0 139 171t-139 171t-139 -171t139 -171z" />
    <glyph glyph-name="uni1ED8" unicode="&#x1ed8;" 
d="M259 -151v81h81v-81h-81zM168 597l100 191h64l100 -191h-40l-92 123l-92 -123h-40zM299 -10q-104 0 -157 77.5t-53 209.5q0 135 54 213.5t158 78.5t157 -78t53 -210q0 -135 -54 -213t-158 -78zM300 46q146 0 146 233q0 234 -146 234t-146 -234q0 -233 146 -233z" />
    <glyph glyph-name="uni1ED9" unicode="&#x1ed9;" 
d="M259 -151v81h81v-81h-81zM168 490l100 191h64l100 -191h-40l-92 123l-92 -123h-40zM299 -10q-38 0 -71.5 11t-63 35.5t-47 70.5t-17.5 108q0 121 59 174t142 53q38 0 71.5 -11t63 -35.5t47 -70.5t17.5 -108q0 -121 -59 -174t-142 -53zM300 45q139 0 139 171t-139 171
t-139 -171t139 -171z" />
    <glyph glyph-name="uni1EDA" unicode="&#x1eda;" 
d="M253 597l77 191h80l-120 -191h-37zM301 569q96 0 152 -73q38 3 53.5 21t15.5 54q0 20 -5 58h61q4 -24 4 -56q0 -56 -26.5 -83.5t-78.5 -32.5q34 -71 34 -176q0 -135 -54 -213t-158 -78t-157 77.5t-53 209.5q0 135 54 213.5t158 78.5zM300 46q146 0 146 233
q0 234 -146 234t-146 -234q0 -233 146 -233z" />
    <glyph glyph-name="uni1EDB" unicode="&#x1edb;" 
d="M253 490l77 191h80l-120 -191h-37zM299 -10q-38 0 -71.5 11t-63 35.5t-47 70.5t-17.5 108q0 121 59 174t142 53q106 0 158 -74q33 4 46.5 22t13.5 52q0 20 -5 58h61q4 -24 4 -56q0 -54 -24.5 -81t-73.5 -34q19 -47 19 -112q0 -121 -59 -174t-142 -53zM300 45
q139 0 139 171t-139 171t-139 -171t139 -171z" />
    <glyph glyph-name="uni1EDC" unicode="&#x1edc;" 
d="M311 597l-120 191h80l77 -191h-37zM301 569q96 0 152 -73q38 3 53.5 21t15.5 54q0 20 -5 58h61q4 -24 4 -56q0 -56 -26.5 -83.5t-78.5 -32.5q34 -71 34 -176q0 -135 -54 -213t-158 -78t-157 77.5t-53 209.5q0 135 54 213.5t158 78.5zM300 46q146 0 146 233
q0 234 -146 234t-146 -234q0 -233 146 -233z" />
    <glyph glyph-name="uni1EDD" unicode="&#x1edd;" 
d="M311 490l-120 191h80l77 -191h-37zM299 -10q-38 0 -71.5 11t-63 35.5t-47 70.5t-17.5 108q0 121 59 174t142 53q106 0 158 -74q33 4 46.5 22t13.5 52q0 20 -5 58h61q4 -24 4 -56q0 -54 -24.5 -81t-73.5 -34q19 -47 19 -112q0 -121 -59 -174t-142 -53zM300 45
q139 0 139 171t-139 171t-139 -171t139 -171z" />
    <glyph glyph-name="uni1EDE" unicode="&#x1ede;" 
d="M295 597l-21 25q64 53 64 85q0 37 -46 37q-45 0 -45 -38h-47q0 84 95 84q48 0 72 -21t24 -53q0 -30 -22.5 -57t-73.5 -62zM301 569q96 0 152 -73q38 3 53.5 21t15.5 54q0 20 -5 58h61q4 -24 4 -56q0 -56 -26.5 -83.5t-78.5 -32.5q34 -71 34 -176q0 -135 -54 -213
t-158 -78t-157 77.5t-53 209.5q0 135 54 213.5t158 78.5zM300 46q146 0 146 233q0 234 -146 234t-146 -234q0 -233 146 -233z" />
    <glyph glyph-name="uni1EDF" unicode="&#x1edf;" 
d="M295 490l-21 25q64 53 64 85q0 37 -46 37q-45 0 -45 -38h-47q0 84 95 84q48 0 72 -21t24 -53q0 -30 -22.5 -57t-73.5 -62zM299 -10q-38 0 -71.5 11t-63 35.5t-47 70.5t-17.5 108q0 121 59 174t142 53q106 0 158 -74q33 4 46.5 22t13.5 52q0 20 -5 58h61q4 -24 4 -56
q0 -54 -24.5 -81t-73.5 -34q19 -47 19 -112q0 -121 -59 -174t-142 -53zM300 45q139 0 139 171t-139 171t-139 -171t139 -171z" />
    <glyph glyph-name="uni1EE0" unicode="&#x1ee0;" 
d="M171 627l-30 14q15 46 43 80.5t63 34.5q30 0 67 -39q29 -29 46 -29q35 0 69 68l30 -14q-15 -46 -43 -80.5t-63 -34.5q-28 0 -66 38q-28 30 -47 30q-35 0 -69 -68zM301 569q96 0 152 -73q38 3 53.5 21t15.5 54q0 20 -5 58h61q4 -24 4 -56q0 -56 -26.5 -83.5t-78.5 -32.5
q34 -71 34 -176q0 -135 -54 -213t-158 -78t-157 77.5t-53 209.5q0 135 54 213.5t158 78.5zM300 46q146 0 146 233q0 234 -146 234t-146 -234q0 -233 146 -233z" />
    <glyph glyph-name="uni1EE1" unicode="&#x1ee1;" 
d="M171 520l-30 14q15 46 43 80.5t63 34.5q30 0 67 -39q29 -29 46 -29q35 0 69 68l30 -14q-15 -46 -43 -80.5t-63 -34.5q-28 0 -66 38q-28 30 -47 30q-35 0 -69 -68zM299 -10q-38 0 -71.5 11t-63 35.5t-47 70.5t-17.5 108q0 121 59 174t142 53q106 0 158 -74q33 4 46.5 22
t13.5 52q0 20 -5 58h61q4 -24 4 -56q0 -54 -24.5 -81t-73.5 -34q19 -47 19 -112q0 -121 -59 -174t-142 -53zM300 45q139 0 139 171t-139 171t-139 -171t139 -171z" />
    <glyph glyph-name="uni1EE2" unicode="&#x1ee2;" 
d="M259 -151v81h81v-81h-81zM301 569q96 0 152 -73q38 3 53.5 21t15.5 54q0 20 -5 58h61q4 -24 4 -56q0 -56 -26.5 -83.5t-78.5 -32.5q34 -71 34 -176q0 -135 -54 -213t-158 -78t-157 77.5t-53 209.5q0 135 54 213.5t158 78.5zM300 46q146 0 146 233q0 234 -146 234
t-146 -234q0 -233 146 -233z" />
    <glyph glyph-name="uni1EE3" unicode="&#x1ee3;" 
d="M259 -151v81h81v-81h-81zM299 -10q-38 0 -71.5 11t-63 35.5t-47 70.5t-17.5 108q0 121 59 174t142 53q106 0 158 -74q33 4 46.5 22t13.5 52q0 20 -5 58h61q4 -24 4 -56q0 -54 -24.5 -81t-73.5 -34q19 -47 19 -112q0 -121 -59 -174t-142 -53zM300 45q139 0 139 171
t-139 171t-139 -171t139 -171z" />
    <glyph glyph-name="uni1EE4" unicode="&#x1ee4;" 
d="M259 -151v81h81v-81h-81zM300 -10q-94 0 -138 47.5t-44 155.5v365h63v-365q0 -80 27 -113.5t92 -33.5q66 0 93 33.5t27 113.5v365h63v-365q0 -108 -44.5 -155.5t-138.5 -47.5z" />
    <glyph glyph-name="uni1EE5" unicode="&#x1ee5;" 
d="M260 -151v81h81v-81h-81zM279 -10q-145 0 -145 177v265h59v-250q0 -72 21 -105.5t79 -33.5q74 0 115 47v342h59v-432h-47v55q-45 -65 -141 -65z" />
    <glyph glyph-name="uni1EE6" unicode="&#x1ee6;" 
d="M295 597l-21 25q64 53 64 85q0 37 -46 37q-45 0 -45 -38h-47q0 84 95 84q48 0 72 -21t24 -53q0 -30 -22.5 -57t-73.5 -62zM300 -10q-94 0 -138 47.5t-44 155.5v365h63v-365q0 -80 27 -113.5t92 -33.5q66 0 93 33.5t27 113.5v365h63v-365q0 -108 -44.5 -155.5
t-138.5 -47.5z" />
    <glyph glyph-name="uni1EE7" unicode="&#x1ee7;" 
d="M296 490l-21 25q64 53 64 85q0 37 -46 37q-45 0 -45 -38h-47q0 84 95 84q48 0 72 -21t24 -53q0 -30 -23 -57t-73 -62zM279 -10q-145 0 -145 177v265h59v-250q0 -72 21 -105.5t79 -33.5q74 0 115 47v342h59v-432h-47v55q-45 -65 -141 -65z" />
    <glyph glyph-name="uni1EE8" unicode="&#x1ee8;" 
d="M253 597l77 191h80l-120 -191h-37zM300 -10q-94 0 -138 47.5t-44 155.5v365h63v-365q0 -80 27 -113.5t92 -33.5q66 0 93 33.5t27 113.5v365h36q47 0 65.5 18t18.5 57q0 20 -5 58h61q4 -24 4 -56q0 -59 -29 -86t-88 -31v-325q0 -108 -44.5 -155.5t-138.5 -47.5z" />
    <glyph glyph-name="uni1EE9" unicode="&#x1ee9;" 
d="M253 490l77 191h80l-120 -191h-37zM279 -10q-145 0 -145 177v265h59v-250q0 -72 21 -105.5t79 -33.5q74 0 115 47v342h37q47 0 65.5 18t18.5 57q0 20 -5 58h61q4 -24 4 -56q0 -61 -30.5 -88t-91.5 -30v-391h-47v55q-45 -65 -141 -65z" />
    <glyph glyph-name="uni1EEA" unicode="&#x1eea;" 
d="M311 597l-120 191h80l77 -191h-37zM300 -10q-94 0 -138 47.5t-44 155.5v365h63v-365q0 -80 27 -113.5t92 -33.5q66 0 93 33.5t27 113.5v365h36q47 0 65.5 18t18.5 57q0 20 -5 58h61q4 -24 4 -56q0 -59 -29 -86t-88 -31v-325q0 -108 -44.5 -155.5t-138.5 -47.5z" />
    <glyph glyph-name="uni1EEB" unicode="&#x1eeb;" 
d="M311 490l-120 191h80l77 -191h-37zM279 -10q-145 0 -145 177v265h59v-250q0 -72 21 -105.5t79 -33.5q74 0 115 47v342h37q47 0 65.5 18t18.5 57q0 20 -5 58h61q4 -24 4 -56q0 -61 -30.5 -88t-91.5 -30v-391h-47v55q-45 -65 -141 -65z" />
    <glyph glyph-name="uni1EEC" unicode="&#x1eec;" 
d="M295 597l-21 25q64 53 64 85q0 37 -46 37q-45 0 -45 -38h-47q0 84 95 84q48 0 72 -21t24 -53q0 -30 -22.5 -57t-73.5 -62zM300 -10q-94 0 -138 47.5t-44 155.5v365h63v-365q0 -80 27 -113.5t92 -33.5q66 0 93 33.5t27 113.5v365h36q47 0 65.5 18t18.5 57q0 20 -5 58h61
q4 -24 4 -56q0 -59 -29 -86t-88 -31v-325q0 -108 -44.5 -155.5t-138.5 -47.5z" />
    <glyph glyph-name="uni1EED" unicode="&#x1eed;" 
d="M295 490l-21 25q64 53 64 85q0 37 -46 37q-45 0 -45 -38h-47q0 84 95 84q48 0 72 -21t24 -53q0 -30 -22.5 -57t-73.5 -62zM279 -10q-145 0 -145 177v265h59v-250q0 -72 21 -105.5t79 -33.5q74 0 115 47v342h37q47 0 65.5 18t18.5 57q0 20 -5 58h61q4 -24 4 -56
q0 -61 -30.5 -88t-91.5 -30v-391h-47v55q-45 -65 -141 -65z" />
    <glyph glyph-name="uni1EEE" unicode="&#x1eee;" 
d="M171 627l-30 14q15 46 43 80.5t63 34.5q30 0 67 -39q29 -29 46 -29q35 0 69 68l30 -14q-15 -46 -43 -80.5t-63 -34.5q-28 0 -66 38q-28 30 -47 30q-35 0 -69 -68zM300 -10q-94 0 -138 47.5t-44 155.5v365h63v-365q0 -80 27 -113.5t92 -33.5q66 0 93 33.5t27 113.5v365h36
q47 0 65.5 18t18.5 57q0 20 -5 58h61q4 -24 4 -56q0 -59 -29 -86t-88 -31v-325q0 -108 -44.5 -155.5t-138.5 -47.5z" />
    <glyph glyph-name="uni1EEF" unicode="&#x1eef;" 
d="M171 520l-30 14q15 46 43 80.5t63 34.5q30 0 67 -39q29 -29 46 -29q35 0 69 68l30 -14q-15 -46 -43 -80.5t-63 -34.5q-28 0 -66 38q-28 30 -47 30q-35 0 -69 -68zM279 -10q-145 0 -145 177v265h59v-250q0 -72 21 -105.5t79 -33.5q74 0 115 47v342h37q47 0 65.5 18
t18.5 57q0 20 -5 58h61q4 -24 4 -56q0 -61 -30.5 -88t-91.5 -30v-391h-47v55q-45 -65 -141 -65z" />
    <glyph glyph-name="uni1EF0" unicode="&#x1ef0;" 
d="M259 -151v81h81v-81h-81zM300 -10q-94 0 -138 47.5t-44 155.5v365h63v-365q0 -80 27 -113.5t92 -33.5q66 0 93 33.5t27 113.5v365h36q47 0 65.5 18t18.5 57q0 20 -5 58h61q4 -24 4 -56q0 -59 -29 -86t-88 -31v-325q0 -108 -44.5 -155.5t-138.5 -47.5z" />
    <glyph glyph-name="uni1EF1" unicode="&#x1ef1;" 
d="M258 -151v81h81v-81h-81zM279 -10q-145 0 -145 177v265h59v-250q0 -72 21 -105.5t79 -33.5q74 0 115 47v342h37q47 0 65.5 18t18.5 57q0 20 -5 58h61q4 -24 4 -56q0 -61 -30.5 -88t-91.5 -30v-391h-47v55q-45 -65 -141 -65z" />
    <glyph glyph-name="Ygrave" unicode="&#x1ef2;" 
d="M312 597l-120 191h80l77 -191h-37zM269 0v226l-221 332h73l90 -136l91 -144l90 144l88 136h73l-221 -334v-224h-63z" />
    <glyph glyph-name="ygrave" unicode="&#x1ef3;" 
d="M311 490l-120 191h80l77 -191h-37zM88 -183v54q68 0 108.5 29t69.5 98l-185 434h65l87 -214l66 -161l61 151l91 224h64l-186 -437q-42 -98 -96.5 -138t-144.5 -40z" />
    <glyph glyph-name="uni1EF4" unicode="&#x1ef4;" 
d="M259 -151v81h81v-81h-81zM269 0v226l-221 332h73l90 -136l91 -144l90 144l88 136h73l-221 -334v-224h-63z" />
    <glyph glyph-name="uni1EF5" unicode="&#x1ef5;" 
d="M385 -151v81h81v-81h-81zM88 -183v54q68 0 108.5 29t69.5 98l-185 434h65l87 -214l66 -161l61 151l91 224h64l-186 -437q-42 -98 -96.5 -138t-144.5 -40z" />
    <glyph glyph-name="uni1EF6" unicode="&#x1ef6;" 
d="M296 597l-21 25q64 53 64 85q0 37 -46 37q-45 0 -45 -38h-47q0 84 95 84q48 0 72 -21t24 -53q0 -30 -23 -57t-73 -62zM269 0v226l-221 332h73l90 -136l91 -144l90 144l88 136h73l-221 -334v-224h-63z" />
    <glyph glyph-name="uni1EF7" unicode="&#x1ef7;" 
d="M295 490l-21 25q64 53 64 85q0 37 -46 37q-45 0 -45 -38h-47q0 84 95 84q48 0 72 -21t24 -53q0 -30 -22.5 -57t-73.5 -62zM88 -183v54q68 0 108.5 29t69.5 98l-185 434h65l87 -214l66 -161l61 151l91 224h64l-186 -437q-42 -98 -96.5 -138t-144.5 -40z" />
    <glyph glyph-name="uni1EF8" unicode="&#x1ef8;" 
d="M172 627l-30 14q15 46 43 80.5t63 34.5q30 0 67 -39q29 -29 46 -29q35 0 69 68l30 -14q-15 -46 -43 -80.5t-63 -34.5q-28 0 -66 38q-28 30 -47 30q-35 0 -69 -68zM269 0v226l-221 332h73l90 -136l91 -144l90 144l88 136h73l-221 -334v-224h-63z" />
    <glyph glyph-name="uni1EF9" unicode="&#x1ef9;" 
d="M171 520l-30 14q15 46 43 80.5t63 34.5q30 0 67 -39q29 -29 46 -29q35 0 69 68l30 -14q-15 -46 -43 -80.5t-63 -34.5q-28 0 -66 38q-28 30 -47 30q-35 0 -69 -68zM88 -183v54q68 0 108.5 29t69.5 98l-185 434h65l87 -214l66 -161l61 151l91 224h64l-186 -437
q-42 -98 -96.5 -138t-144.5 -40z" />
    <glyph glyph-name="endash" unicode="&#x2013;" 
d="M115 190v54h370v-54h-370z" />
    <glyph glyph-name="emdash" unicode="&#x2014;" 
d="M0 190v54h600v-54h-600z" />
    <glyph glyph-name="quoteleft" unicode="&#x2018;" 
d="M222 354l135 234q12 21 26 21q18 0 18 -17q0 -6 -3 -17l-67 -221h-109z" />
    <glyph glyph-name="quoteright" unicode="&#x2019;" 
d="M217 343q-18 0 -18 17q0 6 3 17l67 221h109l-135 -234q-12 -21 -26 -21z" />
    <glyph glyph-name="quotesinglbase" unicode="&#x201a;" 
d="M210 -153q-18 0 -18 17q0 6 3 17l67 221h109l-135 -234q-12 -21 -26 -21z" />
    <glyph glyph-name="quotedblleft" unicode="&#x201c;" 
d="M104 354l135 234q12 21 26 21q18 0 18 -17q0 -6 -3 -17l-67 -221h-109zM302 354l135 234q12 21 26 21q18 0 18 -17q0 -6 -3 -17l-67 -221h-109z" />
    <glyph glyph-name="quotedblright" unicode="&#x201d;" 
d="M137 343q-18 0 -18 17q0 6 3 17l67 221h109l-135 -234q-12 -21 -26 -21zM335 343q-18 0 -18 17q0 6 3 17l67 221h109l-135 -234q-12 -21 -26 -21z" />
    <glyph glyph-name="quotedblbase" unicode="&#x201e;" 
d="M303 -153q-18 0 -18 17q0 6 3 17l67 221h109l-135 -234q-12 -21 -26 -21zM105 -153q-18 0 -18 17q0 6 3 17l67 221h109l-135 -234q-12 -21 -26 -21z" />
    <glyph glyph-name="dagger" unicode="&#x2020;" 
d="M272 186v270h-127v50h127v126h56v-126h127v-50h-127v-270h-56z" />
    <glyph glyph-name="daggerdbl" unicode="&#x2021;" 
d="M272 74v207h-127v49h127v130h-127v50h127v122h56v-122h127v-50h-127v-130h127v-49h-127v-207h-56z" />
    <glyph glyph-name="bullet" unicode="&#x2022;" 
d="M300 161q-49 0 -83.5 27.5t-34.5 90.5t34.5 90.5t83.5 27.5t83.5 -27.5t34.5 -90.5t-34.5 -90.5t-83.5 -27.5z" />
    <glyph glyph-name="ellipsis" unicode="&#x2026;" 
d="M70 0v84h84v-84h-84zM258 0v84h84v-84h-84zM446 0v84h84v-84h-84z" />
    <glyph glyph-name="perthousand" unicode="&#x2030;" 
d="M109 257q-47 0 -65 34.5t-18 119.5q0 86 18.5 122t66.5 36q47 0 65 -34.5t18 -119.5q0 -86 -18.5 -122t-66.5 -36zM110 300q22 0 28.5 24.5t6.5 88.5t-6.5 88.5t-28.5 24.5t-28.5 -24.5t-6.5 -88.5t6.5 -88.5t28.5 -24.5zM270 -10q-47 0 -65 34.5t-18 119.5
q0 86 18.5 122t66.5 36q47 0 65 -34.5t18 -119.5q0 -86 -18.5 -122t-66.5 -36zM271 33q22 0 28.5 24.5t6.5 88.5t-6.5 88.5t-28.5 24.5t-28.5 -24.5t-6.5 -88.5t6.5 -88.5t28.5 -24.5zM489 -10q-47 0 -65 34.5t-18 119.5q0 86 18.5 122t66.5 36q47 0 65 -34.5t18 -119.5
q0 -86 -18.5 -122t-66.5 -36zM490 33q22 0 28.5 24.5t6.5 88.5t-6.5 88.5t-28.5 24.5t-28.5 -24.5t-6.5 -88.5t6.5 -88.5t28.5 -24.5zM27 101l90 120h31v-31l-67 -89h-54zM233 338v31l67 89h54l-90 -120h-31z" />
    <glyph glyph-name="guilsinglleft" unicode="&#x2039;" 
d="M344 58l-151 174l151 174h63l-145 -174l145 -174h-63z" />
    <glyph glyph-name="guilsinglright" unicode="&#x203a;" 
d="M193 58l145 174l-145 174h63l151 -174l-151 -174h-63z" />
    <glyph glyph-name="fraction" unicode="&#x2044;" 
d="M104 0l143 232h30v-30l-124 -202h-49zM323 326v30l124 202h49l-143 -232h-30z" />
    <glyph glyph-name="uni2070" unicode="&#x2070;" 
d="M299 259q-57 0 -86 40.5t-29 110.5q0 72 29.5 113t87.5 41t86.5 -40.5t28.5 -110.5q0 -72 -29.5 -113t-87.5 -41zM300 297q71 0 71 115q0 114 -71 114t-71 -114q0 -115 71 -115zM300 390q-22 0 -22 22t22 22t22 -22t-22 -22z" />
    <glyph glyph-name="uni2074" unicode="&#x2074;" 
d="M316 264v72h-152v30l154 192h39v-185h48v-37h-48v-72h-41zM214 373h102v127z" />
    <glyph glyph-name="uni2075" unicode="&#x2075;" 
d="M303 259q-46 0 -76 24t-32 69h44q3 -56 62 -56q29 0 45.5 16t16.5 45t-17.5 45t-48.5 16q-40 0 -70 -31l-26 8l16 163h174v-38h-138l-8 -85q25 20 64 20q44 0 71.5 -26.5t27.5 -70.5q0 -45 -29.5 -72t-75.5 -27z" />
    <glyph glyph-name="uni2076" unicode="&#x2076;" 
d="M305 259q-53 0 -85 37t-32 114q0 72 31.5 113t88.5 41q44 0 72 -25t29 -68h-44q-4 56 -58 56q-71 0 -74 -106q27 27 75 27t74 -26t26 -68t-28.5 -68.5t-74.5 -26.5zM304 296q26 0 42.5 16t16.5 41q0 28 -16 43.5t-44 15.5q-39 0 -69 -24q5 -92 70 -92z" />
    <glyph glyph-name="uni2077" unicode="&#x2077;" 
d="M258 264v26q0 69 25 130.5t72 99.5h-134v-41h-39v79h226v-34q-107 -90 -107 -240v-20h-43z" />
    <glyph glyph-name="uni2078" unicode="&#x2078;" 
d="M300 259q-48 0 -81.5 22t-33.5 63q0 53 54 70q-47 21 -47 65q0 43 31 64t77 21q45 0 76 -21t31 -64q0 -44 -47 -65q54 -17 54 -70q0 -41 -33 -63t-81 -22zM300 296q30 0 49.5 12.5t19.5 37.5q0 51 -69 51t-69 -51q0 -25 19.5 -37.5t49.5 -12.5zM300 430q26 0 44 12t18 36
q0 25 -18 37t-44 12q-27 0 -45 -12t-18 -37q0 -24 18.5 -36t44.5 -12z" />
    <glyph glyph-name="uni2079" unicode="&#x2079;" 
d="M296 259q-48 0 -75.5 25.5t-29.5 67.5h44q4 -56 61 -56q34 0 52 24t19 83q-27 -27 -75 -27q-47 0 -73.5 26.5t-26.5 67.5q0 42 28.5 68t74.5 26q52 0 84.5 -36.5t32.5 -116.5q0 -78 -32 -115t-84 -37zM297 413q40 0 69 23q-8 91 -70 91q-26 0 -42.5 -15.5t-16.5 -41.5
t16.5 -41.5t43.5 -15.5z" />
    <glyph glyph-name="uni2080" unicode="&#x2080;" 
d="M299 -5q-57 0 -86 40.5t-29 110.5q0 72 29.5 113t87.5 41t86.5 -40.5t28.5 -110.5q0 -72 -29.5 -113t-87.5 -41zM300 33q71 0 71 115q0 114 -71 114t-71 -114q0 -115 71 -115zM300 126q-22 0 -22 22t22 22t22 -22t-22 -22z" />
    <glyph glyph-name="uni2081" unicode="&#x2081;" 
d="M206 0v38h77v203q-23 -23 -66 -23h-11v40h20q47 0 65 36h35v-256h67v-38h-187z" />
    <glyph glyph-name="uni2082" unicode="&#x2082;" 
d="M201 0v17q0 68 65 106l41 24q50 30 50 66q0 24 -16 37.5t-42 13.5q-61 0 -66 -61h-44q3 49 33.5 73t77.5 24q46 0 74 -23.5t28 -62.5q0 -52 -64 -94l-44 -28q-44 -27 -46 -54h161v-38h-208z" />
    <glyph glyph-name="uni2083" unicode="&#x2083;" 
d="M302 -5q-50 0 -81 24.5t-33 71.5h44q5 -59 69 -59q29 0 46.5 13t17.5 37q0 25 -19 39t-50 14h-10v35h10q63 0 63 45q0 22 -16 35t-42 13q-62 0 -66 -59h-44q3 47 33.5 71.5t77.5 24.5t74.5 -23.5t27.5 -60.5q0 -46 -45 -63q52 -19 52 -73q0 -38 -30 -61.5t-79 -23.5z" />
    <glyph glyph-name="uni2084" unicode="&#x2084;" 
d="M316 0v72h-152v30l154 192h39v-185h48v-37h-48v-72h-41zM214 109h102v127z" />
    </font>
</defs>
</svg>
